<svg width="43" height="43" viewBox="0 0 43 43" fill="none" xmlns="http://www.w3.org/2000/svg">
<g clip-path="url(#clip0_59_142)">
<path d="M36.2105 38.4737H6.78947L0 45.2632V6.78947C0 3.05526 3.05526 0 6.78947 0H36.2105C39.9447 0 43 3.05526 43 6.78947V31.6842C43 35.4184 39.9447 38.4737 36.2105 38.4737Z" fill="white"/>
<path d="M21.4985 22.6313C23.3734 22.6313 24.8932 21.1114 24.8932 19.2365C24.8932 17.3617 23.3734 15.8418 21.4985 15.8418C19.6236 15.8418 18.1038 17.3617 18.1038 19.2365C18.1038 21.1114 19.6236 22.6313 21.4985 22.6313Z" fill="#31211F"/>
<path d="M32.8149 22.6313C34.6898 22.6313 36.2096 21.1114 36.2096 19.2365C36.2096 17.3617 34.6898 15.8418 32.8149 15.8418C30.94 15.8418 29.4202 17.3617 29.4202 19.2365C29.4202 21.1114 30.94 22.6313 32.8149 22.6313Z" fill="#31211F"/>
<path d="M10.184 22.6313C12.0589 22.6313 13.5788 21.1114 13.5788 19.2365C13.5788 17.3617 12.0589 15.8418 10.184 15.8418C8.30918 15.8418 6.78931 17.3617 6.78931 19.2365C6.78931 21.1114 8.30918 22.6313 10.184 22.6313Z" fill="#31211F"/>
</g>
<defs>
<clipPath id="clip0_59_142">
<rect width="43" height="43" fill="white"/>
</clipPath>
</defs>
</svg>
