<svg width="43" height="43" viewBox="0 0 43 43" fill="none" xmlns="http://www.w3.org/2000/svg">
<path d="M33.4592 40.9999C33.1102 40.9999 32.7665 40.9149 32.4577 40.7522L21.4999 34.9922L10.5421 40.7522C10.1871 40.939 9.78687 41.0227 9.38673 40.9939C8.98659 40.9651 8.60249 40.825 8.27787 40.5893C7.95325 40.3537 7.70106 40.0319 7.54983 39.6604C7.3986 39.2889 7.35435 38.8826 7.42209 38.4872L9.51539 26.2872L0.648827 17.6473C0.361634 17.3673 0.158535 17.0126 0.062504 16.6233C-0.0335273 16.2339 -0.0186582 15.8254 0.105429 15.4441C0.229517 15.0627 0.457871 14.7237 0.76466 14.4654C1.07145 14.207 1.44443 14.0397 1.84141 13.9822L14.0926 12.2022L19.5725 1.10211C19.77 0.766515 20.0517 0.488294 20.3898 0.29499C20.7278 0.101685 21.1105 0 21.5 0C21.8895 0 22.2722 0.101685 22.6102 0.29499C22.9483 0.488294 23.23 0.766515 23.4275 1.10211L28.9074 12.2022L41.1586 13.9822C41.5556 14.0397 41.9286 14.207 42.2353 14.4654C42.5421 14.7237 42.7705 15.0627 42.8946 15.4441C43.0187 15.8254 43.0335 16.2339 42.9375 16.6233C42.8415 17.0126 42.6384 17.3673 42.3512 17.6473L33.4846 26.2872L35.5779 38.4872C35.6307 38.7957 35.6155 39.112 35.5334 39.414C35.4513 39.716 35.3043 39.9964 35.1025 40.2357C34.9008 40.4749 34.6492 40.6673 34.3654 40.7993C34.0816 40.9313 33.7724 40.9998 33.4594 41L33.4592 40.9999Z" fill="white"/>
</svg>
