<svg width="43" height="43" viewBox="0 0 43 43" fill="none" xmlns="http://www.w3.org/2000/svg">
<g clip-path="url(#clip0_59_140)">
<path d="M28.6685 30.5598L32.3712 26.8556C32.8699 26.3629 33.5009 26.0256 34.1875 25.8847C34.8741 25.7438 35.5869 25.8053 36.2392 26.0618L40.7519 27.8643C41.4111 28.132 41.9764 28.589 42.3765 29.1775C42.7765 29.7661 42.9935 30.4599 43 31.1717V39.44C42.9962 39.9242 42.8944 40.4025 42.7009 40.8463C42.5074 41.2901 42.2261 41.6901 41.874 42.0223C41.5219 42.3545 41.1062 42.6119 40.652 42.7792C40.1978 42.9464 39.7145 43.0199 39.2312 42.9954C7.60928 41.0275 1.2287 14.2381 0.0220138 3.9854C-0.0340016 3.48192 0.0171781 2.97228 0.172186 2.49001C0.327193 2.00774 0.582516 1.56376 0.921356 1.18729C1.2602 0.810826 1.67488 0.510397 2.13811 0.305771C2.60135 0.101144 3.10265 -0.00304136 3.60902 6.75837e-05H11.593C12.3055 0.00217731 13.001 0.217471 13.5902 0.618256C14.1793 1.01904 14.6351 1.58699 14.899 2.24905L16.7008 6.76356C16.9657 7.41357 17.0333 8.12724 16.8951 8.81545C16.7569 9.50365 16.4191 10.1359 15.9239 10.6331L12.2212 14.3374C12.2212 14.3374 14.3535 28.7739 28.6685 30.5598Z" fill="white"/>
</g>
<defs>
<clipPath id="clip0_59_140">
<rect width="43" height="43" fill="white"/>
</clipPath>
</defs>
</svg>
