<svg width="40" height="31" viewBox="0 0 40 31" fill="none" xmlns="http://www.w3.org/2000/svg">
<path d="M37.6416 30.5228C37.8591 30.7826 38.1562 30.9325 38.4677 30.9793C38.3876 30.9903 38.3062 31 38.223 31H1.777C1.69567 31 1.61595 30.9915 1.53754 30.9811C1.81029 30.9419 2.07252 30.8244 2.28025 30.6213L2.37223 30.5228L14.8929 15.5501C18.0851 17.2595 21.9268 17.259 25.1194 15.5501L37.6416 30.5228ZM0.0277746 1.47149C0.0543941 1.73877 0.156483 1.99962 0.343602 2.2133L0.437303 2.31185L12.8294 13.8659L0.324517 28.8212L0.242952 28.9303C0.118402 29.1141 0.050307 29.3207 0.0277746 29.5302C0.0109108 29.4325 1.777e-05 29.3321 0 29.2294V1.77064C3.55401e-05 1.66858 0.0111063 1.56882 0.0277746 1.47149ZM39.9792 1.52163C39.9908 1.60314 40 1.68597 40 1.77064V29.2294C40 29.3147 39.9908 29.3981 39.9792 29.4801C39.9449 29.2457 39.8527 29.0165 39.6894 28.8212L27.1826 13.8659L39.5765 2.31185C39.8091 2.095 39.939 1.81351 39.9792 1.52163ZM38.223 0C38.3206 0 38.416 0.0108546 38.5093 0.0259405C38.2363 0.0578474 37.9703 0.170389 37.7544 0.371763L24.6282 12.6089C22.617 13.806 20.8917 14.1614 19.4239 14.07C17.939 13.9776 16.6072 13.4231 15.4151 12.6314C15.4073 12.6263 15.3988 12.6225 15.3908 12.6176L2.25944 0.371763L2.15531 0.283568C1.96068 0.135861 1.73528 0.0492947 1.50455 0.0224695C1.59342 0.00880019 1.6843 3.54128e-05 1.777 0H38.223Z" fill="white"/>
</svg>
