<svg width="48" height="48" viewBox="0 0 48 48" fill="none" xmlns="http://www.w3.org/2000/svg">
<circle cx="24.3317" cy="24.2691" r="23.567" fill="#E3ECFF"/>
<g clip-path="url(#clip0_143_166)">
<path fill-rule="evenodd" clip-rule="evenodd" d="M35.7237 34.1942H32.4609V37.1334H35.7237V34.1942ZM13.7288 18.4452C13.3066 18.4452 13.0433 18.3794 13.0433 18.0175C13.0433 17.6117 13.312 17.5404 13.7507 17.5404C13.844 17.5404 13.9481 17.5459 14.0633 17.5459C14.1894 17.5513 14.332 17.5568 14.4855 17.5568C14.7268 17.5568 14.8804 17.672 14.9462 17.82C14.9736 17.8749 14.9846 17.9407 14.9846 18.001C14.9846 18.0613 14.9736 18.1216 14.9462 18.1765C14.8858 18.3191 14.7433 18.4232 14.5349 18.4232C14.3649 18.4232 14.2114 18.4287 14.0688 18.4342C13.9427 18.4397 13.822 18.4452 13.7233 18.4452H13.7288ZM20.4188 18.4452C19.9966 18.4452 19.7334 18.3794 19.7334 18.0175C19.7334 17.6117 20.0021 17.5404 20.4408 17.5404C20.534 17.5404 20.6382 17.5459 20.7533 17.5459C20.8795 17.5513 21.022 17.5568 21.1756 17.5568C21.4169 17.5568 21.5704 17.672 21.6362 17.82C21.6636 17.8749 21.6746 17.9407 21.6746 18.001C21.6746 18.0613 21.6636 18.1216 21.6362 18.1765C21.5759 18.3191 21.4333 18.4232 21.2249 18.4232C21.0549 18.4232 20.9014 18.4287 20.7588 18.4342C20.6327 18.4397 20.5121 18.4452 20.4134 18.4452H20.4188ZM33.7989 18.4452C33.3767 18.4452 33.1135 18.3794 33.1135 18.0175C33.1135 17.8694 33.1519 17.7542 33.2341 17.672C33.3109 17.5952 33.426 17.5513 33.5796 17.5513C33.6893 17.5513 33.7989 17.5459 33.9086 17.5459C34.265 17.5349 34.6215 17.5239 34.8408 17.6281C35.0657 17.7323 35.1424 17.9352 34.9615 18.3245L34.945 18.3574L34.8244 18.3903C34.7695 18.4068 34.7311 18.4232 34.616 18.4232C34.446 18.4232 34.2925 18.4287 34.1499 18.4342C34.0238 18.4397 33.9031 18.4452 33.8044 18.4452H33.7989ZM27.1089 18.4452C26.6866 18.4452 26.4234 18.3794 26.4234 18.0175C26.4234 17.8694 26.4618 17.7542 26.5441 17.672C26.6208 17.5952 26.736 17.5513 26.8895 17.5513C26.9992 17.5513 27.1089 17.5459 27.2186 17.5459C27.575 17.5349 27.9314 17.5239 28.1508 17.6281C28.3756 17.7323 28.4524 17.9352 28.2714 18.3245L28.255 18.3574L28.1343 18.3903C28.0795 18.4068 28.0411 18.4232 27.9314 18.4232C27.7614 18.4232 27.6079 18.4287 27.4653 18.4342C27.3392 18.4397 27.2186 18.4452 27.1199 18.4452H27.1089ZM20.4298 32.1488C20.0021 32.1488 19.7334 32.0775 19.7334 31.7211C19.7334 31.573 19.7718 31.4579 19.854 31.3756C19.9308 31.2988 20.046 31.255 20.1995 31.255C20.3201 31.255 20.4408 31.2495 20.5559 31.244C21.1098 31.2221 21.6362 31.2001 21.691 31.6498V31.6662L21.6856 31.6827C21.6636 31.7869 21.6143 31.9075 21.5375 32.0007C21.4717 32.0775 21.3894 32.1269 21.2798 32.1269C21.0988 32.1269 20.9343 32.1324 20.7862 32.1378C20.6546 32.1433 20.5285 32.1488 20.4243 32.1488H20.4298ZM13.7398 32.1488C13.312 32.1488 13.0433 32.0775 13.0433 31.7211C13.0433 31.573 13.0817 31.4579 13.164 31.3756C13.2408 31.2988 13.3559 31.255 13.5095 31.255C13.6301 31.255 13.7507 31.2495 13.8659 31.244C14.4197 31.2221 14.9462 31.2001 15.001 31.6498V31.6662L14.9955 31.6827C14.9736 31.7869 14.9242 31.9075 14.8475 32.0007C14.7817 32.0775 14.6994 32.1269 14.5897 32.1269C14.4088 32.1269 14.2443 32.1324 14.0962 32.1378C13.9646 32.1433 13.8385 32.1488 13.7343 32.1488H13.7398ZM27.1034 32.1488C26.6812 32.1488 26.4179 32.083 26.4179 31.7211C26.4179 31.3153 26.6921 31.2385 27.1473 31.2385C27.246 31.2385 27.3666 31.244 27.4927 31.2495C27.6353 31.255 27.7889 31.2605 27.9643 31.2605C28.1398 31.2605 28.2659 31.3811 28.3208 31.5346C28.3427 31.5895 28.3537 31.6498 28.3537 31.7046C28.3537 31.7649 28.3427 31.8253 28.3208 31.8801C28.2659 32.0227 28.1343 32.1324 27.9095 32.1324C27.7395 32.1324 27.586 32.1378 27.4434 32.1433C27.3173 32.1488 27.1966 32.1543 27.0979 32.1543L27.1034 32.1488ZM33.7934 32.1488C33.3712 32.1488 33.1135 32.083 33.1135 31.7211C33.1135 31.3153 33.3877 31.2385 33.8428 31.2385C33.9415 31.2385 34.0621 31.244 34.1883 31.2495C34.3308 31.255 34.4844 31.2605 34.6599 31.2605C34.8353 31.2605 34.9615 31.3811 35.0163 31.5346C35.0382 31.5895 35.0492 31.6498 35.0492 31.7046C35.0492 31.7649 35.0382 31.8253 35.0163 31.8801C34.9615 32.0227 34.8299 32.1324 34.605 32.1324C34.435 32.1324 34.2815 32.1378 34.1389 32.1433C34.0128 32.1488 33.8922 32.1543 33.7934 32.1543V32.1488ZM9.99992 19.6022V16.1146C9.99992 15.5608 10.2522 15.473 10.7896 15.473L11.5244 15.4895V11.7661C11.5244 11.5139 12.0782 11.1684 12.4566 10.9326L12.6705 10.7955C12.8953 10.6474 13.0762 10.5158 13.2298 10.4116C13.6136 10.143 13.8056 10.0059 14.0139 10.0059C14.2223 10.0059 14.4143 10.143 14.7981 10.4116C14.9517 10.5213 15.1381 10.6529 15.3684 10.8065C15.4616 10.8723 15.5603 10.9326 15.659 10.9929C16.0868 11.2561 16.5255 11.5303 16.5255 11.8758V15.495H18.2089V11.7716C18.2089 11.5248 18.867 11.1136 19.2124 10.8942L19.355 10.801C19.5798 10.6529 19.7608 10.5213 19.9143 10.4171C20.2982 10.1484 20.4901 10.0113 20.6985 10.0113C20.9069 10.0113 21.0988 10.1484 21.4827 10.4171C21.6362 10.5268 21.8227 10.6584 22.053 10.812C22.1517 10.8778 22.2504 10.9381 22.3436 10.9984C22.7713 11.2616 23.21 11.5358 23.21 11.8813V15.5005H24.8935V11.7771C24.8935 11.5303 25.5515 11.119 25.8915 10.8997L26.0396 10.8065C26.2699 10.6529 26.4563 10.5213 26.6044 10.4062C26.9937 10.1265 27.1802 9.98941 27.4324 10.0223C27.6627 10.0552 27.915 10.2307 28.403 10.5762C28.6608 10.7571 28.9843 10.9819 29.3901 11.2506L29.4778 11.3055C29.6862 11.4316 29.8946 11.5632 29.8946 11.8813V15.5005H31.5781V11.7771C31.5781 11.5303 32.2361 11.119 32.5816 10.8997L32.7241 10.8065C32.9544 10.6529 33.1409 10.5213 33.289 10.4062C33.6783 10.1265 33.8647 9.98941 34.117 10.0223C34.3473 10.0552 34.5995 10.2307 35.0876 10.5762C35.3453 10.7571 35.6689 10.9819 36.0692 11.2506L36.1569 11.3055C36.3653 11.4316 36.5737 11.5632 36.5737 11.8813V15.495L36.8643 15.484C36.9959 15.4785 37.1275 15.473 37.2427 15.473C37.6539 15.473 37.9884 15.5334 37.9884 15.8459V20.1945C37.9884 20.4577 37.7252 20.518 37.3468 20.518C37.2317 20.518 37.1001 20.5125 36.963 20.507C36.8369 20.5015 36.7107 20.4961 36.5737 20.4961V29.1931L36.8478 29.1822C36.9849 29.1767 37.122 29.1712 37.2481 29.1712C37.6484 29.1712 37.9884 29.226 37.9884 29.4892V33.8926C37.9884 34.1558 37.6539 34.2107 37.2481 34.2107C37.122 34.2107 36.9794 34.2052 36.8478 34.1997L36.5737 34.1887V37.5337C36.5737 37.6818 36.5353 37.797 36.453 37.8792C36.3708 37.956 36.2611 37.9998 36.1075 37.9998H31.918C31.8303 37.9998 31.7426 37.956 31.6768 37.8847C31.611 37.8189 31.5616 37.7311 31.5616 37.6434V34.1887H29.8781V37.5337C29.8781 37.6818 29.8397 37.797 29.7575 37.8792C29.6752 37.956 29.5656 37.9998 29.412 37.9998H25.2225C25.1348 37.9998 25.047 37.956 24.9812 37.8847C24.9154 37.8189 24.8661 37.7311 24.8661 37.6434V34.1887H23.1826V37.5337C23.1826 37.6818 23.1442 37.797 23.062 37.8792C22.9797 37.956 22.87 37.9998 22.7165 37.9998H18.527C18.4392 37.9998 18.3515 37.956 18.2857 37.8847C18.2199 37.8189 18.1705 37.7311 18.1705 37.6434V34.1887H16.4871V37.5337C16.4871 37.6818 16.4487 37.797 16.3664 37.8792C16.2897 37.956 16.1745 37.9998 16.021 37.9998H11.8315C11.7437 37.9998 11.656 37.956 11.5902 37.8847C11.5244 37.8189 11.475 37.7311 11.475 37.6434V34.1887C11.305 34.1887 11.1625 34.1942 11.0308 34.1997C10.9047 34.2052 10.7896 34.2052 10.6963 34.2052C10.1754 34.2052 9.95605 34.1174 9.95605 33.5636V29.8128C9.95605 29.2589 10.1754 29.1712 10.6963 29.1712C10.7896 29.1712 10.9047 29.1767 11.0308 29.1767C11.1625 29.1822 11.3105 29.1876 11.475 29.1876V20.5674C11.475 20.4906 11.3873 20.4741 11.2776 20.4741L10.9596 20.4851C10.8225 20.4851 10.466 20.4961 10.3564 20.4741C10.0767 20.4193 10.0493 20.348 10.0109 20.2109L9.99992 20.1725C9.98896 20.1341 9.97799 20.0629 9.97251 19.9642C9.96702 19.8709 9.96154 19.7448 9.95605 19.6022H9.99992ZM29.0336 34.1942H25.7709V37.1334H29.0336V34.1942ZM22.3436 34.1942H19.0808V37.1334H22.3436V34.1942ZM15.6536 34.1942H12.3908V37.1334H15.6536V34.1942ZM37.1878 30.0595H10.9212V33.3223H37.1878V30.0595ZM35.636 20.4906H32.4554V29.1931H35.7182V20.5728C35.7182 20.5345 35.7127 20.507 35.7072 20.5015C35.7018 20.4961 35.6743 20.4906 35.636 20.4906ZM31.5013 20.4906H29.8946V29.1931H31.5781V20.5728C31.5781 20.5345 31.5726 20.507 31.5671 20.5015C31.5616 20.4961 31.5342 20.4906 31.4958 20.4906H31.5013ZM28.9459 20.4906H25.7654V29.1931H29.0282V20.5728C29.0282 20.5345 29.0227 20.507 29.0172 20.5015C29.0117 20.4961 28.9843 20.4906 28.9459 20.4906ZM24.8112 20.4906H23.2045V29.1931H24.888V20.5728C24.888 20.5345 24.8825 20.507 24.877 20.5015C24.8716 20.4961 24.8441 20.4906 24.8058 20.4906H24.8112ZM22.2559 20.4906H19.0753V29.1931H22.3381V20.5728C22.3381 20.5345 22.3326 20.507 22.3272 20.5015C22.3217 20.4961 22.2942 20.4906 22.2559 20.4906ZM18.1212 20.4906H16.5145V29.1931H18.198V20.5728C18.198 20.5345 18.1925 20.507 18.187 20.5015C18.1815 20.4961 18.1541 20.4906 18.1157 20.4906H18.1212ZM15.5658 20.4906H12.3853V29.1931H15.6481V20.5728C15.6481 20.5345 15.6426 20.507 15.6371 20.5015C15.6316 20.4961 15.6042 20.4906 15.5658 20.4906ZM37.1823 16.3559H10.9157V19.6187H37.1823V16.3559ZM33.0422 11.64C32.8009 11.7935 32.45 12.0074 32.45 12.0842V15.484H35.7127V12.139C35.7127 12.0184 35.2905 11.7551 35.0437 11.6071L34.9121 11.5248C34.7421 11.4097 34.605 11.311 34.4899 11.2287C34.2705 11.0697 34.1554 10.9929 34.0676 10.9929C33.9744 10.9929 33.8647 11.0752 33.6454 11.2342C33.5302 11.3164 33.3877 11.4152 33.2122 11.5358L33.0477 11.64H33.0422ZM26.0067 11.8703C25.897 11.9306 25.7599 12.0129 25.7599 12.0842V15.484H29.0227V12.139C29.0062 12.0458 28.6004 11.7551 28.1946 11.4864C27.8163 11.2397 27.4544 11.0148 27.3776 10.9765L26.0944 11.8155L26.0067 11.8703ZM19.6621 11.64C19.4208 11.7935 19.0699 12.0074 19.0699 12.0842V15.484H22.3326V12.139C22.3326 12.0184 21.9104 11.7551 21.6636 11.6071L21.532 11.5248C21.362 11.4097 21.2249 11.311 21.1098 11.2287C20.8904 11.0697 20.7753 10.9929 20.6875 10.9929C20.5943 10.9929 20.4846 11.0752 20.2653 11.2342C20.1556 11.311 20.0185 11.4097 19.8321 11.5358L19.6676 11.64H19.6621ZM12.6266 11.8703C12.5169 11.9306 12.3798 12.0129 12.3798 12.0842V15.484H15.6426V12.139C15.6261 12.0458 15.2204 11.7551 14.8146 11.4864C14.4362 11.2397 14.0743 11.0148 13.9975 10.9765L12.7143 11.8155L12.6266 11.8703Z" fill="#16377C"/>
</g>
<defs>
<clipPath id="clip0_143_166">
<rect width="28.005" height="28" fill="white" transform="translate(10 10)"/>
</clipPath>
</defs>
</svg>
