<svg width="48" height="48" viewBox="0 0 48 48" fill="none" xmlns="http://www.w3.org/2000/svg">
<circle cx="24.3316" cy="24.2691" r="23.567" fill="#E3ECFF"/>
<g clip-path="url(#clip0_143_167)">
<path fill-rule="evenodd" clip-rule="evenodd" d="M10.8225 35.6071V34.9523C15.2634 34.9523 19.5468 34.8981 24.0026 34.8981L33.9036 34.8439C35.0655 34.8439 36.0502 34.7898 37.1826 34.7898V35.4988C28.3549 35.4988 19.6552 35.6071 10.8225 35.6071ZM10.0003 35.7154V34.8636C10.0298 34.5928 10.1332 34.391 10.4385 34.1842C10.3942 33.9873 10.3154 33.8888 10.2612 33.6525C9.89197 32.072 11.1327 30.8756 12.1863 30.851C12.1863 30.1814 12.8903 27.3505 14.1557 27.3505C14.456 27.3505 14.52 27.4588 14.7563 27.5129V22.7027C14.7809 22.5353 14.9188 22.3729 15.0813 22.3729C15.7361 22.3729 15.5736 22.9686 15.5736 23.9582H21.8609V19.0889H15.5736V21.2208C15.5736 21.3537 15.3767 21.5506 15.2438 21.5506C14.584 21.5506 14.6972 21.0337 14.6972 20.2361H12.1272C11.561 20.2361 10.9111 19.8521 10.6354 19.5419C9.18299 17.9024 10.6453 15.2536 12.979 15.6671C13.4024 15.741 13.9637 16.0216 14.1507 16.3023C14.7908 15.997 15.6425 16.3318 16.1743 16.6863L17.8286 14.5643C18.0156 14.3575 18.2618 14.1704 18.636 14.1704C19.4533 14.1704 19.601 14.6726 20.0441 15.1699L22.5797 18.3258C22.8308 18.6803 22.7422 20.5315 22.7422 21.0091C23.845 21.0091 24.7558 20.9549 25.8587 20.9549C26.2132 20.9549 26.6809 20.9057 26.6809 21.3931C26.6809 21.9347 26.1443 21.8313 25.5879 21.8313C25.5928 22.0775 25.6421 22.0479 25.6421 22.3236V23.6923C26.1541 23.6923 26.4298 23.7071 26.9222 23.9434C27.6114 24.2782 28.3893 25.4599 28.4878 25.8784H28.5961C28.5961 25.3959 28.9112 24.7509 29.1082 24.4259C30.5655 22.0085 33.8297 21.5851 35.8828 23.6234C36.4195 24.1601 36.8527 24.9429 37.0152 25.7208C37.1875 26.5676 37.1432 26.607 37.0743 27.4145C37.5026 27.6213 38.0048 27.4883 38.0048 28.1825V35.6218C38.0048 35.8631 37.8128 36.0945 37.6553 36.2028C37.414 36.3702 37.2269 36.3357 36.8527 36.3308C36.4687 36.3259 36.3358 36.3899 35.9813 36.3899H27.6114C26.3658 36.3899 25.2728 36.4441 24.0026 36.4441C21.5211 36.4441 19.0446 36.4441 16.5632 36.4441C15.9035 36.4441 15.4358 36.4982 14.7563 36.4982C14.136 36.4982 13.5156 36.4982 12.8953 36.4982C12.1568 36.4982 10.6994 36.6262 10.3006 36.3013C10.148 36.1733 9.99536 35.9763 9.99536 35.7302L10.0003 35.7154ZM26.8434 34.0217H23.9976C24.0124 33.4211 24.6328 32.7416 25.0217 32.3675C25.8144 31.5945 27.2225 31.432 28.281 31.8209C28.4533 31.885 28.5764 31.885 28.6798 32.0228L29.8467 33.9725C28.7832 33.9725 27.9068 34.0267 26.8385 34.0267L26.8434 34.0217ZM33.2439 32.7663H35.868V33.4211C35.868 33.6968 35.9173 33.6672 35.9222 33.9134H33.2439V32.7663ZM20.6103 32.7663V26.3658H21.9249V34.0217H20.6694C20.6694 33.5343 20.6152 33.2635 20.6152 32.7663H20.6103ZM11.0391 33.0961C11.0391 32.0425 12.2454 31.1661 13.3728 32.0228C13.5649 32.1656 13.7815 32.6579 13.9932 32.6579C14.3772 32.6579 14.7514 32.2887 15.3471 32.8352C15.5933 33.0617 15.7213 32.9878 16.0364 32.9435C17.0014 32.8007 17.1442 34.0808 16.7306 34.0808H11.5364C11.2853 34.0808 11.0441 33.49 11.0441 33.0961H11.0391ZM17.6021 32.7663V31.5649H19.7881V34.0267H18.4735C18.1387 34.0267 18.0747 34.0808 17.7646 34.0808C17.7646 32.9435 17.6021 33.1552 17.6021 32.7663ZM33.1897 30.9052C34.6864 30.9052 36.5278 29.3986 36.7986 28.2268C36.9315 28.2564 37.0201 28.2859 37.1284 28.3352C37.1284 29.2854 37.1284 30.2307 37.1284 31.1809C37.1284 32.1705 37.1826 32.973 37.1826 33.9725H36.7444C36.7444 31.6536 36.9167 31.949 35.5973 31.949H33.2439C33.2439 31.5206 33.1897 31.3286 33.1897 30.9101V30.9052ZM14.1557 28.2268C14.5495 28.2268 14.9385 29.3838 15.0665 29.7777C15.2536 30.3488 15.4111 31.1661 15.4702 31.8357C14.9139 31.7077 14.7957 31.5895 14.2148 31.7274C13.9883 31.304 13.4812 31.0184 13.0134 30.9052C13.043 30.8461 13.5452 28.2268 14.1606 28.2268H14.1557ZM31.437 30.7427C31.7668 30.7476 32.0179 30.9003 32.3675 30.9052V31.8357C32.1115 31.6979 31.9884 31.6486 31.8111 31.4074C31.7274 31.2941 31.4714 30.8707 31.437 30.7427ZM18.0944 30.7427H17.6021V29.8663L19.6256 29.8122C19.8718 29.8122 19.7881 30.0928 19.7881 30.6886C19.1579 30.6886 18.7295 30.7427 18.0944 30.7427ZM17.6021 28.1185H19.7339V28.9949H17.6021V28.1185ZM15.6327 28.665V26.3658H16.7257V29.1574C16.7257 30.2258 16.7799 31.1021 16.7799 32.1656C16.5682 32.1459 16.6026 32.1114 16.3417 32.1114C16.2432 30.9495 16.13 30.4621 15.8592 29.4725C15.7804 29.1918 15.6278 28.9358 15.6278 28.665H15.6327ZM22.7422 26.5332C23.6875 26.5332 24.8839 26.3855 25.455 26.7744C25.7504 26.9763 27.0255 29.2115 27.2766 29.6546C27.508 30.0584 27.7394 30.4818 27.9905 30.856C26.2427 30.4473 24.4801 31.304 23.6382 32.6826C23.4413 33.0075 23.136 33.554 23.1213 34.0267H22.7914V29.6497C22.7914 28.5469 22.7372 27.6311 22.7372 26.5332H22.7422ZM17.6021 26.3707H19.7339V27.2471H17.6021V26.3707ZM22.7422 24.5096C23.5791 24.5096 25.8242 24.4062 26.4249 24.6573C27.0797 24.9331 27.3259 25.5386 27.7001 26.1688L31.176 31.9883C31.4517 32.3133 31.9342 32.6776 32.3626 32.7121V33.9134C31.6536 33.9134 30.9003 33.9922 30.403 33.2487C30.2701 33.0518 30.1765 32.8844 30.0485 32.6727L28.9703 30.856C28.4287 29.955 26.5677 26.5627 26.0212 26.1491C25.1349 25.4746 24.0715 25.6568 22.7372 25.6568V24.5096H22.7422ZM32.3133 26.1491L32.3675 27.572C32.0672 27.4932 31.949 27.0797 31.6585 27.0797C31.3533 27.0797 31.2203 27.2668 31.2203 27.5179C31.2203 27.9954 32.3675 28.6207 32.3675 28.9407V30.0337C31.7422 30.0337 30.7034 29.5611 30.339 28.9457C29.7137 27.8822 29.3593 27.6311 29.3593 26.5332C29.3593 25.5682 29.8122 24.7361 30.2996 24.2487C32.658 21.915 36.2472 23.7662 36.2472 26.4249C36.2472 27.5917 36.0158 28.1825 35.3265 29.0047C34.9326 29.4725 33.9036 30.0337 33.1848 30.0337C33.1848 27.3209 32.9435 27.9856 34.0168 26.932C34.588 26.3658 34.3762 25.9867 33.8396 25.9867C33.6525 25.9867 33.3423 26.4249 33.1848 26.5332C33.1848 26.0654 33.2439 25.7503 32.9041 25.6026C32.5595 25.4549 32.3084 25.7503 32.3084 26.1491H32.3133ZM15.5785 25.5485V24.8395L21.9249 24.7853V25.4943L15.5785 25.5485ZM22.7422 21.8313H23.3428V23.6923H22.7422V21.8313ZM24.165 23.5249V21.8313H24.7657V23.6923H24.3275C24.1995 23.6923 24.165 23.653 24.165 23.5299V23.5249ZM16.0167 18.2766C16.2038 17.9959 16.4254 17.7547 16.6322 17.474L18.2421 15.421C18.5966 14.9877 18.7099 14.8548 19.1234 15.3865C19.2317 15.5244 19.3253 15.6376 19.4434 15.7804L21.3734 18.2224C19.5222 18.2224 17.8483 18.2766 16.0118 18.2766H16.0167ZM14.7022 18.8231V19.3696C14.0129 19.3696 12.526 19.4533 12.1124 19.3893C10.2612 19.084 10.7093 16.4746 12.5112 16.4746C12.9593 16.4746 13.363 16.6863 13.5944 16.9226C14.1507 17.4937 13.8455 17.0752 14.9188 17.0752C15.2438 17.0752 15.4358 17.218 15.6278 17.351C15.4653 17.5922 15.3028 17.799 15.1108 18.0402C14.9237 18.2815 14.6972 18.439 14.6972 18.828L14.7022 18.8231Z" fill="#16377C"/>
<path fill-rule="evenodd" clip-rule="evenodd" d="M25.0415 14.9386C25.0415 15.7214 25.6668 16.3073 26.3019 16.3073H28.6012C28.9359 16.3073 29.1821 15.9725 29.0196 15.6771C28.8522 15.3718 28.4387 15.4309 28.0005 15.4359L26.2477 15.4408C25.6323 15.2685 25.9228 14.205 26.6318 14.013C27.454 13.7914 27.0897 14.0671 27.4244 13.2154C27.5574 12.8806 27.7986 12.5015 28.0596 12.3193C28.7341 11.8417 29.5612 11.7187 30.3194 12.0879C30.7773 12.3095 31.0629 12.664 31.2697 13.1071C31.3927 13.3729 31.3681 13.6437 31.5404 13.821C31.9294 14.2148 32.2248 13.5945 32.8993 14.4265C33.1012 14.6776 33.2144 14.6826 33.6329 14.6776C33.9628 14.6727 34.2877 14.6776 34.6176 14.6776C34.7653 14.8992 34.7801 14.7466 34.7801 15.1158C34.7801 15.2931 34.5585 15.4211 34.396 15.4408C34.209 15.4654 33.8397 15.4457 33.6329 15.4457C33.18 15.4457 30.2111 15.4112 29.9896 15.4654C29.4578 15.6032 29.5612 16.3221 30.1323 16.3221L34.2877 16.2679C36.134 16.2778 36.0159 13.8357 34.396 13.8013C33.6772 13.7865 33.5886 13.9194 33.3129 13.6289C32.6827 12.9643 32.2987 13.3532 32.1017 12.9249C31.7522 12.1618 31.3829 11.6202 30.4967 11.246C28.8818 10.5666 27.1241 11.4528 26.6219 12.9249C26.5136 13.2498 26.6564 13.0972 26.2477 13.2597C25.5782 13.5157 25.0415 14.1951 25.0415 14.9534V14.9386Z" fill="#16377C"/>
<path fill-rule="evenodd" clip-rule="evenodd" d="M18.8034 22.4273C18.1782 22.4273 17.7646 21.9743 17.7646 21.605V21.2752C17.7646 20.8961 18.2126 20.453 18.5868 20.453C18.9019 20.453 19.2121 20.453 19.473 20.7681C20.1131 21.541 19.4336 22.4223 18.8034 22.4223V22.4273ZM16.8882 21.3884C16.8882 22.511 17.74 23.2593 18.7001 23.279C19.6995 23.3036 20.5513 22.5454 20.5513 21.3342C20.5513 20.3939 19.6798 19.5864 18.7444 19.5864C17.7498 19.5864 16.8833 20.4037 16.8833 21.3933L16.8882 21.3884Z" fill="#16377C"/>
</g>
<defs>
<clipPath id="clip0_143_167">
<rect width="28" height="25.5084" fill="white" transform="translate(10 11)"/>
</clipPath>
</defs>
</svg>
