<svg width="48" height="48" viewBox="0 0 48 48" fill="none" xmlns="http://www.w3.org/2000/svg">
<circle cx="24.3316" cy="24.2691" r="23.567" fill="#E3ECFF"/>
<g clip-path="url(#clip0_143_168)">
<path fill-rule="evenodd" clip-rule="evenodd" d="M35.1346 20.6707C35.3632 20.654 35.748 20.4811 35.9711 20.3975C36.9136 20.0294 37.3263 19.7394 38.1238 19.2096V32.3323C38.1238 33.0127 38.2186 33.8883 37.9398 34.3177C37.6386 34.7806 37.1479 35.0427 36.7073 35.3104C36.54 35.4108 35.3298 35.9908 35.2182 35.935C35.0509 35.8514 35.1401 34.1225 35.1401 33.8604V20.6763L35.1346 20.6707ZM13.8081 30.3413V26.7106C14.0646 26.5768 14.9514 26.1474 15.2135 26.1251C15.2971 26.4708 15.8437 27.062 16.117 27.2739C16.591 27.642 16.8922 27.787 17.5558 27.9432C17.5558 29.9342 17.9016 29.5493 16.3679 29.8003L13.8081 30.3469V30.3413ZM18.437 29.4601C18.437 27.2014 18.2306 28.2722 19.452 27.5472C19.7532 27.3687 20.1324 27.0899 20.3109 26.8222C20.9801 27.2739 20.9634 27.3687 21.8947 27.5862V29.2259C21.2088 29.2259 20.0655 29.3541 19.3182 29.4043C18.9835 29.4266 18.833 29.4657 18.437 29.4657V29.4601ZM17.5558 27.0007C15.7991 26.5935 14.8789 23.9333 16.1727 21.9813C17.1933 20.4421 19.4743 20.548 20.2328 22.8569C20.7515 24.4408 20.0599 26.2868 18.9055 26.8222C18.7549 26.8891 18.582 26.9226 18.437 26.9951C18.437 26.3035 18.331 25.7737 18.5932 25.5116C18.7883 25.3164 19.3126 24.8981 19.3126 24.5914C19.3126 24.3516 19.0839 24.1229 18.8441 24.1229C18.6712 24.1229 18.5541 24.2791 18.4314 24.3571C18.4314 23.9612 18.5318 22.8514 18.3533 22.6171C18.2028 22.4219 17.9072 22.4219 17.7287 22.5335C17.4945 22.684 17.5503 22.935 17.5503 23.2975C17.5558 24.5245 17.5503 25.757 17.5503 26.9895L17.5558 27.0007ZM20.6009 21.4906C21.3203 20.4142 23.0659 20.1688 24.1255 21.5965C25.1015 22.9183 24.9342 25.1825 23.6236 26.2087C23.4786 26.3203 23.395 26.3983 23.2388 26.4708C23.0882 26.5378 22.9153 26.5712 22.7703 26.6437C22.7703 25.9522 22.6644 25.4224 22.9265 25.1602C23.1217 24.965 23.6459 24.5468 23.6459 24.24C23.6459 24.0002 23.4173 23.7716 23.1775 23.7716C23.0046 23.7716 22.8874 23.9277 22.7648 24.0058C22.7648 23.5931 22.8651 22.5223 22.6755 22.2769C22.5194 22.0706 22.2572 22.0594 22.0621 22.1821C21.8278 22.3327 21.8836 22.5837 21.8836 22.9462C21.8892 24.1731 21.8836 25.4056 21.8836 26.6381C21.298 26.5043 21.1697 26.2812 20.8295 26.0526C21.5211 24.7475 21.4542 23.08 20.7291 21.7583L20.5953 21.485L20.6009 21.4906ZM34.192 23.8329L32.4911 23.1302C31.7382 22.829 30.9072 22.4163 30.9072 23.3087C30.9072 23.6433 31.9947 23.9221 32.4966 24.1229C32.7922 24.24 33.0265 24.3348 33.3276 24.4631C33.612 24.5858 33.8797 24.7587 34.192 24.8312V30.3413L31.7828 29.8226C30.0874 29.5438 28.2748 29.3207 26.5181 29.2259C25.2465 29.159 24.0363 29.1701 22.7648 29.1701C22.7648 26.8389 22.5361 27.9487 23.8523 27.1568C24.5327 26.7497 25.029 26.0804 25.3246 25.3499C25.6313 24.5802 25.6313 24.1731 25.6313 23.3756C25.6313 23.0521 25.57 23.0298 25.57 22.7287C27.7952 22.7287 27.3435 22.7956 29.2452 23.0967C29.8141 23.186 30.3049 22.3606 29.195 22.1431C27.2933 21.7694 27.1316 22.0985 27.0925 21.3177C27.0814 21.0611 27.0312 20.9273 27.0367 20.7377C27.0479 20.2748 27.2487 19.2151 27.4996 18.8582C27.6279 18.6742 27.6446 18.7355 27.8844 18.6574C28.3083 18.518 28.7043 18.2503 28.9106 17.8655C29.2285 17.8711 29.3902 17.9826 29.7304 17.9826C30.6674 17.9826 31.4537 17.4305 31.7828 16.8115C33.6232 17.2409 33.3165 16.6386 33.9745 17.0791C34.3761 17.3468 34.259 17.2855 34.5546 17.5532L34.733 17.7261C35.168 18.1946 35.603 18.8024 35.7648 19.5051C35.525 19.5609 34.9003 19.8063 34.7107 19.9178C34.3928 20.1019 34.2032 20.3696 34.1809 20.8548C34.1363 21.8085 34.1809 22.8792 34.1809 23.8441L34.192 23.8329ZM34.6605 16.3932C34.7497 16.2705 35.2126 15.9805 35.3074 15.6291C35.4469 15.6682 35.5696 15.7518 35.7146 15.8076C36.4786 16.1032 36.1552 15.6514 37.0531 16.2259C37.3877 16.4378 38.1183 17.0234 38.1183 17.503C38.1183 17.938 37.7781 18.2224 37.5494 18.4567C37.2427 18.7634 36.975 18.8861 36.5957 19.0869C36.2555 17.6201 34.839 16.633 34.6605 16.3932ZM35.3074 14.458C34.6215 14.458 34.9003 14.9432 34.3259 15.4674C33.1101 16.5828 31.8274 15.7462 31.6155 15.7462C30.8681 15.7462 31.3366 17.0345 29.6245 17.0345C29.4349 17.0345 29.3902 17.0122 29.2341 16.9565C28.6764 16.7557 29.301 16.8003 28.6318 16.8003C28.3696 16.8003 28.2693 17.2297 28.141 17.4249C27.4383 18.4622 25.5254 17.2632 26.5683 16.092C27.1706 15.4172 28.0127 16.2537 28.2079 15.5064C28.3585 14.9264 28.4645 14.3855 29.2229 14.1178C30.1487 13.7887 30.6116 14.6085 30.8235 13.5545C31.2028 11.6862 33.7626 11.2846 34.6828 12.9856C34.9394 13.4597 34.878 13.5322 35.3074 13.5322C35.6867 13.5322 35.5082 13.0024 36.54 13.0024C37.5159 13.0024 37.8673 14.787 36.5567 15.0157C35.8317 15.1439 35.5361 14.4691 35.3074 14.4691V14.458ZM10.579 13.9895C10.579 13.1083 11.5773 12.7012 12.2465 13.2031C12.5588 13.4374 12.4082 13.521 12.8656 13.521C13.2615 13.521 13.2392 12.506 14.2933 12.0766C15.2693 11.6806 16.2285 11.9762 16.7416 12.6287C17.4331 13.4987 16.987 14.1456 17.7176 14.101C18.0131 14.0787 18.8943 13.8222 19.4297 14.5695C19.6528 14.8874 19.6807 15.0101 19.7811 15.4507C19.8982 15.9693 20.0934 15.802 20.7738 15.802C21.5769 15.802 22.0119 16.8003 21.4542 17.4807C21.0805 17.938 20.177 17.8934 19.8591 17.4193C19.5412 16.9509 19.7532 16.7947 19.1341 16.7947C19.0282 16.7947 18.978 16.8672 18.8051 16.9341C18.2306 17.1572 17.4722 16.9843 17.1041 16.5382C16.8699 16.2538 16.842 15.7407 16.3791 15.7407C16.2898 15.7407 14.3044 16.7836 13.3006 14.9543C13.0608 14.5193 13.1388 14.4524 12.6927 14.4524C12.4696 14.4524 12.174 15.1272 11.4434 14.9989C10.9415 14.9097 10.579 14.5305 10.579 13.9839V13.9895ZM12.6313 12.3498C10.6905 11.3237 8.83338 13.4708 10.0101 15.0882C10.1273 15.2499 10.3001 15.3893 10.3448 15.5734C9.74244 15.7351 8.99512 16.7836 8.99512 17.4472V33.9719C8.99512 35.3439 11.8227 36.8441 12.8042 36.8441C13.3563 36.8441 13.8025 36.3421 13.8025 35.79V33.7377C13.8025 33.3863 13.6854 33.1521 13.334 33.1521C12.8544 33.1521 12.86 33.5983 12.8656 34.089C12.8711 34.5798 12.8711 35.0706 12.8711 35.5614C12.8711 35.8904 12.9102 36.0075 12.6369 35.9183L12.1294 35.7064C11.2259 35.3271 9.89859 34.7806 9.87628 33.6261C9.85398 32.678 9.87628 31.7021 9.87628 30.754C9.87628 26.9058 9.87628 23.0577 9.87628 19.2096C10.4953 19.6223 12.0457 20.6038 12.8656 20.6763C12.8656 21.1504 12.7875 31.2949 12.8879 31.6686C13.0161 32.1482 13.8025 32.3378 13.8025 31.2782L15.9664 30.8042C20.032 29.9843 25.4919 29.8561 29.6579 30.4249C30.857 30.5867 31.9501 30.7596 33.1045 31.0217C33.4224 31.0942 33.9188 31.2726 34.192 31.2782V35.79C34.192 36.4314 34.7107 36.8441 35.3074 36.8441C36.0325 36.8441 38.9994 35.4052 38.9994 33.9719V17.4472C38.9994 16.9843 38.7763 16.5716 38.5477 16.3207C38.3413 16.0864 37.9621 15.657 37.6554 15.5734C37.7056 15.3893 37.8506 15.2833 37.9677 15.1216C39.1835 13.4931 37.3263 11.3125 35.3688 12.3498C35.1123 11.9706 34.8557 11.7029 34.4486 11.4519C33.0766 10.5987 31.3032 10.9946 30.3829 12.2885C30.1822 12.5729 30.1264 12.7904 29.9758 13.1083C29.2118 13.1083 28.7823 13.1975 28.0071 13.086C27.5889 13.0247 25.3079 12.8629 25.0681 13.0135C24.9175 13.1027 24.343 13.8891 25.8098 13.8724C26.2337 13.8668 26.4679 13.9226 26.8025 13.9337C27.2264 13.9449 27.4885 13.9895 27.8566 13.9895L27.3881 14.8707C26.7523 14.8707 26.3898 15.0603 26.0385 15.3391C24.9509 16.2036 25.3023 18.2726 26.5683 18.5626C26.546 18.8359 26.3898 19.1649 26.3117 19.4773C26.0273 20.6038 26.2169 20.8046 26.2169 21.7861C25.8042 21.7861 25.6592 21.8419 25.28 21.8419C25.1238 21.5408 25.0346 21.3456 24.8338 21.0556C24.7223 20.8938 24.6665 20.8548 24.5438 20.7042C23.4507 19.4103 21.6995 19.3992 20.4168 20.3752C20.2328 20.5146 20.1324 20.6652 19.9484 20.7879C19.2568 20.325 18.8162 20.0238 17.896 20.0238C16.9981 20.0238 16.1504 20.4923 15.6373 21.1615C14.8064 22.2323 14.6781 22.9629 14.6781 24.3627C14.6781 24.7531 14.7896 24.9093 14.7952 25.2439C14.6279 25.3331 13.9865 25.6399 13.7969 25.6566V21.2006C13.8025 20.6094 13.7579 20.3082 13.44 20.035C12.9158 19.5721 7.37778 18.2392 11.2705 16.0418C11.4992 15.9136 11.9454 15.9359 12.2298 15.8299C12.4082 15.763 12.5309 15.6737 12.6815 15.6347C12.8823 16.3932 14.3212 16.9843 15.2023 16.9843C15.5983 16.9843 15.8771 16.884 16.2006 16.8059C16.5241 17.4193 17.316 17.977 18.253 17.977C18.5932 17.977 18.7605 17.8655 19.0728 17.8599C19.6193 18.8917 21.1474 18.9474 21.9784 18.2447C22.6086 17.7149 22.7982 16.6107 22.3911 15.8857C22.0119 15.222 21.4597 14.8651 20.5953 14.8651L20.1268 13.9839L21.298 13.9226C21.8111 13.8835 23.395 13.9504 23.6236 13.666C23.8132 13.4318 23.8077 12.9299 23.1161 12.9299C22.0788 12.9299 21.0861 12.9187 20.0376 13.0693C19.1676 13.1975 18.8497 13.1027 18.0187 13.1027C17.8793 12.8072 17.8291 12.5952 17.6339 12.3164C17.1654 11.6304 16.3345 10.9946 15.3808 10.9946C14.1706 10.9946 13.2894 11.3571 12.6258 12.3443L12.6313 12.3498Z" fill="#16377C"/>
<path fill-rule="evenodd" clip-rule="evenodd" d="M27.2821 27.179C27.2821 27.3574 27.2208 27.8817 27.6948 27.8817C27.9346 27.8817 28.0796 27.7646 28.141 27.5638C28.5593 26.1807 27.2877 26.0357 27.2877 27.179H27.2821Z" fill="#16377C"/>
<path fill-rule="evenodd" clip-rule="evenodd" d="M31.0911 26.6491C31.7492 26.6491 31.5986 25.5504 31.5819 25.5169C31.4871 25.266 31.3309 25.2437 31.1469 25.2437C30.7231 25.2437 30.7119 25.5392 30.6617 25.9352C30.6227 26.2754 30.6394 26.6491 31.0856 26.6491H31.0911Z" fill="#16377C"/>
<path fill-rule="evenodd" clip-rule="evenodd" d="M26.4623 27.882C26.6519 27.882 26.769 27.8039 26.8638 27.6923C27.0646 27.4637 27.0144 26.5044 26.5013 26.4319C25.7651 26.3315 25.938 27.8764 26.4623 27.8764V27.882Z" fill="#16377C"/>
<path fill-rule="evenodd" clip-rule="evenodd" d="M29.3901 25.651C29.3901 27.0898 30.3271 26.7329 30.3271 26.2366C30.3271 25.6454 30.3773 25.2383 29.7415 25.2383C29.5742 25.2383 29.3901 25.4837 29.3901 25.651Z" fill="#16377C"/>
</g>
<defs>
<clipPath id="clip0_143_168">
<rect width="30" height="25.8439" fill="white" transform="translate(9 11)"/>
</clipPath>
</defs>
</svg>
