<svg width="48" height="48" viewBox="0 0 48 48" fill="none" xmlns="http://www.w3.org/2000/svg">
<circle cx="24.3316" cy="24.2691" r="23.567" fill="#E3ECFF"/>
<g clip-path="url(#clip0_143_169)">
<path fill-rule="evenodd" clip-rule="evenodd" d="M33.6108 30.8891H34.9795V34.6616H33.6108V30.8891ZM24.2282 10H24.3005C24.7473 10.0881 27.3431 11.3246 27.5413 11.4222C27.8119 11.5543 28.1643 11.6047 28.1989 11.976C28.2367 12.3944 27.9441 12.4668 27.5445 12.4636C26.2702 12.4542 26.503 12.2025 26.503 13.7191L33.4566 16.7176C34.045 16.9599 34.6365 17.2494 35.206 17.4822C35.7975 17.7245 36.3293 17.9793 36.924 18.2247C37.3015 18.3789 37.4966 18.4104 37.4966 18.9075C37.4966 19.1529 37.5249 20.6318 37.4683 20.7985C37.4211 20.937 37.2669 21.0565 37.1536 21.0848C36.9774 21.1289 36.2003 21.0974 35.9643 21.0974V34.6585C37.6288 34.6585 37.4966 34.4288 37.4966 36.0807C37.4966 37.8647 37.6697 37.9874 36.8012 37.9937H17.1047C17.0543 37.9874 17.0103 37.9748 16.9694 37.9591C16.8309 37.9025 16.7019 37.7074 16.7176 37.5092C16.7554 37.0372 17.2368 37.0624 17.756 37.0655H36.5684V35.5898H11.9603V37.0655C12.5958 37.0655 15.2137 36.9648 15.5661 37.1253C15.9153 37.2826 16.0475 37.9497 15.2892 37.9969H14.6725C14.2603 37.9969 13.8513 37.9969 13.4391 37.9969H13.4108H13.3824H11.5764C10.9156 37.9465 11.0321 37.7074 11.0321 36.7383C11.0321 34.9952 10.815 34.6522 11.6865 34.6585C11.9791 34.6616 12.2718 34.6616 12.5644 34.6616V21.1006C11.9508 21.1006 11.1611 21.2327 11.0446 20.7608C10.9912 20.5374 11.0289 19.241 11.0289 18.9107C11.0289 18.5237 11.1076 18.4607 11.375 18.3286L14.6158 16.9221C15.0784 16.7302 15.5944 16.3558 15.887 16.7931C16.3715 17.5105 14.6442 17.8377 13.9456 18.2216C13.8324 18.2845 13.8733 18.2625 13.8166 18.3128H34.7057C34.561 18.187 34.4131 18.1555 34.2338 18.0737L27.8654 15.3112C27.5571 15.1853 27.211 14.9965 26.89 14.921C26.997 15.0815 27.6043 15.5566 27.7805 15.7265C27.9472 15.8901 28.0605 15.9562 28.2178 16.1072C28.3028 16.1922 28.3437 16.2456 28.4381 16.3243C28.5387 16.4093 28.5513 16.3998 28.6552 16.4911L29.1114 16.9095C29.4701 17.2997 29.102 17.9227 28.5765 17.6647L25.6692 15.1003C24.9015 14.4585 25.1815 14.4836 24.2628 14.4836C23.2811 14.4836 23.58 14.5088 23.0451 14.9588L19.9144 17.6836C19.3795 17.8912 19.0554 17.2588 19.4456 16.8844C19.518 16.8151 19.5872 16.7774 19.6847 16.6861C19.7634 16.6106 19.798 16.5634 19.8767 16.4942L21.0219 15.5062C21.1038 15.437 21.1415 15.3898 21.2139 15.3175C21.3649 15.1664 21.5254 15.0909 21.6386 14.921C21.346 14.9902 20.6255 15.3332 20.2794 15.4748L17.6112 16.6358C16.7019 17.0543 16.6484 16.2803 16.812 16.0569C16.9505 15.8649 17.2274 15.78 17.4382 15.695L22.0225 13.7191C22.0225 13.5366 22.0571 12.6367 21.9973 12.5423C21.8023 12.2214 20.0623 12.8727 20.3455 11.8847C20.4304 11.5826 20.7545 11.5386 21.0188 11.4065C21.4656 11.1831 23.8695 10.085 24.2313 10.0031L24.2282 10ZM31.3139 30.8891H32.6826V34.6616H31.3139V30.8891ZM28.9635 30.8891H30.3857V34.6616H28.9635V30.8891ZM20.4871 21.1006H28.0322V34.6616H20.4871V21.1006ZM18.1367 30.8891H19.5589V34.6616H18.1367V30.8891ZM15.8398 30.8891H17.2085V34.6616H15.8398V30.8891ZM13.5429 30.8891H14.9116V34.6616H13.5429V30.8891ZM28.9635 29.7941V21.1006H34.9795V29.9609H29.1271C29.0013 29.9609 28.9635 29.9231 28.9635 29.7973V29.7941ZM19.3952 29.9577H13.5429V21.0974H19.5589V29.791C19.5589 29.9168 19.5211 29.9546 19.3952 29.9546V29.9577ZM11.9571 19.2379H36.5653V20.1692H11.9571V19.2379ZM22.9476 12.4574H25.5717V13.5523H22.9476V12.4574ZM24.2596 10.9817L25.4615 11.5292H23.0545C23.1269 11.4662 23.0545 11.5103 23.1867 11.4442C23.2307 11.4222 23.3 11.4002 23.3409 11.3813L24.2565 10.9848L24.2596 10.9817Z" fill="#16377C"/>
</g>
<defs>
<clipPath id="clip0_143_169">
<rect width="26.5067" height="28" fill="white" transform="translate(11 10)"/>
</clipPath>
</defs>
</svg>
