<svg width="48" height="48" viewBox="0 0 48 48" fill="none" xmlns="http://www.w3.org/2000/svg">
<circle cx="24.3316" cy="24.2691" r="23.567" fill="#E3ECFF"/>
<g clip-path="url(#clip0_143_170)">
<path fill-rule="evenodd" clip-rule="evenodd" d="M21.0329 31.7737H30.5506L30.8396 32.8759H20.7439C20.8223 32.5428 21.0035 32.1215 21.0329 31.7737ZM22.2526 27.4239H29.3309C29.3407 27.806 30.2812 30.6373 30.3155 31.0781H21.2631L22.0224 28.3595C22.091 28.1195 22.2428 27.708 22.2477 27.4239H22.2526ZM18.7698 37.2894H17.5501L20.1757 28.0166C20.2247 27.8353 20.3177 27.5953 20.3373 27.3651L21.4983 27.4239C21.4934 27.7178 21.2631 28.3546 21.175 28.6681L18.9315 36.6379C18.8825 36.8191 18.7894 37.0591 18.7698 37.2894ZM30.0853 27.4239C30.2763 27.4239 30.4772 27.4288 30.6682 27.4239C30.9719 27.419 30.9964 27.37 31.2462 27.3651C31.2609 27.5512 31.3442 27.7717 31.3981 27.9676L34.0285 37.2894H32.8088C32.8039 37.0053 31.5597 32.7485 31.4519 32.3762L30.0804 27.4239H30.0853ZM16.8007 19.9978H34.7878V21.7955H20.8615C20.4745 21.7955 20.4745 22.4911 20.8615 22.4911H34.7878C34.7731 23.0838 34.5233 23.8088 34.3224 24.2301C33.5877 25.8025 31.8977 26.7234 30.0853 26.7234H21.4983C18.9168 26.7234 17.0015 24.9502 16.8007 22.4862H18.7747C18.9119 22.2805 18.9511 22.3932 18.9511 22.0797C18.9511 21.9425 18.7943 21.7906 18.6621 21.7906H16.8056V19.9929L16.8007 19.9978ZM16.1639 19.361C16.0316 19.9194 16.1051 21.7955 16.1051 22.496C16.1051 23.074 16.2961 23.7353 16.4627 24.1713C16.9427 25.44 18.3388 26.8312 19.6467 27.1398C19.6026 27.6835 16.7468 37.2306 16.7468 37.7008C16.7468 37.838 16.9035 37.9899 17.0358 37.9899H19.0099C19.4164 37.9899 19.4017 37.6715 19.5634 37.0934C19.7103 36.5693 20.5088 33.88 20.5186 33.5812H31.0797L32.0153 36.9955C32.3729 38.225 31.9761 37.9899 34.5625 37.9899C35.1552 37.9899 34.6359 36.7358 34.5233 36.344L31.9516 27.1398C32.8382 27.0663 34.2098 25.8123 34.7633 24.9012C35.7381 23.2847 35.4932 21.5016 35.4932 19.6549C35.4932 19.4982 35.4638 19.4933 35.4344 19.3659C35.3021 19.3365 35.3021 19.3071 35.1454 19.3071H16.4627C16.3696 19.3071 16.2422 19.3365 16.1736 19.3659L16.1639 19.361Z" fill="#16377C"/>
<path fill-rule="evenodd" clip-rule="evenodd" d="M30.6044 15.3542H31.3588V17.7349H30.6044V15.3542ZM27.0089 15.3542H27.7633V17.7349H27.0089V15.3542ZM23.3547 15.3542H24.109V17.7349H23.3547V15.3542ZM19.7592 15.3542H20.5136V17.7349H19.7592V15.3542ZM14.4199 16.0498H16.972V17.0344H14.4199V16.0498ZM29.2132 17.2695C28.3266 17.2695 28.2433 15.8196 29.2132 15.8294C30.188 15.8392 30.0754 17.2695 29.2132 17.2695ZM24.8634 16.574C24.8634 16.3535 24.9418 16.1674 25.0789 16.0351C25.4757 15.6432 26.2546 15.8 26.2546 16.6327C26.2546 17.4606 24.8634 17.4557 24.8634 16.574ZM12.7348 16.574C12.7348 16.2849 12.9699 16.0498 13.259 16.0498H13.7243V17.0344H13.3765C13.0532 17.0344 12.7397 16.863 12.7397 16.5691L12.7348 16.574ZM22.6542 16.5152C22.6542 17.4851 21.2532 17.4655 21.2238 16.5691C21.1847 15.5943 22.6542 15.6334 22.6542 16.5152ZM19.0587 14.9477V16.1674H17.6676C17.6676 15.9323 17.7557 15.3542 17.3786 15.3542H13.1414C12.4997 15.3542 12.0196 15.9421 12 16.5201C11.9805 17.1226 12.4997 17.73 13.1414 17.73H17.3786C17.7704 17.73 17.6676 17.0981 17.6676 16.8581H19.0587C19.0587 18.7391 18.7354 18.4256 20.9152 18.4256C21.2287 18.4256 21.2043 18.0925 21.2043 17.7888C21.6647 18.0337 22.1937 18.0337 22.6542 17.7888C22.6542 18.6019 22.6493 18.4256 24.5107 18.4256C24.8193 18.4256 24.7997 18.0925 24.7997 17.7888C25.2112 17.8867 25.5688 18.1464 26.3084 17.7888C26.3084 18.0974 26.3133 18.1317 26.3672 18.3668C26.8865 18.4893 27.6114 18.4256 28.165 18.4256C28.4736 18.4256 28.454 18.0925 28.454 17.7888C28.934 18.019 29.4337 18.0386 29.9039 17.7888C29.9039 18.597 29.899 18.4256 31.7017 18.4256C31.8584 18.4256 31.8633 18.3962 31.9907 18.3668C32.0984 17.8965 32.0494 17.3479 32.0494 16.8581H33.3279C33.8374 16.8581 33.8374 16.1625 33.3279 16.1625H32.0494C32.0494 15.6237 32.0984 15.1583 31.9907 14.7125C31.4714 14.5901 30.7465 14.6538 30.1929 14.6538C29.8843 14.6538 29.9039 14.9869 29.9039 15.2906C29.4337 15.0407 28.934 15.0603 28.454 15.2906C28.454 14.4823 28.4589 14.6538 26.6562 14.6538C26.4995 14.6538 26.4946 14.6831 26.3672 14.7125C26.3133 14.9526 26.3084 14.9869 26.3084 15.2906C25.6178 14.9232 25.1769 15.2024 24.7997 15.2906C24.7997 14.4774 24.8046 14.6538 22.9432 14.6538C22.6297 14.6538 22.6542 14.9869 22.6542 15.2906C22.1937 15.0456 21.6647 15.0456 21.2043 15.2906C21.2043 14.4774 21.2092 14.6538 19.3477 14.6538C19.2106 14.6538 19.0587 14.8105 19.0587 14.9428V14.9477Z" fill="#16377C"/>
<path fill-rule="evenodd" clip-rule="evenodd" d="M19.5242 23.7648C19.5242 23.9117 19.6515 24.1126 19.8132 24.1126H24.8047C25.1917 24.1126 25.1917 23.417 24.8047 23.417H19.8132C19.6466 23.417 19.5242 23.6178 19.5242 23.7648Z" fill="#16377C"/>
<path fill-rule="evenodd" clip-rule="evenodd" d="M29.3846 11.8713C29.3846 12.1652 29.4091 12.224 29.1103 12.5228C27.9983 13.6348 29.2229 14.4332 29.3846 13.4927C29.4972 12.8559 30.5602 12.4787 30.0067 11.3619C29.7226 10.7937 29.4776 10.9406 29.3846 10.4165C29.2523 9.66212 28.3265 9.97562 28.787 10.9553C28.9584 11.3227 29.3846 11.5137 29.3846 11.8664V11.8713Z" fill="#16377C"/>
<path fill-rule="evenodd" clip-rule="evenodd" d="M26.8914 11.8711C26.8914 12.5422 26.5534 12.4051 26.2938 12.9537C25.8431 13.9089 26.7591 14.2567 26.8914 13.4974C26.9551 13.1398 26.96 13.2476 27.1608 13.0125C27.7829 12.2924 27.8515 11.5919 27.1363 10.8718C26.9012 10.6318 26.9551 10.7445 26.8865 10.3673C26.764 9.71581 25.8235 9.96563 26.2938 10.96C26.4652 11.3274 26.8914 11.5184 26.8914 11.8711Z" fill="#16377C"/>
<path fill-rule="evenodd" clip-rule="evenodd" d="M21.2629 10.3037C21.2629 10.7053 21.2727 10.8964 21.6009 11.298C21.7626 11.4989 22.0124 11.6507 21.9977 11.9789C21.9683 12.6157 21.2629 12.4149 21.2629 13.6101C21.2629 13.8501 21.8214 14.1587 21.9585 13.5513C22.0369 13.2084 21.9781 13.2672 22.2083 13.0468C22.9137 12.3561 22.8794 11.5773 22.2083 10.8719C21.7969 10.4408 22.1006 10.0146 21.5568 10.0146C21.4197 10.0146 21.2678 10.1714 21.2678 10.3037H21.2629Z" fill="#16377C"/>
<path fill-rule="evenodd" clip-rule="evenodd" d="M23.7563 10.3037C23.7563 11.4891 24.4519 11.2638 24.4764 11.9348C24.5009 12.6157 23.7563 12.3904 23.7563 13.6101C23.7563 13.8501 24.3148 14.1587 24.4519 13.5513C24.5303 13.1889 24.4715 13.2819 24.7018 13.0468C25.3777 12.3561 25.3973 11.5528 24.7018 10.8719C24.2609 10.4408 24.6185 10.0146 24.0503 10.0146C23.9131 10.0146 23.7612 10.1714 23.7612 10.3037H23.7563Z" fill="#16377C"/>
<path fill-rule="evenodd" clip-rule="evenodd" d="M18.0742 23.7647C18.0742 24.2301 19.0588 24.3183 19.0588 23.7059C19.0588 23.3141 18.0742 23.2504 18.0742 23.7647Z" fill="#16377C"/>
</g>
<defs>
<clipPath id="clip0_143_170">
<rect width="23.5077" height="28" fill="white" transform="translate(12 10)"/>
</clipPath>
</defs>
</svg>
