<svg width="48" height="48" viewBox="0 0 48 48" fill="none" xmlns="http://www.w3.org/2000/svg">
<circle cx="24.3316" cy="24.2691" r="23.567" fill="#E3ECFF"/>
<g clip-path="url(#clip0_143_171)">
<path fill-rule="evenodd" clip-rule="evenodd" d="M20.7889 23.4447C20.7889 25.3528 21.8489 25.3605 23.2751 25.3605C23.2751 27.6154 23.2096 27.5075 27.6656 27.4728C30.2713 27.4497 30.1634 27.9662 31.1155 29.5697L34.1221 34.8005C34.6579 35.6909 34.7851 35.8258 34.5384 36.882C33.0158 37.2404 32.9387 36.4772 31.3776 34.3071C30.8957 33.6402 30.5912 33.1314 30.121 32.4954C28.0742 29.7124 28.8721 29.9436 26.5207 29.9668C25.4993 29.9745 24.4778 29.9668 23.4602 29.9668C22.4271 29.9668 19.2548 30.2212 19.2548 27.8544V18.2526C19.2548 16.2597 22.6468 15.6391 23.1981 18.3258C23.4062 19.328 23.2713 21.1782 23.2713 22.2922L30.1479 22.4811C30.4024 22.8627 30.4987 23.013 30.7184 23.4409C30.5026 23.8533 30.3908 24.393 29.7663 24.393H22.3115C21.1435 24.393 21.5521 20.5075 21.5521 18.8307H20.7851V23.4409L20.7889 23.4447ZM18.3027 18.638V27.4767C18.3027 32.0637 24.339 30.9343 28.0472 30.9343L31.9481 36.616C32.6072 37.4756 33.6595 38.6011 34.8814 37.6182C36.0378 36.6815 35.5059 35.4789 34.9277 34.3842C34.3919 33.3665 33.7713 32.372 33.1623 31.3544C30.3677 26.6672 31.2504 26.4436 25.9348 26.5207C24.1502 26.5439 24.0268 26.7597 24.0268 25.3605C28.371 25.3605 31.4816 26.1006 31.4816 23.2481C31.4816 22.3038 30.7107 21.5251 29.7625 21.5251H24.0268C24.0268 19.4282 24.5703 15.589 21.1937 15.6854C19.5207 15.7316 18.2988 16.9343 18.2988 18.6419L18.3027 18.638Z" fill="#16377C"/>
<path fill-rule="evenodd" clip-rule="evenodd" d="M12.7673 29.782C12.7673 26.6906 14.5327 24.8866 16.3945 23.6377C16.3945 26.1317 15.9705 29.6124 18.079 31.3547C20.307 33.1895 22.7855 32.6576 26.3317 32.6576C25.8499 34.7545 23.0129 36.8861 20.4072 36.8861H19.4551C15.7624 36.8861 12.7673 33.5326 12.7673 29.782ZM12.0002 29.2V30.5491C12.0002 35.2864 18.237 40.1895 24.1539 36.6124C25.3951 35.8646 26.2084 34.9048 26.9485 33.6636C29.1765 29.89 22.7971 33.3553 19.2585 31.1196C18.1908 30.445 17.3774 29.2347 17.3466 27.4808C17.2849 25.0871 17.8361 22.3542 16.6875 22.5392C15.0415 22.809 12.0928 25.9004 12.0002 29.0496V29.2Z" fill="#16377C"/>
<path fill-rule="evenodd" clip-rule="evenodd" d="M19.4552 12.8756C19.4552 9.99229 22.8935 10.1735 22.8935 12.6867C22.8935 14.9763 19.4552 14.4829 19.4552 12.8756ZM20.7966 10H21.6099C22.7856 10.158 23.8456 11.0176 23.8456 12.6867C23.8456 15.859 18.4954 16.1828 18.4954 12.4978C18.4954 11.0369 19.5901 10.1696 20.8004 10.0039L20.7966 10Z" fill="#16377C"/>
</g>
<defs>
<clipPath id="clip0_143_171">
<rect width="23.5716" height="28" fill="white" transform="translate(12 10)"/>
</clipPath>
</defs>
</svg>
