<svg width="48" height="48" viewBox="0 0 48 48" fill="none" xmlns="http://www.w3.org/2000/svg">
<circle cx="24.3316" cy="24.2691" r="23.567" fill="#E3ECFF"/>
<g clip-path="url(#clip0_143_173)">
<path fill-rule="evenodd" clip-rule="evenodd" d="M36.6892 13.1881H37.1261V38.126H36.6892V13.1881ZM37.5631 38.9998H36.2559C35.9828 38.9561 35.8153 38.8396 35.8153 38.5629V13.1881H33.627V19.804C34.53 20.0152 34.9378 20.7361 34.9378 21.6646C34.9378 22.3892 34.1732 23.2521 33.2957 23.2521C30.9581 23.2521 30.8707 20.2446 32.7495 19.8076V13.1918H29.6874V19.8076C30.5904 20.0188 30.9982 20.7397 30.9982 21.6682C30.9982 22.3928 30.2372 23.2557 29.356 23.2557C27.0185 23.2557 26.9311 20.2482 28.8099 19.8113V13.1954H26.6216V37.2594C26.6216 37.5252 26.4286 37.6453 26.2793 37.791C26.0099 38.0568 25.2052 39.0071 24.8702 39.0071C24.67 39.0071 24.4333 38.8578 24.4333 38.6794V13.1954H22.6819V14.0693C23.0424 14.0693 23.5558 13.9855 23.5558 14.5062C23.5558 16.3559 23.6796 16.2576 22.6819 16.2576V38.5702C22.6819 38.836 22.5108 39.0071 22.245 39.0071H20.9378C20.3553 38.9525 20.4973 38.643 20.4973 37.2557H13.0585C13.0585 38.1879 13.2333 39.0071 12.6216 39.0071H11.3144C11.0414 38.9634 10.8739 38.8469 10.8739 38.5702V16.2576C10.6445 16.2576 10 16.3413 10 15.9299V14.5499C10.0364 14.062 10.2112 14.0729 10.8739 14.0729V11.4477C10.8739 11.1819 11.045 11.0107 11.3108 11.0107H37.5594C37.8252 11.0107 37.9964 11.1819 37.9964 11.4477V38.5738C37.9964 38.8396 37.8252 39.0107 37.5594 39.0107L37.5631 38.9998ZM21.3748 16.2503H21.8117V38.126H21.3748V16.2503ZM11.7514 16.2503H12.1883V38.126H11.7514V16.2503ZM25.3144 37.4706C25.3144 37.1902 25.2671 35.3951 25.3581 35.2167C25.4164 35.1111 25.6531 34.9109 25.7514 34.8453C25.7514 35.3551 25.7514 35.8648 25.7514 36.3782C25.7514 36.604 25.7914 36.9353 25.7077 37.0992C25.6494 37.2048 25.4127 37.4087 25.3144 37.4706ZM13.0658 35.9377H20.5046V36.3746H13.0658V35.9377ZM13.0658 32.0016H20.5046V35.0638H13.0658V32.0016ZM25.3144 33.9715C25.3144 33.611 25.3035 33.2323 25.3108 32.8719C25.3181 32.5951 25.3108 32.6279 25.4601 32.475C25.5657 32.3694 25.6385 32.2966 25.7514 32.2201C25.7514 33.3816 25.9334 33.5564 25.3144 33.9715ZM13.0658 30.6908H20.5046V31.1278H13.0658V30.6908ZM25.3144 31.3462C25.3144 30.9858 25.3035 30.6071 25.3108 30.2466C25.3181 29.959 25.4091 29.8243 25.7514 29.5949C25.7514 30.7564 25.9334 30.9312 25.3144 31.3462ZM13.0658 26.7512H20.5046V29.8133H13.0658V26.7512ZM25.3144 28.721C25.3144 27.5595 25.1324 27.3847 25.7514 26.9697C25.7514 28.1312 25.9334 28.3059 25.3144 28.721ZM13.0658 25.4404H20.5046V25.8773H13.0658V25.4404ZM25.3144 26.0958C25.3144 25.4003 25.1979 24.8651 25.4601 24.6029C25.5657 24.4973 25.6385 24.4245 25.7514 24.3481C25.7514 24.7085 25.7623 25.0872 25.755 25.4477C25.7477 25.7353 25.6567 25.87 25.3144 26.0994V26.0958ZM13.0658 21.5007H20.5046V24.5629H13.0658V21.5007ZM25.3144 23.4706C25.3144 22.3091 25.1324 22.1343 25.7514 21.7192C25.7514 22.8807 25.9334 23.0555 25.3144 23.4706ZM33.1901 22.3782C32.7277 22.3782 32.3163 21.894 32.3163 21.559C32.3163 20.798 33.1974 20.3538 33.769 20.8708C34.3698 21.4133 33.9111 22.3782 33.1901 22.3782ZM29.2541 22.3782C28.7917 22.3782 28.3802 21.894 28.3802 21.559C28.3802 20.139 30.5321 20.5613 30.0551 21.8102C29.9423 22.1015 29.6255 22.3819 29.2577 22.3819L29.2541 22.3782ZM13.0658 20.1899H20.5046V20.6269H13.0658V20.1899ZM25.3144 20.8453C25.3144 19.6838 25.1324 19.5091 25.7514 19.094C25.7514 20.2555 25.9334 20.4302 25.3144 20.8453ZM13.0658 16.2503H20.5046V19.3124H13.0658V16.2503ZM25.3144 18.2201C25.3144 17.0586 25.1324 16.8838 25.7514 16.4687C25.7514 17.6302 25.9334 17.805 25.3144 18.2201ZM10.8775 14.9395H22.6892V15.3764H10.8775V14.9395ZM25.3144 15.5949V13.1881H25.7514V15.1033C25.7514 15.2599 25.4237 15.5221 25.3144 15.5949ZM21.3784 13.1881H21.8153V14.062H21.3784V13.1881ZM13.0658 13.1881H20.5046V14.062H13.0658V13.1881ZM11.755 13.1881H12.1919V14.062H11.755V13.1881ZM11.755 11.8773H37.1298V12.3143H11.755V11.8773Z" fill="#16377C"/>
</g>
<defs>
<clipPath id="clip0_143_173">
<rect width="28" height="28" fill="white" transform="translate(10 11)"/>
</clipPath>
</defs>
</svg>
