<svg width="48" height="48" viewBox="0 0 48 48" fill="none" xmlns="http://www.w3.org/2000/svg">
<g clip-path="url(#clip0_3724_312)">
<path d="M24.3326 47.8362C37.3483 47.8362 47.8996 37.2848 47.8996 24.2691C47.8996 11.2535 37.3483 0.702148 24.3326 0.702148C11.3169 0.702148 0.765625 11.2535 0.765625 24.2691C0.765625 37.2848 11.3169 47.8362 24.3326 47.8362Z" fill="#E3ECFF"/>
<g clip-path="url(#clip1_3724_312)">
<path d="M13.6203 16.4692C13.8508 16.4692 14.0375 16.2824 14.0375 16.052C14.0375 15.8216 13.8508 15.6348 13.6203 15.6348C13.3899 15.6348 13.2031 15.8216 13.2031 16.052C13.2031 16.2824 13.3899 16.4692 13.6203 16.4692Z" fill="#16377C"/>
<path d="M34.3821 16.4692C34.6125 16.4692 34.7993 16.2824 34.7993 16.052C34.7993 15.8216 34.6125 15.6348 34.3821 15.6348C34.1516 15.6348 33.9648 15.8216 33.9648 16.052C33.9648 16.2824 34.1516 16.4692 34.3821 16.4692Z" fill="#16377C"/>
<path d="M36.8278 23.8357H35.6136V22.2693C36.1551 22.166 36.5658 21.6897 36.5658 21.1186V19.7069C36.5658 19.1358 36.155 18.6595 35.6136 18.5562V17.9084C36.1551 17.8051 36.5658 17.3288 36.5658 16.7577V15.346C36.5658 14.6997 36.04 14.1738 35.3937 14.1738H12.6061C11.9598 14.1738 11.434 14.6996 11.434 15.346V16.7576C11.434 17.3287 11.8448 17.8051 12.3862 17.9084V18.5562C11.8447 18.6594 11.434 19.1358 11.434 19.7069V21.1186C11.434 21.6897 11.8448 22.166 12.3862 22.2692V23.8357H11.1721C10.5258 23.8357 10 24.3615 10 25.0078V26.4194C10 27.0657 10.5258 27.5915 11.1721 27.5915H12.3863V31.4247C11.9085 31.4611 11.5308 31.8606 11.5308 32.3475V32.9003C11.5308 33.4111 11.9464 33.8267 12.4572 33.8267H14.7824C15.2933 33.8267 15.7089 33.4111 15.7089 32.9003V32.3475C15.7089 31.8606 15.3311 31.4611 14.8534 31.4247V29.865H33.1467V31.4247C32.669 31.4611 32.2912 31.8606 32.2912 32.3475V32.9003C32.2912 33.4111 32.7068 33.8267 33.2176 33.8267H35.5428C36.0537 33.8267 36.4692 33.4111 36.4692 32.9003V32.3475C36.4692 31.8606 36.0915 31.4611 35.6137 31.4247V27.5916H36.8279C37.4742 27.5916 38.0001 27.0658 38.0001 26.4195V25.0078C37.9999 24.3615 37.4741 23.8357 36.8278 23.8357ZM12.3041 16.7576V15.346C12.3041 15.1795 12.4396 15.044 12.6061 15.044H35.3938C35.5603 15.044 35.6958 15.1795 35.6958 15.346V16.7576C35.6958 16.9213 35.5575 17.0597 35.3938 17.0597H12.6061C12.4396 17.0597 12.3041 16.9242 12.3041 16.7576ZM34.7435 17.9298V18.5348H34.0166V17.9298H34.7435ZM33.1466 17.9298V18.5348H14.8533V17.9298H33.1466ZM13.9831 17.9298V18.5348H13.2564V17.9298H13.9831ZM12.3041 21.1186V19.7069C12.3041 19.5403 12.4396 19.4049 12.6061 19.4049H35.3938C35.5575 19.4049 35.6958 19.5432 35.6958 19.7069V21.1186C35.6958 21.2822 35.5575 21.4205 35.3938 21.4205H12.6061C12.4424 21.4205 12.3041 21.2823 12.3041 21.1186ZM34.7435 22.2907V23.8357H34.0166V22.2907H34.7435ZM33.1466 22.2907V23.8357H14.8533V22.2907H33.1466ZM13.9831 22.2907V23.8357H13.2564V22.2907H13.9831ZM14.8387 32.9005C14.8387 32.9304 14.8124 32.9568 14.7823 32.9568H12.457C12.4271 32.9568 12.4007 32.9304 12.4007 32.9005V32.3476C12.4007 32.3176 12.4271 32.2913 12.457 32.2913H14.7823C14.8123 32.2913 14.8387 32.3176 14.8387 32.3476V32.9005H14.8387ZM13.2564 31.4213V31.4212V27.5916H13.9832V31.4213H13.2564ZM33.1466 28.9951H14.8533V27.5916H33.1466V28.9951ZM35.5991 32.9005C35.5991 32.9304 35.5727 32.9568 35.5427 32.9568H33.2175C33.1875 32.9568 33.1612 32.9304 33.1612 32.9005V32.3476C33.1612 32.3176 33.1875 32.2913 33.2175 32.2913H35.5427C35.5727 32.2913 35.5991 32.3176 35.5991 32.3476V32.9005ZM34.0167 31.4213V31.4212V27.5916H34.7435V31.4213H34.0167ZM36.8278 26.7215H11.1721C11.0056 26.7215 10.8701 26.586 10.8701 26.4195V25.0079C10.8701 24.8413 11.0056 24.7059 11.1721 24.7059H36.8278C36.9944 24.7059 37.1298 24.8413 37.1298 25.0079V26.4195C37.1298 26.586 36.9944 26.7215 36.8278 26.7215Z" fill="#16377C"/>
<path d="M13.6203 20.8295C13.8508 20.8295 14.0375 20.6427 14.0375 20.4123C14.0375 20.1819 13.8508 19.9951 13.6203 19.9951C13.3899 19.9951 13.2031 20.1819 13.2031 20.4123C13.2031 20.6427 13.3899 20.8295 13.6203 20.8295Z" fill="#16377C"/>
<path d="M34.3821 20.8295C34.6125 20.8295 34.7993 20.6427 34.7993 20.4123C34.7993 20.1819 34.6125 19.9951 34.3821 19.9951C34.1516 19.9951 33.9648 20.1819 33.9648 20.4123C33.9648 20.6427 34.1516 20.8295 34.3821 20.8295Z" fill="#16377C"/>
</g>
</g>
<defs>
<clipPath id="clip0_3724_312">
<rect width="48" height="48" fill="white"/>
</clipPath>
<clipPath id="clip1_3724_312">
<rect width="28" height="28" fill="white" transform="translate(10 10)"/>
</clipPath>
</defs>
</svg>
