<svg width="50" height="50" viewBox="0 0 50 50" fill="none" xmlns="http://www.w3.org/2000/svg">
<g clip-path="url(#clip0_143_135)">
<path d="M1.65393 17.4747L23.8853 4.7876L46.0755 17.3933" stroke="#16377C" stroke-width="1.59488" stroke-miterlimit="22.9256" stroke-linecap="round" stroke-linejoin="round"/>
<path d="M6.83167 14.5241V23.1314H11.7526V17.322L23.9675 10.373L36.3673 17.2711V23.0601H41.0108V14.5953" stroke="#16377C" stroke-width="1.59488" stroke-miterlimit="22.9256" stroke-linecap="round" stroke-linejoin="round"/>
<path d="M1.80811 44.2222H46.0037" stroke="#16377C" stroke-width="1.59488" stroke-miterlimit="22.9256" stroke-linecap="round" stroke-linejoin="round"/>
<path d="M6.78027 44.2225V33.5092H11.6806V38.5759H36.1926V33.438H41.0313V44.2225" stroke="#16377C" stroke-width="1.59488" stroke-miterlimit="22.9256" stroke-linecap="round" stroke-linejoin="round"/>
<path d="M0.791016 29.7649C0.791016 29.7649 3.2566 29.3579 4.21201 28.4728C5.16743 27.5876 6.43104 26.8042 8.25968 26.8042C10.0883 26.8042 11.0746 28.0149 12.5847 28.8085C14.0949 29.6122 15.338 29.7445 16.3653 29.7445C17.3926 29.7445 18.5638 29.7445 18.5638 29.7445L15.7489 26.8449" stroke="#16377C" stroke-width="1.59488" stroke-miterlimit="22.9256" stroke-linecap="round" stroke-linejoin="round"/>
<path d="M18.5638 29.7446L15.7386 32.6646" stroke="#16377C" stroke-width="1.59488" stroke-miterlimit="22.9256" stroke-linecap="round" stroke-linejoin="round"/>
<path d="M31.4259 29.7649C31.4259 29.7649 33.8915 29.3579 34.8469 28.4728C35.8023 27.5876 37.0659 26.8042 38.8946 26.8042C40.7232 26.8042 41.7094 28.0149 43.2196 28.8085C44.7298 29.6122 45.9729 29.7445 47.0002 29.7445C48.0275 29.7445 49.1987 29.7445 49.1987 29.7445L46.3838 26.8449" stroke="#16377C" stroke-width="1.59488" stroke-miterlimit="22.9256" stroke-linecap="round" stroke-linejoin="round"/>
<path d="M49.209 29.7446L46.3735 32.6646" stroke="#16377C" stroke-width="1.59488" stroke-miterlimit="22.9256" stroke-linecap="round" stroke-linejoin="round"/>
</g>
<defs>
<clipPath id="clip0_143_135">
<rect width="50" height="41" fill="white" transform="translate(0 4)"/>
</clipPath>
</defs>
</svg>
