<svg width="50" height="50" viewBox="0 0 50 50" fill="none" xmlns="http://www.w3.org/2000/svg">
<path fill-rule="evenodd" clip-rule="evenodd" d="M4.31207 46.231C4.31207 45.23 4.1718 44.7366 4.57158 44.7366H45.3213C45.7281 44.7366 45.5808 45.23 45.5808 46.231C45.5808 46.4706 45.5387 46.4706 45.4966 46.668H4.39623C4.34714 46.4706 4.31207 46.4636 4.31207 46.231ZM31.4201 12.3048L40.2504 8.17411V41.3954C40.2504 44.2009 40.8746 43.8485 35.5862 41.9523C34.8638 41.6915 34.2747 41.4448 33.5523 41.184C33.1805 41.0501 32.9 40.9514 32.5353 40.8033C32.2477 40.6906 31.7076 40.4509 31.4271 40.4227V12.2977L31.4201 12.3048ZM10.1685 43.4185C9.4391 43.4185 9.64249 43.355 9.64249 41.4871V8.18116L18.4728 12.3118V40.4368C18.1571 40.465 14.1243 42.0228 13.3527 42.3188C12.7566 42.5515 10.5262 43.4255 10.1685 43.4255V43.4185ZM12.0061 7.73708H37.8867C37.7745 7.83577 37.8587 7.77938 37.6833 7.88511L31.7638 10.7258C31.1606 10.9937 30.1015 11.3038 30.1015 12.1356V40.7892C30.1015 41.2756 30.8029 41.5928 31.1816 41.7267L34.1063 42.8264C34.3238 42.911 34.5412 42.9955 34.8077 43.0872L35.5231 43.4255H14.3627C14.5942 43.2282 15.4989 42.925 15.7725 42.8264L18.7673 41.7056C19.2723 41.5294 19.7843 41.2474 19.7843 40.6201V12.1426C19.7843 11.2474 18.3605 10.8597 17.1893 10.2676L13.0231 8.30099C12.8127 8.20936 12.7005 8.14592 12.4901 8.04019L11.9991 7.74413L12.0061 7.73708ZM8.33093 7.20842V43.4185H6.23383V28.1295C6.23383 27.1426 4.92226 27.3048 4.92226 27.9532V43.4185C2.91634 43.4185 3.0005 44.3066 3.0005 46.1393C3.0005 47.105 3.43535 47.9861 4.31207 47.9861H45.5878C46.4645 47.9861 46.8994 47.105 46.8994 46.1393C46.8994 44.3207 46.9905 43.4185 44.9776 43.4185V27.9532C44.9776 27.3048 43.666 27.1426 43.666 28.1295V43.4185H41.5689V7.20842C41.5689 6.77139 41.2112 6.41895 40.7834 6.41895H9.13049C8.65356 6.41895 8.34496 6.7291 8.34496 7.20842H8.33093Z" fill="#16377C"/>
<path fill-rule="evenodd" clip-rule="evenodd" d="M4.92224 4.5719V24.9643C4.92224 25.8313 6.10055 25.9652 6.22679 24.9572L6.23381 5.36137C6.22679 4.8891 6.12159 4.31109 6.58449 4.31109H43.3083C43.7572 4.31109 43.666 4.83271 43.659 5.27679C43.5889 11.1908 43.659 17.429 43.659 23.3853C43.659 24.8867 43.4346 25.6692 44.4445 25.6692C44.6549 25.6692 44.9706 25.352 44.9706 25.1405V4.57895C44.9706 3.72603 44.2481 3 43.3995 3H6.50033C5.65167 3 4.92925 3.72603 4.92925 4.57895L4.92224 4.5719Z" fill="#16377C"/>
<path fill-rule="evenodd" clip-rule="evenodd" d="M34.2185 38.0613V27.9532C34.8287 27.9532 35.0742 27.8686 35.7055 27.8686H37.6272V39.5557C37.3326 39.5345 35.5231 38.7662 34.955 38.5547C34.6674 38.449 34.2185 38.3644 34.2185 38.0613ZM32.907 27.6008V38.4138C32.907 39.2878 33.433 39.3654 34.0713 39.6191L37.508 40.9936C38.0831 41.1981 38.9388 41.332 38.9388 40.4297V27.1567C38.9388 26.8395 38.5109 26.5435 38.1532 26.5435H34.1344C33.3559 26.5435 32.907 26.8113 32.907 27.6008Z" fill="#16377C"/>
<path fill-rule="evenodd" clip-rule="evenodd" d="M12.2726 39.5557V27.8686H14.019C14.7064 27.8686 15.015 27.9532 15.6813 27.9532V38.0613C15.6813 38.3785 14.6783 38.6393 14.0541 38.8931C13.6613 39.0552 12.6163 39.5275 12.2656 39.5557H12.2726ZM10.9611 27.1638V40.4368C10.9611 41.0923 11.5222 41.339 12.3217 41.0148L15.7725 39.6473C16.4037 39.3936 16.9999 39.316 16.9999 38.4138V27.6008C16.9999 26.8184 16.558 26.5435 15.7725 26.5435H11.7466C11.3889 26.5435 10.9611 26.8395 10.9611 27.1567V27.1638Z" fill="#16377C"/>
<path fill-rule="evenodd" clip-rule="evenodd" d="M34.2185 14.6803C34.2185 14.3983 34.7165 14.2503 34.976 14.1234C35.5512 13.8344 37.2555 12.9251 37.6272 12.8335V24.3443H34.2185V14.6803ZM32.907 14.2432V24.6121C32.907 25.2183 33.1875 25.6695 33.7837 25.6695H38.3286C38.4338 25.6695 38.6652 25.5285 38.7354 25.465C38.8827 25.3311 38.9388 25.2183 38.9388 24.9646V11.7832C38.9388 11.5788 38.6512 11.1699 38.2374 11.1699C37.6412 11.1699 34.8147 12.7207 33.924 13.1648C33.4611 13.3974 32.907 13.6018 32.907 14.2503V14.2432Z" fill="#16377C"/>
<path fill-rule="evenodd" clip-rule="evenodd" d="M12.2726 12.8332C12.6444 12.9178 14.3487 13.8341 14.9238 14.1231C15.1833 14.25 15.6813 14.398 15.6813 14.68V24.344H12.2726V12.8332ZM10.9611 11.7758V24.9572C10.9611 25.4577 11.424 25.6621 11.5713 25.6621H16.1161C16.7123 25.6621 16.9929 25.218 16.9929 24.6048V14.4121C16.9929 13.5733 16.6281 13.524 16.06 13.242C15.1342 12.7768 12.2516 11.1626 11.5713 11.1626C11.3258 11.1626 10.9611 11.5362 10.9611 11.7758Z" fill="#16377C"/>
</svg>
