<svg width="50" height="50" viewBox="0 0 50 50" fill="none" xmlns="http://www.w3.org/2000/svg">
<g clip-path="url(#clip0_143_135)">
<path fill-rule="evenodd" clip-rule="evenodd" d="M37.8454 40.8223H42.6262V45.5867H37.8454V40.8223ZM25.2744 40.8223H36.3388V45.5867H25.2744V40.8223ZM12.7916 40.8223H23.856V45.5867H12.7916V40.8223ZM6.5042 40.8223H11.2849V45.5867H6.5042V40.8223ZM18.987 34.648H30.1433V39.4124H18.987V34.648ZM6.5042 34.648H17.5686V39.4124H6.5042V34.648ZM37.8418 28.4736H42.6225V33.238H37.8418V28.4736ZM25.2707 28.4736H36.3351V33.238H25.2707V28.4736ZM12.7879 28.4736H23.8523V33.238H12.7879V28.4736ZM6.50052 28.4736H11.2813V33.238H6.50052V28.4736ZM31.5544 22.2993H42.6188V27.0637H31.5544V22.2993ZM18.9834 22.2993H29.8714C30.0735 22.2993 30.136 22.3616 30.136 22.563V27.0637H18.9797V22.2993H18.9834ZM6.50052 22.2993H17.5649V27.0637H6.50052V22.2993ZM37.8381 16.125H42.6188V20.8894H37.8381V16.125ZM25.2671 16.125H36.3315V20.8894H25.2671V16.125ZM6.50052 16.125H11.2813V20.8894H6.50052V16.125ZM4.99391 15.5061V46.2092C4.99391 46.5718 5.29156 47.0039 5.61493 47.0039H43.4162C43.8719 47.0039 44.1254 46.6377 44.1254 46.2092V38.7092C44.1254 37.5044 42.6188 37.5044 42.6188 38.7092V39.416H31.5544V34.6516H42.6188V35.3584C42.6188 36.6145 44.1254 36.6145 44.1254 35.3584V15.5061C44.1254 15.1436 43.8278 14.7114 43.5044 14.7114H24.5578C24.1279 14.7114 23.8486 14.9897 23.8486 15.4182V20.8894H12.7842V15.6855C12.7842 15.1362 12.5307 14.7151 11.9868 14.7151H5.61125C5.28788 14.7151 4.99023 15.1436 4.99023 15.5098L4.99391 15.5061Z" fill="#16377C"/>
<path fill-rule="evenodd" clip-rule="evenodd" d="M14.5627 3.76888C14.8934 3.79451 14.9632 3.86776 15.2021 4.01424L17.0137 5.03231C17.4326 5.25936 17.7964 5.50472 18.1933 5.7098C19.5933 6.43123 21.596 7.70565 22.9446 8.3868C23.3047 8.5699 23.8927 8.9764 24.2124 9.06429C24.1793 9.47445 23.3856 10.7452 23.132 11.1663C22.7241 11.8438 22.364 12.5213 21.9965 13.2135C21.7026 13.1439 21.6254 13.0743 21.3939 12.9315L12.3469 7.83016C12.4204 7.51155 13.7285 5.28865 14.0005 4.80159C14.1585 4.51595 14.4818 4.05452 14.559 3.77254L14.5627 3.76888ZM10.5793 8.09383C10.5793 8.66146 11.1379 8.83358 11.7883 9.18148L16.9255 12.0892C17.2084 12.2467 17.4032 12.3712 17.6604 12.503C22.5514 15.0189 22.059 15.9088 23.3782 13.7005C23.8375 12.9315 25.9836 9.23275 25.9836 8.88485C25.9836 8.26595 25.4324 8.12679 24.7489 7.73494C24.521 7.60311 24.2675 7.46395 24.0176 7.3138C23.7494 7.15267 23.5509 7.0721 23.2753 6.90731L18.8694 4.41707C18.3402 4.12777 17.9103 3.85677 17.3959 3.5931C17.1386 3.46126 16.9439 3.33675 16.6609 3.17928L15.1874 2.3553C13.7947 1.54598 13.9417 2.02571 12.266 4.92244C11.9757 5.42781 11.6781 5.91121 11.4061 6.44588C11.2187 6.81575 10.5793 7.73494 10.5793 8.09383Z" fill="#16377C"/>
</g>
<defs>
<clipPath id="clip0_143_135">
<rect width="39.1304" height="45" fill="white" transform="translate(5 2)"/>
</clipPath>
</defs>
</svg>
