<svg width="50" height="50" viewBox="0 0 50 50" fill="none" xmlns="http://www.w3.org/2000/svg">
<g clip-path="url(#clip0_4124_697)">
<path d="M40.3166 46.2954V2.86135C40.3166 2.41794 39.9781 2.05392 39.5454 2.013C39.4987 2.00512 39.4509 2 39.4019 2H10.5942C10.1234 2 9.74173 2.38171 9.74173 2.85251C9.74173 2.854 9.74194 2.85549 9.74194 2.85698C9.74194 2.85848 9.74173 2.85997 9.74173 2.86146V46.295H9.68845C9.21765 46.295 8.83594 46.6767 8.83594 47.1475C8.83594 47.6183 9.21765 48 9.68845 48H22.4773H27.5901H40.3077C40.7785 48 41.1602 47.6183 41.1602 47.1475C41.1602 46.6797 40.7833 46.3003 40.3166 46.2954ZM11.4467 3.70502H38.6116V46.295H28.4425V40.3319C28.4425 39.8611 28.0608 39.4794 27.59 39.4794H22.4771C22.0063 39.4794 21.6246 39.8611 21.6246 40.3319V46.295H11.4467V3.70502ZM23.3298 46.295V41.1844H26.7376V46.295H23.3298Z" fill="#16377C"/>
<path d="M19.063 39.4785H13.9502C13.4794 39.4785 13.0977 39.8602 13.0977 40.331V43.7099C13.0977 44.1807 13.4794 44.5625 13.9502 44.5625H19.063C19.5338 44.5625 19.9155 44.1807 19.9155 43.7099V40.331C19.9155 39.8602 19.5338 39.4785 19.063 39.4785ZM18.2105 42.8575H14.8027V41.1836H18.2105V42.8575Z" fill="#16377C"/>
<path d="M31.0009 44.5625H36.1138C36.5846 44.5625 36.9663 44.1807 36.9663 43.7099V40.331C36.9663 39.8602 36.5846 39.4785 36.1138 39.4785H31.0009C30.5301 39.4785 30.1484 39.8602 30.1484 40.331V43.7099C30.1484 44.1807 30.5301 44.5625 31.0009 44.5625ZM31.8535 41.1834H35.2613V42.8573H31.8535V41.1834Z" fill="#16377C"/>
<path d="M19.063 32.6855H13.9502C13.4794 32.6855 13.0977 33.0673 13.0977 33.5381V36.917C13.0977 37.3878 13.4794 37.7695 13.9502 37.7695H19.063C19.5338 37.7695 19.9155 37.3878 19.9155 36.917V33.5381C19.9155 33.0673 19.5338 32.6855 19.063 32.6855ZM18.2105 36.0646H14.8027V34.3907H18.2105V36.0646Z" fill="#16377C"/>
<path d="M22.4775 37.7695H27.5903C28.0611 37.7695 28.4428 37.3878 28.4428 36.917V33.5381C28.4428 33.0673 28.0611 32.6855 27.5903 32.6855H22.4775C22.0067 32.6855 21.625 33.0673 21.625 33.5381V36.917C21.625 37.3878 22.0067 37.7695 22.4775 37.7695ZM23.33 34.3905H26.7378V36.0644H23.33V34.3905Z" fill="#16377C"/>
<path d="M31.0009 37.7695H36.1138C36.5846 37.7695 36.9663 37.3878 36.9663 36.917V33.5381C36.9663 33.0673 36.5846 32.6855 36.1138 32.6855H31.0009C30.5301 32.6855 30.1484 33.0673 30.1484 33.5381V36.917C30.1484 37.3878 30.5301 37.7695 31.0009 37.7695ZM31.8535 34.3905H35.2613V36.0644H31.8535V34.3905Z" fill="#16377C"/>
<path d="M19.063 25.8652H13.9502C13.4794 25.8652 13.0977 26.2469 13.0977 26.7177V30.0967C13.0977 30.5675 13.4794 30.9492 13.9502 30.9492H19.063C19.5338 30.9492 19.9155 30.5675 19.9155 30.0967V26.7177C19.9155 26.2469 19.5338 25.8652 19.063 25.8652ZM18.2105 29.2443H14.8027V27.5704H18.2105V29.2443Z" fill="#16377C"/>
<path d="M22.4775 30.9492H27.5903C28.0611 30.9492 28.4428 30.5675 28.4428 30.0967V26.7177C28.4428 26.2469 28.0611 25.8652 27.5903 25.8652H22.4775C22.0067 25.8652 21.625 26.2469 21.625 26.7177V30.0967C21.625 30.5675 22.0067 30.9492 22.4775 30.9492ZM23.33 27.5701H26.7378V29.244H23.33V27.5701Z" fill="#16377C"/>
<path d="M31.0009 30.9492H36.1138C36.5846 30.9492 36.9663 30.5675 36.9663 30.0967V26.7177C36.9663 26.2469 36.5846 25.8652 36.1138 25.8652H31.0009C30.5301 25.8652 30.1484 26.2469 30.1484 26.7177V30.0967C30.1484 30.5675 30.5301 30.9492 31.0009 30.9492ZM31.8535 27.5701H35.2613V29.244H31.8535V27.5701Z" fill="#16377C"/>
<path d="M19.063 19.0723H13.9502C13.4794 19.0723 13.0977 19.454 13.0977 19.9248V23.3037C13.0977 23.7745 13.4794 24.1562 13.9502 24.1562H19.063C19.5338 24.1562 19.9155 23.7745 19.9155 23.3037V19.9248C19.9155 19.454 19.5338 19.0723 19.063 19.0723ZM18.2105 22.4513H14.8027V20.7774H18.2105V22.4513Z" fill="#16377C"/>
<path d="M22.4775 24.1562H27.5903C28.0611 24.1562 28.4428 23.7745 28.4428 23.3037V19.9248C28.4428 19.454 28.0611 19.0723 27.5903 19.0723H22.4775C22.0067 19.0723 21.625 19.454 21.625 19.9248V23.3037C21.625 23.7745 22.0067 24.1562 22.4775 24.1562ZM23.33 20.7772H26.7378V22.4511H23.33V20.7772Z" fill="#16377C"/>
<path d="M31.0009 24.1562H36.1138C36.5846 24.1562 36.9663 23.7745 36.9663 23.3037V19.9248C36.9663 19.454 36.5846 19.0723 36.1138 19.0723H31.0009C30.5301 19.0723 30.1484 19.454 30.1484 19.9248V23.3037C30.1484 23.7745 30.5301 24.1562 31.0009 24.1562ZM31.8535 20.7772H35.2613V22.4511H31.8535V20.7772Z" fill="#16377C"/>
<path d="M19.063 12.2344H13.9502C13.4794 12.2344 13.0977 12.6161 13.0977 13.0869V16.4658C13.0977 16.9366 13.4794 17.3183 13.9502 17.3183H19.063C19.5338 17.3183 19.9155 16.9366 19.9155 16.4658V13.0869C19.9155 12.6161 19.5338 12.2344 19.063 12.2344ZM18.2105 15.6133H14.8027V13.9394H18.2105V15.6133Z" fill="#16377C"/>
<path d="M22.4775 17.3183H27.5903C28.0611 17.3183 28.4428 16.9366 28.4428 16.4658V13.0869C28.4428 12.6161 28.0611 12.2344 27.5903 12.2344H22.4775C22.0067 12.2344 21.625 12.6161 21.625 13.0869V16.4658C21.625 16.9367 22.0067 17.3183 22.4775 17.3183ZM23.33 13.9394H26.7378V15.6133H23.33V13.9394Z" fill="#16377C"/>
<path d="M31.0009 17.3183H36.1138C36.5846 17.3183 36.9663 16.9366 36.9663 16.4658V13.0869C36.9663 12.6161 36.5846 12.2344 36.1138 12.2344H31.0009C30.5301 12.2344 30.1484 12.6161 30.1484 13.0869V16.4658C30.1484 16.9367 30.5301 17.3183 31.0009 17.3183ZM31.8535 13.9394H35.2613V15.6133H31.8535V13.9394Z" fill="#16377C"/>
<path d="M19.063 5.44141H13.9502C13.4794 5.44141 13.0977 5.82312 13.0977 6.29392V9.67283C13.0977 10.1436 13.4794 10.5253 13.9502 10.5253H19.063C19.5338 10.5253 19.9155 10.1436 19.9155 9.67283V6.29392C19.9155 5.82312 19.5338 5.44141 19.063 5.44141ZM18.2105 8.82033H14.8027V7.14642H18.2105V8.82033Z" fill="#16377C"/>
<path d="M22.4775 10.5253H27.5903C28.0611 10.5253 28.4428 10.1436 28.4428 9.67283V6.29392C28.4428 5.82312 28.0611 5.44141 27.5903 5.44141H22.4775C22.0067 5.44141 21.625 5.82312 21.625 6.29392V9.67283C21.625 10.1436 22.0067 10.5253 22.4775 10.5253ZM23.33 7.14642H26.7378V8.82033H23.33V7.14642Z" fill="#16377C"/>
<path d="M31.0009 10.5253H36.1138C36.5846 10.5253 36.9663 10.1436 36.9663 9.67283V6.29392C36.9663 5.82312 36.5846 5.44141 36.1138 5.44141H31.0009C30.5301 5.44141 30.1484 5.82312 30.1484 6.29392V9.67283C30.1484 10.1436 30.5301 10.5253 31.0009 10.5253ZM31.8535 7.14642H35.2613V8.82033H31.8535V7.14642Z" fill="#16377C"/>
</g>
<defs>
<clipPath id="clip0_4124_697">
<rect width="46" height="46" fill="white" transform="translate(2 2)"/>
</clipPath>
</defs>
</svg>
