<svg width="50" height="50" viewBox="0 0 50 50" fill="none" xmlns="http://www.w3.org/2000/svg">
<g clip-path="url(#clip0_143_175)">
<g clip-path="url(#clip1_143_175)">
<path fill-rule="evenodd" clip-rule="evenodd" d="M2.34752 23.6002V21.4547C4.41601 21.4547 5.45506 21.2719 7.06175 22.5611C8.59147 23.7926 8.37019 25.7841 8.37019 27.5832C6.65767 27.5832 5.0125 27.7083 3.74255 26.4865C3.06908 25.8419 2.3379 24.8701 2.3379 23.6002H2.34752ZM11.7471 27.5832H10.0154V25.6398C10.0154 23.3116 11.9684 21.4547 14.3063 21.4547H16.1439C16.1439 23.4078 16.2497 24.7643 14.9894 26.2267C14.287 27.0541 12.9016 27.5832 11.7471 27.5832ZM7.65825 15.3262C7.65825 14.2006 8.47602 13.2193 9.2938 12.6709C10.1212 13.912 10.7273 13.4598 10.7273 15.6341C10.7273 16.779 9.74598 17.3178 9.2938 17.9816C8.59147 17.5102 7.65825 16.4904 7.65825 15.3262ZM6.12853 14.9125C6.12853 16.4423 6.26322 17.26 7.48507 18.4626C8.6492 19.6075 8.37981 18.9629 8.37981 21.5509C7.33114 20.8486 6.38829 19.9154 4.59881 19.9154H0.721589C0.721589 22.6573 0.384858 25.332 2.28017 27.2465C4.32942 29.315 5.67634 29.113 8.38943 29.113V33.7117H0.00964355L0.856281 39.6093C0.933248 40.1192 1.13529 40.9851 1.13529 41.5816L2.47259 41.3796C2.77084 41.293 2.70349 41.3988 2.71311 41.1294L2.12624 37.2234C2.04927 36.7135 1.84723 35.8476 1.84723 35.2511H16.5576C16.5576 36.9155 14.8162 45.9976 14.8162 47.6139H3.68482L2.97288 42.8131C2.62652 42.8131 1.43353 42.8131 1.42391 43.121L1.45278 43.602C1.49126 43.8522 1.52012 44.0734 1.56823 44.4102L2.25131 49.1436H16.1439L16.7115 45.3145C16.9135 44.0446 18.347 34.0196 18.4914 33.7117H10.0154V29.113C11.7952 29.113 12.9112 29.2958 14.3736 28.5742C15.201 28.1605 15.0086 28.2567 15.6147 27.7757C16.1342 27.362 16.2016 27.2561 16.6057 26.727C18.0199 24.8605 17.6736 22.4168 17.6736 19.925C14.8258 19.925 12.7958 19.5209 10.7947 21.0218C10.4868 21.2527 10.2751 21.4836 10.0057 21.6664C10.0057 18.8667 9.77484 19.7518 11.0544 18.4242C12.7092 16.702 12.7862 14.1621 11.2565 12.4496C10.7081 11.8338 9.69787 11.0449 9.2938 10.4292C8.79351 10.7659 7.87953 11.805 7.37924 12.2957C6.81161 12.8537 6.12853 13.8446 6.12853 14.9222V14.9125Z" fill="#16377C"/>
<path fill-rule="evenodd" clip-rule="evenodd" d="M22.2723 33.7116H32.2877V32.1819H24.1195C23.8886 32.1819 23.8117 32.1145 23.8117 31.874V18.3855H39.1378V32.1723H33.7212V33.702H40.7733V16.8462H22.282V33.702L22.2723 33.7116Z" fill="#16377C"/>
<path fill-rule="evenodd" clip-rule="evenodd" d="M26.8712 21.4545H36.0687V29.1128H26.8712V21.4545ZM25.3414 30.6521H37.7043V19.9248H25.3414V30.6521Z" fill="#16377C"/>
<path fill-rule="evenodd" clip-rule="evenodd" d="M38.3104 6.1285H39.946V1.52972H47.6042V10.7273H39.946V7.65822H38.3104V12.257H49.1339V0H38.3104V6.1285Z" fill="#16377C"/>
<path fill-rule="evenodd" clip-rule="evenodd" d="M3.78101 38.3105H5.41656V36.7808H3.78101V38.3105Z" fill="#16377C"/>
<path fill-rule="evenodd" clip-rule="evenodd" d="M41.4757 4.59857H43.0054V3.06885H41.4757V4.59857Z" fill="#16377C"/>
<path fill-rule="evenodd" clip-rule="evenodd" d="M28.4009 24.5141H29.9306V22.9844H28.4009V24.5141Z" fill="#16377C"/>
</g>
</g>
<defs>
<clipPath id="clip0_143_175">
<rect width="50" height="50" fill="white"/>
</clipPath>
<clipPath id="clip1_143_175">
<rect width="49.1339" height="49.1339" fill="white"/>
</clipPath>
</defs>
</svg>
