<svg width="50" height="50" viewBox="0 0 50 50" fill="none" xmlns="http://www.w3.org/2000/svg">
<g clip-path="url(#clip0_143_175)">
<path fill-rule="evenodd" clip-rule="evenodd" d="M5.82468 40.7721C4.22623 40.7721 5.06964 38.8523 5.41503 37.4466C5.52748 37.0129 5.60781 36.5631 5.7042 36.1775C5.80862 35.7679 5.98533 35.2377 6.01746 34.8361C6.44318 34.9325 6.77251 35.1172 7.27855 35.1253C7.27855 37.3021 7.37494 36.78 6.82873 38.9567C6.67612 39.5592 6.67612 40.2018 6.32269 40.499C6.26646 40.5471 5.85681 40.7721 5.81665 40.7721H5.82468ZM41.6091 35.2297C42.1231 35.1895 42.6051 35.0369 42.9665 34.8441L44.1232 39.4387C44.4847 40.8283 42.9264 41.1496 42.4926 40.1857C42.3561 39.8724 42.1794 39.021 42.091 38.6435C41.6733 36.9326 41.6091 36.9727 41.6091 35.2377V35.2297ZM8.74045 35.2297H40.1472V36.3944H8.74045V35.2297ZM28.5725 25.6069H36.7414C37.6651 25.6069 38.7174 26.2013 39.1431 26.6993C39.6331 27.2776 40.1391 28.1692 40.1391 29.1974H25.2631C25.2631 28.0327 25.6808 27.3981 26.219 26.7475C26.3796 26.5547 26.9901 26.1049 27.215 25.9924C27.456 25.8639 28.219 25.5988 28.5725 25.5988V25.6069ZM12.9173 25.5105H19.8171C22.0341 25.5105 23.6325 27.0607 23.8012 29.109H8.8288C8.86896 27.2134 10.5718 25.5105 12.9093 25.5105H12.9173ZM4.36278 16.7632C5.62387 16.7632 6.70825 17.5745 7.15003 18.442C7.59984 19.3255 7.37494 21.5264 7.37494 22.7875V29.4946C7.43116 30.346 7.72836 30.5629 8.63603 30.5629H40.3319C41.9384 30.5629 41.593 29.5668 41.593 27.4543C41.593 26.0808 41.4163 19.5504 41.7536 18.7713C43.5449 14.6266 49.6174 17.944 46.9426 21.7272C46.067 22.9642 44.9345 22.3939 44.806 23.3819C44.5891 25.0526 45.2477 30.097 44.3481 31.7758C43.826 32.7557 42.6452 33.7839 41.1994 33.7839H7.75246C6.02549 33.7839 4.60376 32.4184 4.2423 30.6834C4.00133 29.5267 4.14591 25.6872 4.16197 24.153C4.17001 22.3698 3.80052 22.9883 2.70811 22.3055C1.3185 21.438 0.916881 19.3416 2.12174 17.8315C2.57156 17.2612 3.65593 16.7632 4.36278 16.7632ZM11.9454 9.37337H37.0306C37.8901 9.37337 38.8218 9.68663 39.4323 9.98383C41.593 11.0602 42.9665 12.996 42.9665 15.7832C42.3561 15.8314 41.4645 16.5865 41.103 17.0283C40.605 17.6387 40.2355 18.2813 40.2435 19.3737C40.2435 21.5987 40.1472 23.4783 40.1472 25.6952C39.609 25.3338 39.3841 24.9803 38.5889 24.6269C37.9543 24.3458 37.2716 24.1369 36.3559 24.1369H29.0624C27.0945 24.1369 24.8936 25.5105 24.5884 26.6671H24.3956C24.251 26.137 23.1747 25.1651 22.6767 24.884C21.9216 24.4502 21.0622 24.1369 19.9216 24.1369H12.5317C11.7365 24.1369 10.9815 24.3699 10.4273 24.651C10.122 24.8036 9.85695 24.9 9.59991 25.0928C9.34288 25.2856 9.1019 25.5105 8.83684 25.6952C8.83684 22.8678 9.41517 18.8757 7.79262 17.0122C7.4392 16.6106 6.37892 15.8073 5.82468 15.6788C5.82468 12.257 8.5557 9.35731 11.9534 9.35731L11.9454 9.37337ZM4.45917 15.4057C1.15785 15.4057 -1.36432 19.1006 0.804428 22.3698C1.20605 22.9803 1.94503 23.6871 2.70811 23.8638C2.70811 25.6631 2.5073 29.607 2.91695 31.2376C3.19005 32.33 3.86477 33.4867 4.74834 34.073C4.38688 35.6313 4.01739 37.1896 3.6238 38.78C3.38283 39.7439 3.28644 40.2981 3.78445 41.0773C4.74834 42.6034 7.03758 42.5071 7.80065 40.7239L8.54767 37.8724H40.4444C41.1833 39.4065 40.5809 42.1536 43.5529 42.1536C44.6614 42.1536 45.5931 41.1737 45.5931 39.7198C45.5931 39.0612 45.1433 37.6314 44.9666 36.9406C43.826 32.4264 44.3561 35.053 45.6895 32.4344C46.0108 31.7918 46.2759 30.9805 46.2759 30.0006C46.2759 27.9604 46.2759 25.9121 46.2759 23.8719C47.288 23.7915 48.9989 21.92 48.9989 20.2733C48.9989 18.7472 48.8543 17.6949 47.5611 16.5543C46.7418 15.8314 45.4646 15.4137 44.324 15.4137C44.324 13.2048 43.2798 11.3975 42.1633 10.281C40.8861 9.01191 39.119 8.02393 37.135 8.02393H11.5598C9.65614 8.02393 7.59181 9.29305 6.61989 10.281C6.36285 10.5381 6.04156 10.9477 5.84075 11.253C5.55961 11.6706 5.41503 11.9598 5.17406 12.4337C4.82063 13.1325 4.45917 14.4097 4.45917 15.4137V15.4057Z" fill="#16377C"/>
<path fill-rule="evenodd" clip-rule="evenodd" d="M34.7092 18.7956C34.7092 19.9843 36.7495 20.2093 36.7495 18.6992C36.7495 17.5184 34.7092 17.4943 34.7092 18.7956Z" fill="#16377C"/>
<path fill-rule="evenodd" clip-rule="evenodd" d="M27.3195 18.4982C27.3195 19.0845 27.3516 19.7593 28.2914 19.7593C29.5605 19.7593 29.5846 17.8154 28.3878 17.8154C27.8255 17.8154 27.3195 18.0484 27.3195 18.4982Z" fill="#16377C"/>
<path fill-rule="evenodd" clip-rule="evenodd" d="M23.7209 14.4178C23.7209 15.7191 25.7612 15.6548 25.7612 14.4178C25.7612 13.1808 23.7209 13.1166 23.7209 14.4178Z" fill="#16377C"/>
<path fill-rule="evenodd" clip-rule="evenodd" d="M12.347 18.699C12.347 20.1288 14.2909 20.0565 14.2909 18.8918C14.2909 17.2692 12.347 17.6789 12.347 18.699Z" fill="#16377C"/>
<path fill-rule="evenodd" clip-rule="evenodd" d="M16.2347 14.4179C16.2347 15.6389 18.1786 15.8638 18.1786 14.3215C18.1786 13.1649 16.2347 13.0926 16.2347 14.4179Z" fill="#16377C"/>
<path fill-rule="evenodd" clip-rule="evenodd" d="M31.2072 14.4179C31.2072 15.6389 33.151 15.8638 33.151 14.3215C33.151 13.1649 31.2072 13.0926 31.2072 14.4179Z" fill="#16377C"/>
<path fill-rule="evenodd" clip-rule="evenodd" d="M19.8333 18.6989C19.8333 20.1447 21.7771 20.1447 21.7771 18.6989C21.7771 17.5262 19.8333 17.5262 19.8333 18.6989Z" fill="#16377C"/>
</g>
<defs>
<clipPath id="clip0_143_175">
<rect width="49" height="34.1297" fill="white" transform="translate(0 8)"/>
</clipPath>
</defs>
</svg>
