<svg width="50" height="50" viewBox="0 0 50 50" fill="none" xmlns="http://www.w3.org/2000/svg">
<g clip-path="url(#clip0_143_175)">
<path d="M2.73438 22.4561H3.878C5.6589 22.4561 7.1168 23.914 7.1168 25.6949V40.073C7.1168 41.8539 5.6589 43.3118 3.878 43.3118H2.73438V22.4648V22.4561Z" stroke="#16377C" stroke-width="1.601" stroke-miterlimit="22.9256" stroke-linecap="round"/>
<path d="M7.11682 26.4893H11.0016V39.2786H7.11682V26.4893Z" stroke="#16377C" stroke-width="1.601" stroke-miterlimit="22.9256" stroke-linecap="round"/>
<path d="M36.624 26.9086L33.2367 32.7751C26.2528 28.7419 19.9411 25.1015 12.9571 21.0683C10.5477 19.6715 10.3731 17.8818 11.3334 16.2232L12.9921 13.3423L36.624 26.9086Z" stroke="#16377C" stroke-width="1.601" stroke-miterlimit="22.9256" stroke-linecap="round"/>
<path d="M46.9951 22.4037L42.4206 30.3305L12.9921 13.3421C14.092 11.4302 14.7206 10.3477 15.8206 8.43585C16.5102 7.23985 18.326 5.93909 20.7617 7.35334L46.9951 22.4037Z" stroke="#16377C" stroke-width="1.601" stroke-miterlimit="22.9256" stroke-linecap="round"/>
<path d="M13.5857 17.4976L18.361 20.2562" stroke="#16377C" stroke-width="1.601" stroke-miterlimit="22.9256" stroke-linecap="round"/>
<path d="M34.328 30.8807C34.328 30.8807 36.0653 31.9545 38.0731 31.3172C40.081 30.6799 40.7008 29.3442 40.7008 29.3442" stroke="#16377C" stroke-width="1.601" stroke-miterlimit="22.9256" stroke-linecap="round"/>
<path d="M11.0016 34.9662H15.838C17.4268 34.9662 19.3823 34.94 21.2592 33.613C23.1362 32.2948 24.2274 29.5449 25.1528 28.0957" stroke="#16377C" stroke-width="1.601" stroke-miterlimit="22.9256" stroke-linecap="round"/>
<path d="M11.0016 30.7406H15.4015C16.6062 30.7406 17.6276 30.8366 18.7974 30.0684C19.9672 29.3002 21.0323 26.8034 21.4426 25.9653" stroke="#16377C" stroke-width="1.601" stroke-miterlimit="22.9256" stroke-linecap="round"/>
<path d="M40.823 22.2202C41.8357 22.2202 42.6563 23.0408 42.6563 24.0535C42.6563 25.0662 41.8357 25.8868 40.823 25.8868C39.8104 25.8868 38.9897 25.0662 38.9897 24.0535C38.9897 23.0408 39.8104 22.2202 40.823 22.2202Z" stroke="#16377C" stroke-width="1.601" stroke-miterlimit="22.9256" stroke-linecap="round"/>
</g>
<defs>
<clipPath id="clip0_143_175">
<rect width="46" height="38.045" fill="white" transform="translate(2 6)"/>
</clipPath>
</defs>
</svg>
