<svg width="50" height="50" viewBox="0 0 50 50" fill="none" xmlns="http://www.w3.org/2000/svg">
<path fill-rule="evenodd" clip-rule="evenodd" d="M37.3338 47.6146C33.9662 47.6146 32.2056 43.5202 34.5906 41.1148C36.8015 38.8833 40.9574 40.2447 41.0495 43.7761C41.0904 45.2808 40.1282 46.6319 38.8999 47.2052C38.5621 47.3587 37.7637 47.6044 37.3338 47.6044V47.6146ZM25.0507 1.02047H26.8727C27.2002 1.06142 27.4766 1.16378 27.7018 1.36849C28.3671 1.96218 27.5892 1.78817 29.749 2.50469L36.0338 4.7566C36.9551 5.10462 38.0196 5.35029 38.685 6.3227C39.6471 7.72503 42.6872 16.4563 43.1274 16.876C43.3321 17.0807 43.9872 17.4185 43.9872 18.0736C43.9872 19.4043 44.3045 21.216 42.3904 21.257C42.3904 22.0144 42.3494 22.8333 42.2471 23.5498C42.0219 25.0648 42.1857 27.7363 41.4999 28.8009C41.0085 29.5686 40.3432 30.0497 39.3605 30.2237C38.818 30.3158 33.1882 30.2544 32.3694 30.2544C32.7993 30.8993 35.9417 33.7141 36.7197 34.7173C37.733 36.007 37.9889 36.3243 37.9889 38.5967C40.7833 39.2518 42.4927 41.0124 42.4927 44.032C42.4927 46.5808 40.0873 48.9964 37.5283 48.9964H36.9653C34.089 48.9964 31.6836 46.0075 32.0623 43.3462C32.2568 41.9746 32.3489 41.7596 33.0347 40.7463H20.2807C20.4035 41.2888 20.6594 41.6777 20.6594 42.3431H29.9434C30.5781 42.3431 30.834 43.7454 29.7592 43.7454H20.6697C20.6389 45.0965 19.5846 46.7548 18.8169 47.4201C17.7524 48.3516 16.4934 48.8839 15.2036 48.9862H14.2722C12.9108 48.8736 11.5801 48.2799 10.4746 47.1847C8.47862 45.1989 8.22272 42.3124 9.66599 39.866C10.1266 39.088 10.7715 38.4739 11.5289 37.9825C14.2619 36.1913 16.6367 37.4912 17.3839 37.5526C17.6603 37.0306 18.0185 36.5086 18.3563 35.9968C18.7146 35.4543 18.991 34.9834 19.3287 34.4409L23.2798 28.2686C23.4641 27.9615 23.5869 27.7773 23.7916 27.4702C23.9759 27.1836 24.068 26.9994 24.2625 26.723C24.4774 26.4057 25.0916 25.5049 25.1632 25.1876C25.0404 25.0136 21.4374 21.2467 21.1303 21.2467H11.0069L11.1912 23.3144C11.2116 23.9695 11.3447 24.7474 11.3754 25.3821C11.447 26.8458 11.3447 28.2174 12.5014 28.6678C13.0439 28.8828 17.8241 28.7702 19.0728 28.7599C19.4925 28.7599 19.7791 28.7088 20.076 28.8828C20.8334 29.3434 20.383 30.2544 19.6358 30.2544H13.0746C12.2147 30.2544 11.2628 29.7631 10.8636 29.282C10.6179 28.9851 10.4132 28.6371 10.2597 28.2891C9.97307 27.6135 9.60457 21.9735 9.60457 21.257C8.72428 21.2365 8.00776 20.6633 8.00776 19.7523C8.00776 18.6059 7.72116 17.0193 9.24632 16.7736L16.7288 16.7532C16.3398 16.1799 14.8659 14.839 14.2722 14.2453C13.3612 13.3343 10.0345 9.8234 9.17466 9.40373C8.31484 8.98405 6.49284 9.25019 5.66373 9.1683C4.68107 9.06594 4.85509 7.75574 5.75585 7.75574H8.47862C10.3518 7.75574 12.5116 10.4273 14.0367 11.9525C14.3438 12.2596 18.6532 16.7532 18.9807 16.7532H23.7609V2.50469C23.7609 1.7677 24.3853 1 25.0711 1L25.0507 1.02047ZM14.743 38.5148C19.5744 38.5148 21.0484 45.3013 16.5036 47.2052C14.6611 47.9728 12.8801 47.5532 11.488 46.1713C8.71405 43.4281 10.6998 38.5046 14.743 38.5046V38.5148ZM18.5918 38.4227C18.6736 38.1156 19.6256 36.744 19.8713 36.3346C20.8027 34.7582 22.2255 32.7622 23.157 31.1756C23.3105 30.9197 23.6381 30.2646 23.9349 30.2646H30.1175C30.4245 30.2646 33.567 33.5811 33.8433 33.8472C35.9724 35.9763 36.4945 35.9558 36.4945 38.6069L34.4268 39.262H19.5232C19.2469 39.262 18.7146 38.6172 18.5815 38.4227H18.5918ZM26.1868 26.334C26.5758 26.4364 28.5616 28.545 28.7151 28.7702H24.6822L26.1868 26.334ZM23.372 21.2672H40.9983L40.3944 27.6954C40.2306 28.2993 39.7495 28.7599 39.0227 28.7599H30.9568C30.6497 28.7599 27.4049 25.3514 27.1388 25.0852C26.4939 24.4404 25.9105 23.8569 25.2656 23.212C24.7845 22.731 23.6893 21.7483 23.372 21.2672ZM9.39986 18.2681H18.1209C18.4075 18.2681 19.5437 19.5169 19.7177 19.7728H9.41009V18.2681H9.39986ZM37.8047 7.58173L41.4589 16.7634C41.1314 16.7634 40.5479 16.7327 40.2511 16.7736C39.3298 16.8965 39.2684 18.2681 40.5274 18.2681H42.5849V19.7728H21.9594C21.6728 19.7728 20.5366 18.524 20.3626 18.2681C20.9665 18.2681 36.9551 18.35 37.385 18.2271C37.7125 18.1452 37.9787 17.8893 37.9787 17.5106C37.9787 16.661 37.2315 16.7634 36.3819 16.7634H29.1655C29.36 16.4665 33.7819 11.9218 34.4985 11.0312L37.7944 7.58173H37.8047ZM25.2451 2.4228H26.7498V16.7634H25.2451V2.4228ZM28.2443 15.5453V3.54876C28.4183 3.55899 35.8905 6.16916 36.6787 6.54789C36.3819 6.98804 33.8741 9.5368 33.567 9.90529L30.4143 13.3139C30.2198 13.5084 30.097 13.6312 29.8923 13.8257C29.4726 14.2453 28.9301 15.0642 28.234 15.5351L28.2443 15.5453Z" fill="#16377C"/>
<path fill-rule="evenodd" clip-rule="evenodd" d="M13.2383 43.2952V42.8243C13.2383 41.1661 16.2375 41.0023 16.2375 43.0086C16.2375 45.1786 13.2383 44.8613 13.2383 43.285V43.2952ZM11.7336 43.0188C11.7336 44.7487 13.0131 46.018 14.8249 46.018C16.4115 46.018 17.6705 44.6259 17.7114 43.1007C17.7524 41.5858 16.4524 40.1118 14.917 40.1118C13.8525 40.1118 13.4021 40.1732 12.5525 41.0228C12.0817 41.4834 11.7336 42.1385 11.7336 43.0188Z" fill="#16377C"/>
<path fill-rule="evenodd" clip-rule="evenodd" d="M36.4842 43.8579C36.4842 43.5918 36.5559 43.4689 36.6889 43.3154C37.1291 42.8138 37.9787 42.9162 37.9787 43.8579C37.9787 44.861 36.474 44.7382 36.474 43.8579H36.4842ZM37.2314 46.0177C40.3432 46.0177 39.9952 41.6162 37.5078 41.6162H37.037C35.9315 41.6162 34.9795 42.7729 35.0102 43.8579C35.0512 45.0043 35.9622 46.0279 37.2212 46.0279L37.2314 46.0177Z" fill="#16377C"/>
</svg>
