<svg width="50" height="50" viewBox="0 0 50 50" fill="none" xmlns="http://www.w3.org/2000/svg">
<path fill-rule="evenodd" clip-rule="evenodd" d="M19.4418 36.5172H31.5582C31.8543 36.5172 32.025 36.9238 32.2207 37.1396C32.4516 37.3905 32.6675 37.5813 32.9084 37.8272C34.5748 39.4936 36.4268 41.6217 38.0932 43.2881L42.0183 47.444H8.9717L11.5666 44.7136C11.8427 44.4375 11.933 44.3371 12.174 44.036C12.3697 43.79 12.6207 43.5742 12.8516 43.3383L14.1365 41.958C14.5631 41.5264 15.0851 41.0797 15.4666 40.6229C16.2847 39.6442 18.5885 37.4207 19.0302 36.8434C19.1607 36.6728 19.1808 36.5172 19.4418 36.5172ZM2.73281 2H2.82817C2.99883 2.01004 3.19457 2.08533 3.40538 2.24594L16.1994 11.667C16.5658 11.9431 17.6951 12.9268 18.1519 12.9268H32.8381C33.1493 12.9268 33.2246 12.8265 33.4203 12.6809C36.9388 10.0057 40.8187 7.29026 44.3673 4.62505L47.2132 2.51698C47.685 2.19073 48.2471 1.68881 48.7741 2.31621C49.4718 3.14438 48.2873 3.73163 47.3186 4.45942C46.9773 4.7154 46.7012 4.89609 46.3599 5.15207L43.504 7.25513C42.8414 7.70686 42.2692 8.16862 41.5966 8.65047L35.8948 12.8616C35.6238 13.0674 34.123 14.0662 34.123 14.3021V32.1103C34.123 32.3061 36.8936 35.1821 37.245 35.413C37.245 30.5795 37.245 25.7459 37.245 20.9074C37.245 19.9638 37.0543 18.0013 37.4257 17.4191C37.6817 17.0175 37.9677 16.8117 38.4647 16.621C39.3782 16.2696 44.573 14.1164 44.8642 14.1164C46.9271 14.1164 46.7012 15.7376 46.7012 17.3287V41.0094C46.7012 46.5105 46.3097 44.819 48.0112 46.8568C48.3124 47.2182 48.995 47.6147 48.995 48.1668C48.995 48.6587 48.7792 48.995 48.2622 48.995H2.73281C2.29111 48.995 2 48.7039 2 48.2622C2 47.5645 2.62238 47.2784 3.03396 46.8166C4.73548 44.8842 4.2988 45.9634 4.2988 43.3082V17.2384C4.2988 16.2144 4.07294 14.1164 5.85978 14.1164C6.67792 14.1164 11.406 16.1693 12.6709 16.6712C14.2369 17.2936 13.755 18.8997 13.755 21.0028C13.755 25.8062 13.755 30.6096 13.755 35.413C13.9457 35.2875 16.877 32.3663 16.877 32.1103V14.3021C16.877 14.0411 16.2195 13.6898 15.9986 13.5292L4.58992 5.11192C4.0629 4.7154 2.00502 3.45056 2.00502 2.82817C2.00502 2.51698 2.27606 2.03513 2.73783 2L2.73281 2ZM4.66019 47.439C4.93625 47.0274 7.21999 44.8039 7.57134 44.3823C7.75705 44.1615 7.77211 44.0962 7.98793 43.8804L17.2133 34.1983C17.409 34.0026 17.8808 33.3952 18.1519 33.3952H32.8381C33.1292 33.3952 34.379 34.7605 34.5948 35.0315C35.1469 35.7242 35.7593 36.1709 36.2963 36.8183C36.6075 37.1898 36.7431 37.3454 37.0793 37.6867C37.3855 37.9928 37.6616 38.2438 37.9527 38.56L46.3298 47.444C43.9707 47.444 44.4425 47.7653 43.2731 46.3699L34.645 37.2801C34.2084 36.7581 33.3501 36.0655 32.9686 35.5635C32.7277 35.2473 32.4315 34.8659 31.9196 34.8659H19.0704C18.4731 34.8659 18.0063 35.6087 17.2584 36.3566L13.9558 39.8449C13.6647 40.1361 13.4037 40.372 13.1276 40.6681L12.3045 41.5866C12.0083 41.8827 11.7724 42.1136 11.4763 42.4098C11.1751 42.7159 11.0246 42.9619 10.6983 43.2831L7.81226 46.2695C7.62655 46.4904 7.61149 46.5556 7.39566 46.7715C6.50224 47.6749 7.01922 47.434 4.66521 47.434L4.66019 47.439ZM43.4889 29.4451C43.4889 30.1177 44.6835 30.5544 45.0499 30.6397V43.6746C44.7136 43.4487 41.16 39.5538 40.3469 38.7407C40.0859 38.4797 38.811 37.2651 38.811 36.9739V18.4329C38.811 18.0966 39.6542 17.8909 40.2415 17.66L45.0549 15.7727V28.898C44.6433 28.6772 44.6283 28.622 44.1364 28.622C43.8453 28.622 43.4939 29.0887 43.4939 29.4501L43.4889 29.4451ZM10.628 28.4362C10.628 30.0725 11.9832 29.2192 12.189 29.1691V36.8786C12.1137 37.5913 10.9593 38.3241 10.3771 39.0168L5.94511 43.6696V15.7627L11.4813 17.9411C11.7724 18.0565 12.189 18.1117 12.189 18.4279V27.1463C12.189 27.6382 10.628 27.7637 10.628 28.4312V28.4362ZM28.622 27.061V31.7439H22.378V19.2611H28.622V25.505V27.066V27.061ZM20.7267 19.9036V31.7439H18.5233V14.5782H32.4767V31.7439H30.2733V19.9036C30.2733 18.5685 29.8316 17.6098 28.3459 17.6098H22.6541C21.1684 17.6098 20.7267 18.5685 20.7267 19.9036Z" fill="#16377C"/>
<path fill-rule="evenodd" clip-rule="evenodd" d="M23.2062 5.2123C23.2062 3.05404 27.7937 3.05404 27.7937 5.2123C27.7937 7.12463 23.2062 7.12463 23.2062 5.2123ZM21.5548 5.12196C21.5548 7.04432 23.5977 8.30916 25.4999 8.30916C27.4022 8.30916 29.4451 7.04432 29.4451 5.12196C29.4451 3.36523 27.5729 2 25.771 2H25.2189C23.437 2 21.5448 3.37527 21.5448 5.12196H21.5548Z" fill="#16377C"/>
</svg>
