<svg width="50" height="50" viewBox="0 0 50 50" fill="none" xmlns="http://www.w3.org/2000/svg">
<g clip-path="url(#clip0_143_175)">
<path fill-rule="evenodd" clip-rule="evenodd" d="M1.8678 2.86768H47.5677V7.20017H1.8678V2.86768Z" stroke="#16377C" stroke-width="1.73516" stroke-miterlimit="22.9256" stroke-linecap="round" stroke-linejoin="round"/>
<path fill-rule="evenodd" clip-rule="evenodd" d="M47.5677 7.2002H14.7622V43.72H47.5677V7.2002Z" stroke="#16377C" stroke-width="1.73516" stroke-miterlimit="22.9256" stroke-linecap="round" stroke-linejoin="round"/>
<path fill-rule="evenodd" clip-rule="evenodd" d="M23.7363 43.7201H38.5883V21.7432H23.7363V43.7201Z" stroke="#16377C" stroke-width="1.73516" stroke-miterlimit="22.9256" stroke-linecap="round" stroke-linejoin="round"/>
<path fill-rule="evenodd" clip-rule="evenodd" d="M1.8678 43.7197H47.5677V48.0522H1.8678V43.7197Z" stroke="#16377C" stroke-width="1.73516" stroke-miterlimit="22.9256" stroke-linecap="round" stroke-linejoin="round"/>
<path d="M26.827 31.6606V33.6235" stroke="#16377C" stroke-width="1.73516" stroke-miterlimit="22.9256" stroke-linecap="round" stroke-linejoin="round"/>
<path d="M6.13525 29.6812V40.3578" stroke="#16377C" stroke-width="1.73516" stroke-miterlimit="22.9256" stroke-linecap="round" stroke-linejoin="round"/>
<path d="M9.43749 37.0557L6.13525 40.3579" stroke="#16377C" stroke-width="1.73516" stroke-miterlimit="22.9256" stroke-linecap="round" stroke-linejoin="round"/>
<path d="M2.83301 37.0557L6.13524 40.3579" stroke="#16377C" stroke-width="1.73516" stroke-miterlimit="22.9256" stroke-linecap="round" stroke-linejoin="round"/>
<path fill-rule="evenodd" clip-rule="evenodd" d="M6.02675 21.6616C3.92829 21.6616 2.23108 23.3588 2.23108 25.4573C2.23108 27.5558 3.92829 29.253 6.02675 29.253C8.12522 29.253 9.82243 27.5558 9.82243 25.4573C9.82243 23.3588 8.12522 21.6616 6.02675 21.6616Z" stroke="#16377C" stroke-width="1.73516" stroke-miterlimit="22.9256" stroke-linecap="round" stroke-linejoin="round"/>
<path d="M6.13525 21.6615V10.9849" stroke="#16377C" stroke-width="1.73516" stroke-miterlimit="22.9256" stroke-linecap="round" stroke-linejoin="round"/>
<path d="M2.83301 14.2817L6.13524 10.9849" stroke="#16377C" stroke-width="1.73516" stroke-miterlimit="22.9256" stroke-linecap="round" stroke-linejoin="round"/>
<path d="M9.43749 14.2817L6.13525 10.9849" stroke="#16377C" stroke-width="1.73516" stroke-miterlimit="22.9256" stroke-linecap="round" stroke-linejoin="round"/>
</g>
<defs>
<clipPath id="clip0_143_175">
<rect width="47.43" height="46.9145" fill="white" transform="translate(1 2)"/>
</clipPath>
</defs>
</svg>
