<svg width="50" height="50" viewBox="0 0 50 50" fill="none" xmlns="http://www.w3.org/2000/svg">
<g clip-path="url(#clip0_143_175)">
<path fill-rule="evenodd" clip-rule="evenodd" d="M7.49858 42.8083V39.0039C9.10177 39.0039 10.5592 39.1547 11.7503 37.9736C11.9212 37.8028 12.1875 37.4459 12.2529 37.2097H14.5797V42.9189C14.5797 44.3462 13.0419 46.0901 11.303 46.0901C10.1823 46.0901 9.59429 46.0599 8.67459 45.2307C8.06146 44.6779 7.49858 43.8687 7.49858 42.8134V42.8083ZM9.29777 37.0992H5.59888C4.77467 37.0992 3.90524 36.3956 3.90524 35.6216V4.54293C3.90524 3.63831 4.58873 2.95482 5.48832 2.95482H9.50382C10.2828 2.95482 10.9864 3.81924 10.9864 4.64847V35.4106C10.9864 36.3302 10.2175 37.1042 9.29275 37.1042L9.29777 37.0992ZM45.3418 35.3H12.8911V4.74898H45.4474C46.352 4.74898 47.0304 5.43247 47.0304 6.33709V33.8224C47.0304 34.6014 46.166 35.305 45.3368 35.305L45.3418 35.3ZM2.00051 4.5379V35.5111C2.00051 37.4158 3.72431 38.9587 5.59386 38.9989V42.6978C5.59386 46.9796 11.1673 50.0503 14.9215 46.3213C15.811 45.4367 16.4794 44.2205 16.4794 42.4867V37.1997H45.1257C47.1963 37.1997 48.9301 35.6116 48.9301 33.7119V6.33207C48.9301 4.9098 47.93 3.78406 47.0254 3.26641C45.955 2.65328 44.1457 2.84426 42.4822 2.84426C32.441 2.84426 22.3997 2.84426 12.3534 2.84426C10.7904 0.512349 8.90577 1.04507 5.48329 1.04507C3.6439 1.04507 1.99548 2.69349 1.99548 4.53288L2.00051 4.5379Z" fill="#16377C"/>
<path fill-rule="evenodd" clip-rule="evenodd" d="M35.3005 20.9268H24.7316C24.7316 18.8211 27.6766 18.0371 28.2948 18.3085C28.8325 18.5447 29.2798 18.801 30.0186 18.801C31.5363 18.801 31.3202 17.7154 33.3305 18.5648C34.4914 19.0523 35.004 19.6252 35.3056 20.9218L35.3005 20.9268ZM30.0135 16.9113C28.6918 16.9113 27.7922 15.5092 27.7922 14.4789C27.7922 13.5039 27.7369 12.8255 28.4556 11.9711C29.6718 10.5237 31.5062 11.2675 32.0389 12.9813C32.6721 15.0217 31.4056 16.9113 30.0135 16.9113ZM25.8925 13.9512C25.8925 15.0569 26.1086 15.8007 26.5257 16.5947C25.1336 17.2631 24.038 17.4491 23.1434 19.4493C23.0228 19.7156 22.9675 19.8915 22.8922 20.2584C22.8118 20.6554 22.9022 20.9319 22.5102 20.9319H18.2836V8.35262H41.6429V20.9319H37.2053C37.1701 20.5147 36.9238 19.6604 36.7831 19.3437C36.3006 18.2632 35.2754 17.3435 34.1698 16.8812C33.8833 16.7606 33.6471 16.7153 33.3958 16.5947C35.1397 13.9914 33.3305 9.22709 29.918 9.31755C27.6665 9.37786 25.8925 11.5741 25.8925 13.9512ZM16.3789 7.50329V21.5601C16.3789 22.2184 16.6804 22.721 17.3288 22.721H42.8038C43.1406 22.721 43.5426 22.1832 43.5426 21.7711V7.39272C43.5426 6.87005 43.1154 6.44287 42.5928 6.44287H17.3288C16.7609 6.44287 16.3789 6.96554 16.3789 7.49826V7.50329Z" fill="#16377C"/>
<path fill-rule="evenodd" clip-rule="evenodd" d="M32.6571 25.3645C32.6571 25.8771 32.9586 26.3143 33.5014 26.3143H39.2106C40.1554 26.3143 40.1152 24.5151 39.2106 24.5151H33.3959C33.0441 24.5151 32.6571 25.0077 32.6571 25.3594V25.3645Z" fill="#16377C"/>
<path fill-rule="evenodd" clip-rule="evenodd" d="M20.0779 25.3645C20.0779 25.9324 20.3241 26.3143 20.9222 26.3143H26.4203C27.5611 26.3143 27.5611 24.5151 26.4203 24.5151H20.9222C20.4096 24.5151 20.0779 24.8519 20.0779 25.3594V25.3645Z" fill="#16377C"/>
<path fill-rule="evenodd" clip-rule="evenodd" d="M34.4512 32.5509C34.4512 33.5912 35.4915 33.762 35.9941 33.355C36.6976 32.7871 36.2504 31.7065 35.406 31.7065C34.9336 31.7065 34.4562 32.1337 34.4562 32.5509H34.4512Z" fill="#16377C"/>
<path fill-rule="evenodd" clip-rule="evenodd" d="M38.0446 32.6613C38.0446 33.3749 38.9743 33.8524 39.5874 33.3598C40.291 32.7919 39.8437 31.7114 38.9994 31.7114C38.4667 31.7114 38.0496 32.1738 38.0496 32.6613H38.0446Z" fill="#16377C"/>
<path fill-rule="evenodd" clip-rule="evenodd" d="M38.0446 28.9574C38.0446 30.2942 39.9493 30.1535 39.9493 29.0629C39.9493 27.7512 38.0446 27.9221 38.0446 28.9574Z" fill="#16377C"/>
<path fill-rule="evenodd" clip-rule="evenodd" d="M27.2645 32.4452C27.2645 34.6465 29.9181 33.179 28.8677 32.003C28.2998 31.3698 27.2645 31.8773 27.2645 32.4452Z" fill="#16377C"/>
<path fill-rule="evenodd" clip-rule="evenodd" d="M30.8579 29.0631C30.8579 30.2542 32.7878 30.1989 32.7023 28.9726C32.6169 27.7916 30.8579 27.8017 30.8579 29.0631Z" fill="#16377C"/>
<path fill-rule="evenodd" clip-rule="evenodd" d="M34.4512 28.9578C34.4512 30.2996 36.3861 30.184 36.3257 28.9678C36.2654 27.7416 34.4512 27.9627 34.4512 28.9578Z" fill="#16377C"/>
<path fill-rule="evenodd" clip-rule="evenodd" d="M30.8579 32.6613C30.8579 33.5408 31.8932 33.8272 32.4309 33.2794C32.9586 32.7367 32.6722 31.7114 31.8128 31.7114C31.2901 31.7114 30.8629 32.1386 30.8629 32.6613H30.8579Z" fill="#16377C"/>
<path fill-rule="evenodd" clip-rule="evenodd" d="M20.0779 32.551C20.0779 34.0034 21.8771 33.7973 21.8771 32.6565C21.8771 31.4956 20.0779 31.3247 20.0779 32.551Z" fill="#16377C"/>
<path fill-rule="evenodd" clip-rule="evenodd" d="M23.6711 32.5511C23.6711 33.9131 25.4703 33.9884 25.4703 32.4456C25.4703 31.5761 23.6711 31.355 23.6711 32.5511Z" fill="#16377C"/>
<path fill-rule="evenodd" clip-rule="evenodd" d="M27.2645 28.9577C27.2645 30.2292 29.0637 30.2995 29.0637 28.9577C29.0637 28.1033 28.0686 27.8571 27.5158 28.3596C27.3349 28.5205 27.2696 28.6561 27.2696 28.9577H27.2645Z" fill="#16377C"/>
<path fill-rule="evenodd" clip-rule="evenodd" d="M20.0779 28.9574C20.0779 30.2842 21.8771 30.2943 21.8771 28.8519C21.8771 27.9875 20.0779 27.701 20.0779 28.9574Z" fill="#16377C"/>
<path fill-rule="evenodd" clip-rule="evenodd" d="M23.6711 28.9577C23.6711 30.2543 25.4703 30.2543 25.4703 28.9577C25.4703 27.8168 23.6711 27.8168 23.6711 28.9577Z" fill="#16377C"/>
</g>
<defs>
<clipPath id="clip0_143_175">
<rect width="46.9356" height="47" fill="white" transform="translate(2 1)"/>
</clipPath>
</defs>
</svg>
