<svg width="50" height="50" viewBox="0 0 50 50" fill="none" xmlns="http://www.w3.org/2000/svg">
<g clip-path="url(#clip0_143_270)">
<path fill-rule="evenodd" clip-rule="evenodd" d="M26.0333 14.5601H37.5065V43.2837H26.0333V14.5601ZM12.6652 14.5601H24.1385V43.2837H12.6652V14.5601ZM10.6835 13.5229V45.1785H4.99327V4.98174H45.19V45.1785H39.4998V13.5229C39.4998 12.9203 39.0015 12.5726 38.3757 12.5726H11.8077C11.1818 12.5726 10.6835 12.9203 10.6835 13.5229ZM3.00574 3.86339V46.3027C3.00574 46.7373 3.43453 47.166 3.86913 47.166H11.7207C12.7464 47.166 12.671 45.9028 12.671 45.2712H37.5123C37.5123 45.9028 37.4369 47.166 38.4626 47.166H46.3142C46.7488 47.166 47.1776 46.7373 47.1776 46.3027V3.86339C47.1776 3.4288 46.7488 3 46.3142 3H3.87492C3.44033 3 3.01153 3.4288 3.01153 3.86339H3.00574Z" fill="#16377C"/>
<path fill-rule="evenodd" clip-rule="evenodd" d="M16.4548 9.64044C16.4548 10.3242 16.8083 10.6777 17.4921 10.6777C18.0889 10.6777 18.8306 9.52454 19.3058 9.21164C19.7519 9.50716 21.0731 11.4947 22.0002 10.3532C22.7129 9.47239 21.5714 8.67275 21.0151 8.11647C20.6327 7.73403 19.9547 6.85905 19.3869 6.83008C18.7031 6.78952 18.1295 7.60075 17.7354 7.98899C17.3704 8.35405 16.4606 9.04939 16.4606 9.65202L16.4548 9.64044Z" fill="#16377C"/>
<path fill-rule="evenodd" clip-rule="evenodd" d="M27.9281 7.74561C27.9281 8.42357 28.7277 9.02041 29.116 9.40865C29.6954 9.9881 30.159 10.6834 30.9471 10.6834C31.4164 10.6834 32.0017 9.93016 32.4768 9.455C33.0157 8.91611 34.2384 8.04114 33.5025 7.17775C32.529 6.04202 31.3585 7.96001 30.7732 8.35404C30.6284 8.13385 29.6781 7.16036 29.4463 7.00391C29.1334 6.79531 28.8494 6.76633 28.5018 6.94017C28.2526 7.06765 27.9281 7.45009 27.9281 7.75141V7.74561Z" fill="#16377C"/>
<path fill-rule="evenodd" clip-rule="evenodd" d="M41.3831 23.1822C41.3831 24.1963 42.8781 24.5324 43.2663 23.5067C43.811 22.0813 41.3831 21.6119 41.3831 23.1822Z" fill="#16377C"/>
<path fill-rule="evenodd" clip-rule="evenodd" d="M41.3831 26.891C41.3831 27.8471 42.3507 28.2991 43.0055 27.7371C43.2837 27.4995 43.4111 27.0939 43.2895 26.7172C42.9302 25.5583 41.3831 26.0393 41.3831 26.891Z" fill="#16377C"/>
</g>
<defs>
<clipPath id="clip0_143_270">
<rect width="44.166" height="44.166" fill="white" transform="translate(3 3)"/>
</clipPath>
</defs>
</svg>
