<svg width="70" height="70" viewBox="0 0 70 70" fill="none" xmlns="http://www.w3.org/2000/svg">
<circle cx="35" cy="35" r="35" fill="#E3ECFF"/>
<path d="M51.1562 40.9062V38.3438H52.4375V37.0625H49.875V34.5H51.1562V33.2188H48.5938V30.6562H49.875V29.375H48.5938V24.25H49.875V15.2812H19.125V24.25H20.4062V29.375H19.125V30.6562H20.4062V33.2188H17.8438V34.5H19.125V37.0625H16.5625V38.3438H17.8438V40.9062H15.2812V42.1875H16.5625V44.8679C16.1891 44.9999 15.8656 45.2441 15.6362 45.567C15.4069 45.8899 15.2829 46.2758 15.2812 46.6719V53.7188H16.5625V51.1562H18.4844V53.7188H19.7656V51.1562H22.3281V53.7188H23.6094V51.1562H26.1719V53.7188H27.4531V51.1562H30.0156V53.7188H31.2969V51.1562H33.8594V53.7188H35.1406V51.1562H37.7031V53.7188H38.9844V51.1562H41.5469V53.7188H42.8281V51.1562H45.3906V53.7188H46.6719V51.1562H49.2344V53.7188H50.5156V51.1562H52.4375V53.7188H53.7188V46.6719C53.7171 46.2758 53.5931 45.8899 53.3638 45.567C53.1344 45.2441 52.8109 44.9999 52.4375 44.8679V42.1875H53.7188V40.9062H51.1562ZM49.875 40.9062H38.3438V38.3438H49.875V40.9062ZM52.4375 46.6719V47.3125H50.5156V46.0312H51.7969C51.9668 46.0312 52.1297 46.0987 52.2499 46.2189C52.37 46.339 52.4375 46.502 52.4375 46.6719ZM49.2344 47.3125H46.6719V46.0312H49.2344V47.3125ZM45.3906 47.3125H42.8281V46.0312H45.3906V47.3125ZM41.5469 47.3125H38.9844V46.0312H41.5469V47.3125ZM22.3281 46.0312V47.3125H19.7656V46.0312H22.3281ZM23.6094 46.0312H26.1719V47.3125H23.6094V46.0312ZM27.4531 46.0312H30.0156V47.3125H27.4531V46.0312ZM31.2969 46.0312H33.8594V47.3125H31.2969V46.0312ZM35.1406 46.0312H37.7031V47.3125H35.1406V46.0312ZM38.3438 44.75H30.6562V42.1875H38.3438V44.75ZM31.9375 38.3438H37.0625V40.9062H31.9375V38.3438ZM33.2188 34.5H35.7812V37.0625H33.2188V34.5ZM48.5938 37.0625H37.0625V34.5H48.5938V37.0625ZM47.3125 33.2188H35.1406V30.6562H47.3125V33.2188ZM24.25 29.375V24.25H44.75V29.375H24.25ZM47.3125 29.375H46.0312V24.25H47.3125V29.375ZM20.4062 16.5625H48.5938V22.9688H20.4062V16.5625ZM21.6875 24.25H22.9688V29.375H21.6875V24.25ZM21.6875 30.6562H33.8594V33.2188H21.6875V30.6562ZM20.4062 34.5H31.9375V37.0625H20.4062V34.5ZM19.125 38.3438H30.6562V40.9062H19.125V38.3438ZM29.375 42.1875V44.75H17.8438V42.1875H29.375ZM17.2031 46.0312H18.4844V47.3125H16.5625V46.6719C16.5625 46.502 16.63 46.339 16.7501 46.2189C16.8703 46.0987 17.0332 46.0312 17.2031 46.0312ZM16.5625 49.875V48.5938H18.4844V49.875H16.5625ZM19.7656 49.875V48.5938H22.3281V49.875H19.7656ZM23.6094 49.875V48.5938H26.1719V49.875H23.6094ZM27.4531 49.875V48.5938H30.0156V49.875H27.4531ZM31.2969 49.875V48.5938H33.8594V49.875H31.2969ZM35.1406 49.875V48.5938H37.7031V49.875H35.1406ZM38.9844 49.875V48.5938H41.5469V49.875H38.9844ZM42.8281 49.875V48.5938H45.3906V49.875H42.8281ZM46.6719 49.875V48.5938H49.2344V49.875H46.6719ZM50.5156 49.875V48.5938H52.4375V49.875H50.5156ZM51.1562 44.75H39.625V42.1875H51.1562V44.75Z" fill="#16377C"/>
<path d="M34.5 21.6875C34.8801 21.6875 35.2517 21.5748 35.5677 21.3636C35.8838 21.1524 36.1301 20.8523 36.2756 20.5011C36.421 20.1499 36.4591 19.7635 36.3849 19.3907C36.3108 19.0179 36.1277 18.6754 35.859 18.4067C35.5902 18.1379 35.2477 17.9548 34.8749 17.8807C34.5021 17.8065 34.1157 17.8446 33.7645 17.99C33.4134 18.1355 33.1132 18.3818 32.902 18.6979C32.6908 19.0139 32.5781 19.3855 32.5781 19.7656C32.5781 20.2753 32.7806 20.7642 33.141 21.1246C33.5015 21.485 33.9903 21.6875 34.5 21.6875ZM34.5 19.125C34.6267 19.125 34.7506 19.1626 34.8559 19.233C34.9613 19.3034 35.0434 19.4034 35.0919 19.5205C35.1403 19.6375 35.153 19.7663 35.1283 19.8906C35.1036 20.0149 35.0426 20.129 34.953 20.2186C34.8634 20.3082 34.7492 20.3692 34.625 20.3939C34.5007 20.4187 34.3719 20.406 34.2548 20.3575C34.1378 20.309 34.0377 20.2269 33.9673 20.1215C33.8969 20.0162 33.8594 19.8923 33.8594 19.7656C33.8594 19.5957 33.9269 19.4328 34.047 19.3126C34.1671 19.1925 34.3301 19.125 34.5 19.125ZM30.6562 17.8438H21.6875V21.6875H30.6562V17.8438ZM29.375 20.4063H22.9688V19.125H29.375V20.4063ZM47.3125 17.8438H38.3438V21.6875H47.3125V17.8438ZM46.0312 20.4063H39.625V19.125H46.0312V20.4063Z" fill="#16377C"/>
</svg>
