<svg width="70" height="70" viewBox="0 0 70 70" fill="none" xmlns="http://www.w3.org/2000/svg">
<circle cx="35" cy="35" r="35" fill="#E3ECFF"/>
<path d="M45.9058 15.8754C46.0346 15.8754 46.1581 15.8243 46.2492 15.7332C46.3403 15.6422 46.3915 15.5187 46.3915 15.3899V14.4954C46.3915 14.3666 46.3403 14.2431 46.2492 14.1521C46.1581 14.061 46.0346 14.0099 45.9058 14.0099C45.777 14.0099 45.6535 14.061 45.5624 14.1521C45.4714 14.2431 45.4202 14.3666 45.4202 14.4954V15.3899C45.4202 15.5187 45.4714 15.6422 45.5624 15.7332C45.6535 15.8243 45.777 15.8754 45.9058 15.8754ZM45.9058 21.7077C46.4062 21.7077 46.8953 21.5594 47.3113 21.2815C47.7273 21.0036 48.0516 20.6086 48.2431 20.1465C48.4345 19.6844 48.4846 19.1759 48.387 18.6853C48.2894 18.1947 48.0485 17.7441 47.6947 17.3904C47.3409 17.0367 46.8901 16.7958 46.3994 16.6982C45.9086 16.6006 45.4 16.6507 44.9377 16.8421C44.4755 17.0336 44.0804 17.3577 43.8024 17.7736C43.5244 18.1895 43.376 18.6785 43.376 19.1787C43.3767 19.8492 43.6435 20.4921 44.1177 20.9662C44.592 21.4404 45.2351 21.707 45.9058 21.7077ZM45.9058 17.6212C46.2141 17.6212 46.5155 17.7126 46.7718 17.8839C47.0281 18.0551 47.2279 18.2985 47.3458 18.5832C47.4637 18.868 47.4946 19.1813 47.4344 19.4835C47.3742 19.7858 47.2257 20.0634 47.0077 20.2813C46.7896 20.4992 46.5119 20.6475 46.2095 20.7075C45.9071 20.7676 45.5937 20.7366 45.309 20.6186C45.0242 20.5006 44.7808 20.3008 44.6096 20.0445C44.4385 19.7882 44.3472 19.4869 44.3473 19.1787C44.3476 18.7656 44.512 18.3696 44.8042 18.0776C45.0964 17.7855 45.4926 17.6214 45.9058 17.6212ZM49.2081 19.1787C49.2081 19.3074 49.2593 19.4309 49.3504 19.522C49.4414 19.613 49.5649 19.6642 49.6937 19.6642H50.5905C50.7193 19.6642 50.8429 19.613 50.9339 19.522C51.025 19.4309 51.0762 19.3074 51.0762 19.1787C51.0762 19.0499 51.025 18.9264 50.9339 18.8354C50.8429 18.7443 50.7193 18.6932 50.5905 18.6932H49.6957C49.5669 18.6932 49.4434 18.7443 49.3523 18.8354C49.2612 18.9264 49.2101 19.0499 49.2101 19.1787H49.2081ZM48.9271 21.5148C48.8823 21.4684 48.8288 21.4314 48.7695 21.406C48.7103 21.3805 48.6466 21.3671 48.5821 21.3665C48.5176 21.3659 48.4536 21.3781 48.394 21.4025C48.3343 21.4269 48.28 21.4629 48.2344 21.5085C48.1888 21.5541 48.1527 21.6082 48.1283 21.6679C48.1038 21.7275 48.0915 21.7915 48.092 21.8559C48.0925 21.9204 48.1059 21.9841 48.1313 22.0433C48.1568 22.1026 48.1937 22.1562 48.2401 22.201L48.8727 22.8341C48.9638 22.9251 49.0874 22.9763 49.2162 22.9763C49.345 22.9763 49.4686 22.9251 49.5597 22.8341C49.6508 22.743 49.702 22.6195 49.702 22.4907C49.702 22.3619 49.6508 22.2383 49.5597 22.1473L48.9271 21.5148ZM48.5839 16.9836C48.6476 16.9838 48.7108 16.9713 48.7697 16.947C48.8286 16.9227 48.8821 16.8869 48.9271 16.8419L49.5617 16.2107C49.6528 16.1197 49.7039 15.9961 49.7039 15.8673C49.7039 15.7385 49.6528 15.615 49.5617 15.5239C49.4706 15.4329 49.347 15.3817 49.2182 15.3817C49.0893 15.3817 48.9658 15.4329 48.8746 15.5239L48.242 16.1564C48.1733 16.2242 48.1263 16.3109 48.1071 16.4055C48.0879 16.5002 48.0973 16.5984 48.1343 16.6876C48.1712 16.7768 48.2338 16.853 48.3143 16.9064C48.3947 16.9598 48.4893 16.9881 48.5859 16.9875L48.5839 16.9836ZM33.2756 18.7443C33.5388 18.8357 33.778 18.9854 33.975 19.1824C34.1721 19.3794 34.3219 19.6185 34.4132 19.8817C34.4467 19.9765 34.5087 20.0585 34.5909 20.1165C34.673 20.1745 34.7711 20.2055 34.8717 20.2053H34.8885C34.9916 20.2024 35.0911 20.1668 35.1726 20.1036C35.2541 20.0404 35.3133 19.9529 35.3418 19.8538C35.4172 19.5922 35.5577 19.3539 35.7502 19.1612C35.9427 18.9685 36.1809 18.8278 36.4425 18.7521C36.5657 18.7161 36.6696 18.6328 36.7316 18.5205C36.7935 18.4081 36.8085 18.2758 36.7731 18.1524C36.7378 18.0291 36.655 17.9248 36.543 17.8622C36.4309 17.7997 36.2987 17.784 36.1751 17.8187C35.7471 17.9421 35.358 18.1734 35.0452 18.4906C34.9765 18.5597 34.9116 18.6325 34.851 18.7087C34.7824 18.6244 34.7089 18.5442 34.6308 18.4686C34.3356 18.1826 33.9816 17.9643 33.5935 17.829C33.5329 17.8066 33.4684 17.7964 33.4038 17.7992C33.3392 17.802 33.2758 17.8176 33.2174 17.8452C33.1589 17.8728 33.1065 17.9118 33.0634 17.9599C33.0202 18.008 32.987 18.0642 32.9658 18.1253C32.9447 18.1864 32.9359 18.251 32.9401 18.3155C32.9443 18.38 32.9613 18.443 32.9901 18.5009C33.019 18.5587 33.0591 18.6102 33.1081 18.6524C33.1571 18.6945 33.214 18.7264 33.2756 18.7463V18.7443ZM29.2552 14.9537C29.5186 15.0451 29.7578 15.195 29.955 15.3921C30.1521 15.5892 30.3021 15.8283 30.3935 16.0916C30.427 16.1864 30.4891 16.2684 30.5712 16.3264C30.6533 16.3843 30.7514 16.4154 30.8519 16.4153H30.8655C30.9686 16.4123 31.0681 16.3767 31.1495 16.3135C31.231 16.2503 31.2903 16.1629 31.3188 16.0638C31.3939 15.8011 31.5347 15.5618 31.728 15.3686C31.9213 15.1753 32.1606 15.0346 32.4234 14.9595C32.4883 14.9451 32.5494 14.9177 32.6032 14.8787C32.657 14.8398 32.7022 14.7903 32.7361 14.7333C32.7699 14.6762 32.7917 14.6128 32.8002 14.547C32.8086 14.4812 32.8034 14.4143 32.7849 14.3506C32.7665 14.2868 32.7352 14.2275 32.6929 14.1764C32.6506 14.1252 32.5983 14.0832 32.5392 14.0531C32.4801 14.0229 32.4154 14.0052 32.3492 14.001C32.2829 13.9968 32.2165 14.0062 32.1541 14.0286C31.7261 14.1518 31.3372 14.3833 31.0248 14.7006C30.9561 14.7697 30.8913 14.8425 30.8306 14.9187C30.7635 14.8345 30.6915 14.7543 30.615 14.6785C30.3185 14.3912 29.9626 14.1722 29.5725 14.0371C29.5115 14.0127 29.4462 14.001 29.3805 14.0027C29.3149 14.0043 29.2502 14.0192 29.1905 14.0465C29.1308 14.0738 29.0772 14.113 29.0331 14.1616C28.9889 14.2101 28.9551 14.2672 28.9336 14.3292C28.9121 14.3913 28.9035 14.457 28.9081 14.5225C28.9128 14.588 28.9307 14.6519 28.9608 14.7102C28.9908 14.7686 29.0324 14.8203 29.083 14.8621C29.1336 14.9039 29.1922 14.9351 29.2552 14.9537ZM41.2205 19.6642H42.1153C42.2441 19.6642 42.3676 19.613 42.4587 19.522C42.5498 19.4309 42.601 19.3074 42.601 19.1787C42.601 19.0499 42.5498 18.9264 42.4587 18.8354C42.3676 18.7443 42.2441 18.6932 42.1153 18.6932H41.2205C41.0917 18.6932 40.9682 18.7443 40.8771 18.8354C40.786 18.9264 40.7348 19.0499 40.7348 19.1787C40.7348 19.3074 40.786 19.4309 40.8771 19.522C40.9682 19.613 41.0917 19.6642 41.2205 19.6642ZM50.5905 34.3821H49.8459V33.3335C49.8459 33.2047 49.7947 33.0812 49.7037 32.9902C49.6126 32.8992 49.4891 32.848 49.3603 32.848H47.5647C47.4359 32.848 47.3124 32.8992 47.2214 32.9902C47.1303 33.0812 47.0791 33.2047 47.0791 33.3335V34.3821H43.2977C43.2299 32.9917 42.6965 31.6644 41.7832 30.6135C41.6047 30.4066 41.4852 30.1557 41.4369 29.8868C41.3886 29.618 41.4133 29.3412 41.5086 29.0852C41.77 28.3739 41.8558 27.61 41.7587 26.8585C41.6616 26.1069 41.3844 25.3899 40.9508 24.7684C40.5171 24.1468 39.9398 23.6391 39.2679 23.2884C38.596 22.9376 37.8493 22.7542 37.0913 22.7537C36.3333 22.7532 35.5863 22.9356 34.914 23.2855C34.2416 23.6354 33.6636 24.1423 33.2291 24.7633C32.7947 25.3843 32.5166 26.1009 32.4185 26.8523C32.3204 27.6037 32.4051 28.3677 32.6656 29.0793C32.7363 29.2739 32.7674 29.4807 32.7571 29.6874C32.7467 29.8942 32.6952 30.0968 32.6054 30.2833C32.3378 29.0759 31.7727 27.9545 30.9614 27.0209C30.733 26.7566 30.5799 26.4359 30.5181 26.0922C30.4562 25.7485 30.4879 25.3945 30.6098 25.0673C30.9205 24.2214 31.0223 23.3129 30.9067 22.4192C30.7911 21.5255 30.4614 20.6729 29.9457 19.9338C29.4299 19.1948 28.7433 18.591 27.9443 18.174C27.1452 17.7569 26.2572 17.5388 25.3558 17.5382C24.4544 17.5376 23.5662 17.7545 22.7665 18.1705C21.9669 18.5864 21.2795 19.1892 20.7628 19.9276C20.246 20.666 19.9152 21.5182 19.7983 22.4117C19.6815 23.3053 19.7821 24.2138 20.0917 25.0602C20.2126 25.3934 20.2423 25.7529 20.1777 26.1014C20.1132 26.45 19.9567 26.775 19.7245 27.0429C18.8262 28.0897 18.237 29.3658 18.0227 30.7283C17.8084 32.0908 17.9775 33.4861 18.5111 34.758C19.0446 36.0299 19.9217 37.1283 21.044 37.9304C22.1664 38.7325 23.4899 39.2067 24.8664 39.2998V46.1814H18.4095C18.2807 46.1814 18.1571 46.2325 18.0661 46.3236C17.975 46.4146 17.9238 46.5381 17.9238 46.6669C17.9238 46.7956 17.975 46.9191 18.0661 47.0102C18.1571 47.1012 18.2807 47.1523 18.4095 47.1523H50.5905C50.7193 47.1523 50.8429 47.1012 50.9339 47.0102C51.025 46.9191 51.0762 46.7956 51.0762 46.6669C51.0762 46.5381 51.025 46.4146 50.9339 46.3236C50.8429 46.2325 50.7193 46.1814 50.5905 46.1814H49.8459V44.4336H50.5905C50.7193 44.4336 50.8429 44.3825 50.9339 44.2914C51.025 44.2004 51.0762 44.0769 51.0762 43.9481V42.1719C51.0762 42.0432 51.025 41.9197 50.9339 41.8286C50.8429 41.7376 50.7193 41.6864 50.5905 41.6864H49.8459V40.7472H50.5905C50.7193 40.7472 50.8429 40.696 50.9339 40.605C51.025 40.5139 51.0762 40.3904 51.0762 40.2617V34.8676C51.0762 34.7389 51.025 34.6154 50.9339 34.5243C50.8429 34.4333 50.7193 34.3821 50.5905 34.3821ZM48.0504 33.8177H48.8746V34.3808H48.0504V33.8177ZM32.7809 31.8861V31.6977C32.8847 31.5478 32.9964 31.4034 33.1156 31.2653C33.4105 30.9245 33.609 30.5112 33.6906 30.0681C33.7722 29.625 33.734 29.1681 33.5799 28.7447C33.3707 28.173 33.3043 27.5588 33.3866 26.9557C33.4689 26.3525 33.6973 25.7786 34.052 25.2838C34.4068 24.789 34.8771 24.3883 35.422 24.1166C35.9669 23.8449 36.57 23.7104 37.1787 23.7248C39.1776 23.7707 40.8151 25.435 40.8287 27.4345C40.832 27.8832 40.7543 28.3287 40.5995 28.7499C40.444 29.169 40.404 29.6223 40.4838 30.0622C40.5635 30.5021 40.76 30.9125 41.0528 31.2504C41.8122 32.1248 42.2604 33.2261 42.3271 34.3821H37.5737V33.6656L38.9659 32.2738C39.057 32.1828 39.1081 32.0592 39.1081 31.9304C39.1081 31.8016 39.057 31.6781 38.9659 31.587C38.8748 31.496 38.7512 31.4448 38.6224 31.4448C38.4935 31.4448 38.37 31.496 38.2788 31.587L37.5737 32.2926V28.5168C37.5737 28.3881 37.5226 28.2646 37.4315 28.1735C37.3404 28.0825 37.2169 28.0313 37.0881 28.0313C36.9593 28.0313 36.8358 28.0825 36.7447 28.1735C36.6536 28.2646 36.6025 28.3881 36.6025 28.5168V33.3646L35.8967 32.659C35.8534 32.6073 35.7999 32.5652 35.7395 32.5353C35.6791 32.5054 35.6132 32.4884 35.5458 32.4854C35.4785 32.4824 35.4113 32.4934 35.3484 32.5178C35.2856 32.5421 35.2285 32.5793 35.1809 32.6269C35.1332 32.6745 35.0959 32.7316 35.0715 32.7944C35.0471 32.8571 35.036 32.9243 35.0389 32.9916C35.0419 33.059 35.0588 33.1249 35.0887 33.1853C35.1185 33.2457 35.1606 33.2993 35.2123 33.3426L36.2483 34.3821H33.6187V33.3335C33.6187 33.2047 33.5676 33.0812 33.4765 32.9902C33.3854 32.8992 33.2619 32.848 33.1331 32.848H32.7187C32.7598 32.529 32.7806 32.2077 32.7809 31.8861ZM31.8213 33.8177H32.6475V34.3808H31.8213V33.8177ZM25.352 23.9261C25.2232 23.9261 25.0997 23.9772 25.0086 24.0683C24.9176 24.1593 24.8664 24.2828 24.8664 24.4116V30.5261L23.8369 29.4969C23.7452 29.4085 23.6225 29.3596 23.4952 29.3608C23.3679 29.3619 23.2461 29.413 23.1561 29.5031C23.0661 29.5931 23.0151 29.7149 23.014 29.8422C23.013 29.9695 23.062 30.0921 23.1505 30.1837L24.8664 31.899V35.122L23.8369 34.0928C23.7452 34.0044 23.6225 33.9555 23.4952 33.9567C23.3679 33.9578 23.2461 34.009 23.1561 34.099C23.0661 34.1891 23.0151 34.3109 23.014 34.4382C23.013 34.5655 23.062 34.6881 23.1505 34.7796L24.8664 36.495V38.3223C21.5732 38.0731 18.9301 35.2955 18.8951 31.9541C18.8778 30.3843 19.434 28.8623 20.4595 27.6734C20.8048 27.2745 21.0374 26.7906 21.133 26.2718C21.2286 25.753 21.1839 25.218 21.0034 24.7223C20.7442 24.0142 20.662 23.2535 20.7639 22.5064C20.8658 21.7594 21.1487 21.0485 21.5881 20.4356C22.0275 19.8228 22.61 19.3265 23.2849 18.99C23.9598 18.6535 24.7068 18.487 25.4608 18.5048C27.9369 18.5618 29.9642 20.6228 29.9811 23.1008C29.9857 23.6562 29.8899 24.208 29.6981 24.7294C29.5159 25.2198 29.469 25.7501 29.5622 26.2648C29.6554 26.7796 29.8852 27.2598 30.2278 27.6553C31.2475 28.8293 31.809 30.3319 31.809 31.8867C31.8084 32.2081 31.7842 32.5289 31.7364 32.8467H31.3356C31.2068 32.8467 31.0833 32.8979 30.9922 32.9889C30.9012 33.08 30.85 33.2034 30.85 33.3322V34.3808H30.0769C29.9481 34.3808 29.8246 34.432 29.7335 34.523C29.6424 34.6141 29.5913 34.7376 29.5913 34.8663V36.7565L29.5809 36.7643C28.5332 37.6724 27.2205 38.2188 25.8377 38.3223V35.2003L27.5542 33.485C27.5993 33.4399 27.6351 33.3863 27.6595 33.3274C27.6839 33.2685 27.6965 33.2053 27.6965 33.1416C27.6965 33.0778 27.6839 33.0146 27.6595 32.9557C27.6351 32.8968 27.5993 32.8433 27.5542 32.7982C27.5091 32.7531 27.4555 32.7173 27.3966 32.6929C27.3377 32.6685 27.2745 32.6559 27.2107 32.6559C27.1469 32.6559 27.0837 32.6685 27.0248 32.6929C26.9659 32.7173 26.9123 32.7531 26.8672 32.7982L25.8377 33.8274V30.6044L27.5542 28.889C27.5993 28.8439 27.6351 28.7904 27.6595 28.7315C27.6839 28.6726 27.6965 28.6094 27.6965 28.5456C27.6965 28.4819 27.6839 28.4187 27.6595 28.3598C27.6351 28.3009 27.5993 28.2473 27.5542 28.2022C27.5091 28.1571 27.4555 28.1214 27.3966 28.097C27.3377 28.0726 27.2745 28.06 27.2107 28.06C27.1469 28.06 27.0837 28.0726 27.0248 28.097C26.9659 28.1214 26.9123 28.1571 26.8672 28.2022L25.8377 29.2315V24.4116C25.8377 24.2828 25.7865 24.1593 25.6954 24.0683C25.6043 23.9772 25.4808 23.9261 25.352 23.9261ZM30.85 46.1814H25.8377V39.2965C27.1857 39.2085 28.4842 38.7544 29.5932 37.9831V40.2617C29.5932 40.3904 29.6444 40.5139 29.7354 40.605C29.8265 40.696 29.95 40.7472 30.0788 40.7472H30.8519V41.6864H30.0769C29.9481 41.6864 29.8246 41.7376 29.7335 41.8286C29.6424 41.9197 29.5913 42.0432 29.5913 42.1719V43.9481C29.5913 44.0769 29.6424 44.2004 29.7335 44.2914C29.8246 44.3825 29.9481 44.4336 30.0769 44.4336H30.85V46.1814ZM32.6475 46.1814H31.8213V44.4336H32.6475V46.1814ZM36.6025 46.1814H33.6187V44.4336H36.6025V46.1814ZM47.0791 46.1814H37.5737V44.4336H47.0791V46.1814ZM48.8746 46.1814H48.0504V44.4336H48.8746V46.1814ZM50.1049 42.6574V43.4627H30.5625V42.6574H50.1049ZM31.8213 41.6864V40.7472H32.6475V41.6864H31.8213ZM33.6187 41.6864V40.7472H36.6025V41.6864H33.6187ZM37.5737 41.6864V40.7472H47.0791V41.6864H37.5737ZM48.0504 41.6864V40.7472H48.8746V41.6864H48.0504ZM50.1049 39.7762H30.5625V38.0498H50.1049V39.7762ZM50.1049 37.0788H30.5625V35.3531H50.1049V37.0788ZM42.882 16.8432C42.9731 16.9342 43.0966 16.9854 43.2255 16.9854C43.3543 16.9854 43.4779 16.9342 43.569 16.8432C43.6601 16.7521 43.7113 16.6286 43.7113 16.4998C43.7113 16.371 43.6601 16.2474 43.569 16.1564L42.9364 15.5239C42.8913 15.4788 42.8377 15.4431 42.7788 15.4187C42.7198 15.3943 42.6567 15.3817 42.5929 15.3817C42.5291 15.3817 42.4659 15.3943 42.407 15.4187C42.348 15.4431 42.2945 15.4788 42.2494 15.5239C42.2043 15.569 42.1685 15.6226 42.1441 15.6815C42.1196 15.7404 42.1071 15.8036 42.1071 15.8673C42.1071 15.9311 42.1196 15.9943 42.1441 16.0532C42.1685 16.1121 42.2043 16.1656 42.2494 16.2107L42.882 16.8432ZM42.882 21.5148L42.2494 22.1473C42.2043 22.1924 42.1685 22.2459 42.1441 22.3048C42.1196 22.3637 42.1071 22.4269 42.1071 22.4907C42.1071 22.5544 42.1196 22.6176 42.1441 22.6765C42.1685 22.7354 42.2043 22.789 42.2494 22.8341C42.2945 22.8792 42.348 22.9149 42.407 22.9393C42.4659 22.9637 42.5291 22.9763 42.5929 22.9763C42.6567 22.9763 42.7198 22.9637 42.7788 22.9393C42.8377 22.9149 42.8913 22.8792 42.9364 22.8341L43.569 22.201C43.6574 22.1094 43.7063 21.9867 43.7051 21.8594C43.704 21.7321 43.6528 21.6104 43.5627 21.5204C43.4727 21.4305 43.3508 21.3795 43.2235 21.3784C43.0962 21.3774 42.9735 21.4264 42.882 21.5148ZM45.4202 22.9681V23.8626C45.4202 23.9914 45.4714 24.1149 45.5624 24.2059C45.6535 24.297 45.777 24.3481 45.9058 24.3481C46.0346 24.3481 46.1581 24.297 46.2492 24.2059C46.3403 24.1149 46.3915 23.9914 46.3915 23.8626V22.9681C46.3915 22.8393 46.3403 22.7158 46.2492 22.6248C46.1581 22.5337 46.0346 22.4826 45.9058 22.4826C45.777 22.4826 45.6535 22.5337 45.5624 22.6248C45.4714 22.7158 45.4202 22.8393 45.4202 22.9681Z" fill="#16377C"/>
<path d="M18.3643 49.0744C18.3643 49.0744 20.126 49.6751 21.6875 49.0744C23.249 48.4738 25.291 49.0744 25.291 49.0744C25.291 49.0744 27.0928 49.7551 28.5742 49.0744C30.0557 48.3938 31.6172 49.0744 31.6172 49.0744C31.6172 49.0744 33.6992 50.1955 35.1406 49.0744C36.582 47.9533 38.7441 49.0744 38.7441 49.0744C38.7441 49.0744 41.1064 49.9553 42.5078 49.0744C43.9092 48.1936 45.9912 49.0744 45.9912 49.0744C45.9912 49.0744 48.6738 50.596 50.876 49.0744" stroke="#16377C" stroke-linecap="round"/>
<path d="M18.3643 51.6545C18.3643 51.6545 20.126 52.2552 21.6875 51.6545C23.249 51.0538 25.291 51.6545 25.291 51.6545C25.291 51.6545 27.0928 52.3352 28.5742 51.6545C30.0557 50.9738 31.6172 51.6545 31.6172 51.6545C31.6172 51.6545 33.6992 52.7756 35.1406 51.6545C36.582 50.5334 38.7441 51.6545 38.7441 51.6545C38.7441 51.6545 41.1064 52.5353 42.5078 51.6545C43.9092 50.7737 45.9912 51.6545 45.9912 51.6545C45.9912 51.6545 48.6738 53.176 50.876 51.6545" stroke="#16377C" stroke-linecap="round"/>
</svg>
