<svg width="70" height="70" viewBox="0 0 70 70" fill="none" xmlns="http://www.w3.org/2000/svg">
<circle cx="35" cy="35" r="35" fill="white" fill-opacity="0.19"/>
<g clip-path="url(#clip0_143_277)">
<path d="M32.1421 51.2922H36.9024V29.0904C36.9024 27.7735 35.8324 26.6963 34.5242 26.6963C33.2161 26.6963 32.1461 27.7735 32.1461 29.0904V51.2922H32.1421Z" stroke="white" stroke-width="1.73284" stroke-miterlimit="22.9256" stroke-linecap="round" stroke-linejoin="round"/>
<path d="M19.9932 24.1474C19.9932 20.5948 22.8558 17.7129 26.3846 17.7129C29.9175 17.7129 32.7761 20.5948 32.7761 24.1474C32.7761 27.7 32.7761 27.4805 32.7761 27.4805" stroke="white" stroke-width="1.73284" stroke-miterlimit="22.9256" stroke-linecap="round" stroke-linejoin="round"/>
<path d="M49.0151 24.1474C49.0151 20.5948 46.1525 17.7129 42.6236 17.7129C39.0948 17.7129 36.2322 20.5948 36.2322 24.1474C36.2322 27.7 36.2322 27.4805 36.2322 27.4805" stroke="white" stroke-width="1.73284" stroke-miterlimit="22.9256" stroke-linecap="round" stroke-linejoin="round"/>
<path d="M43.5039 29.6837H54.5305C54.5305 26.6392 52.0555 24.1475 49.0313 24.1475H49.0031C45.9789 24.1475 43.5039 26.6392 43.5039 29.6837Z" stroke="white" stroke-width="1.73284" stroke-miterlimit="22.9256" stroke-linecap="round" stroke-linejoin="round"/>
<path d="M28.6013 51.292H40.4394" stroke="white" stroke-width="1.73284" stroke-miterlimit="22.9256" stroke-linecap="round" stroke-linejoin="round"/>
<path d="M52.0069 30.0293C52.0069 31.6918 50.6664 33.0413 49.015 33.0413C47.3637 33.0413 46.0232 31.6918 46.0232 30.0293" stroke="white" stroke-width="1.73284" stroke-miterlimit="22.9256" stroke-linecap="round" stroke-linejoin="round"/>
<path d="M49.0151 36.1504V38.6218" stroke="white" stroke-width="1.73284" stroke-miterlimit="22.9256" stroke-linecap="round" stroke-linejoin="round"/>
<path d="M44.4728 34.2568L42.7407 36.0047" stroke="white" stroke-width="1.73284" stroke-miterlimit="22.9256" stroke-linecap="round" stroke-linejoin="round"/>
<path d="M53.5574 34.2568L55.2935 36.0006" stroke="white" stroke-width="1.73284" stroke-miterlimit="22.9256" stroke-linecap="round" stroke-linejoin="round"/>
<path d="M14.4697 29.6837H25.4963C25.4963 26.6392 23.0213 24.1475 19.9971 24.1475H19.9689C16.9447 24.1475 14.4697 26.6392 14.4697 29.6837Z" stroke="white" stroke-width="1.73284" stroke-miterlimit="22.9256" stroke-linecap="round" stroke-linejoin="round"/>
<path d="M22.9729 30.0293C22.9729 31.6918 21.6325 33.0413 19.9811 33.0413C18.3297 33.0413 16.9893 31.6918 16.9893 30.0293" stroke="white" stroke-width="1.73284" stroke-miterlimit="22.9256" stroke-linecap="round" stroke-linejoin="round"/>
<path d="M19.981 36.1504V38.6218" stroke="white" stroke-width="1.73284" stroke-miterlimit="22.9256" stroke-linecap="round" stroke-linejoin="round"/>
<path d="M15.4388 34.2568L13.7026 36.0047" stroke="white" stroke-width="1.73284" stroke-miterlimit="22.9256" stroke-linecap="round" stroke-linejoin="round"/>
<path d="M24.5232 34.2568L26.2593 36.0006" stroke="white" stroke-width="1.73284" stroke-miterlimit="22.9256" stroke-linecap="round" stroke-linejoin="round"/>
</g>
<defs>
<clipPath id="clip0_143_277">
<rect width="43" height="35" fill="white" transform="translate(13 17)"/>
</clipPath>
</defs>
</svg>
