<svg width="70" height="70" viewBox="0 0 70 70" fill="none" xmlns="http://www.w3.org/2000/svg">
<circle cx="35" cy="35" r="35" fill="white" fill-opacity="0.19"/>
<g clip-path="url(#clip0_143_279)">
<path fill-rule="evenodd" clip-rule="evenodd" d="M20.4896 20.1159L49.4828 20.102L44.5578 30.021L25.4145 30.0349L20.4896 20.1159ZM19 19.5491V50.4466C19 50.7818 19.2177 50.9995 19.553 50.9995C20.2027 50.9995 20.106 50.3982 20.106 49.7588V22.034C20.1716 22.1066 20.106 22.0098 20.1924 22.1515C20.2338 22.2172 20.22 22.1964 20.2684 22.2828C20.3341 22.4073 20.3652 22.4833 20.4274 22.6077L23.8074 29.3678C24.7095 31.1719 24.5194 30.4047 24.5194 32.3781V45.2728C24.5194 45.926 24.4019 46.5827 25.0724 46.5827C25.4076 46.5827 25.6253 46.3649 25.6253 46.0297V31.1339H44.3816V46.0297C44.3816 46.3649 44.5993 46.5827 44.9345 46.5827C45.5843 46.5827 45.4875 45.9813 45.4875 45.3419V32.3781C45.4875 30.3839 45.2905 31.1892 46.1787 29.4128C46.4172 28.9358 49.6971 22.269 49.9044 22.034V49.6897C49.9044 50.3429 49.7869 50.9995 50.4574 50.9995C50.7926 50.9995 51.0104 50.7818 51.0104 50.4466V19.5491C51.0104 19.2138 50.7926 18.9961 50.4574 18.9961H19.5599C19.2246 18.9961 19.0069 19.2138 19.0069 19.5491H19Z" fill="white"/>
<path fill-rule="evenodd" clip-rule="evenodd" d="M43.0683 27.826H35.5513V25.621H44.309C44.1086 26.0012 43.9357 26.3675 43.7353 26.7719C43.559 27.1244 43.2964 27.8294 43.0683 27.8294V27.826ZM25.691 25.621H34.4488V27.826H26.9318C26.7002 27.826 26.4514 27.1382 26.2647 26.7684C26.0643 26.3641 25.8915 25.9977 25.691 25.6175V25.621ZM44.7237 24.5185H35.5513V22.3101H45.9645L45.1143 24.0105C45.0244 24.1971 44.9415 24.515 44.7237 24.515V24.5185ZM24.0355 22.3101H34.4488V24.5185H25.2763C25.062 24.5185 24.9998 24.2524 24.9065 24.0588L24.0321 22.3101H24.0355ZM22.5874 21.6188C22.5874 22.2271 23.0955 22.9771 23.4376 23.6648L25.7359 28.2615C25.8915 28.5794 26.009 28.9285 26.4479 28.9285H43.6904C43.9738 28.9285 44.1742 28.4481 44.2883 28.2165L45.6431 25.5035C45.9541 24.8779 46.2271 24.3353 46.5382 23.7098C46.8838 23.0186 47.4126 22.2271 47.4126 21.6188C47.4126 21.4529 47.1637 21.2041 46.9979 21.2041H22.9987C22.8328 21.2041 22.584 21.4529 22.584 21.6188H22.5874Z" fill="white"/>
</g>
<defs>
<clipPath id="clip0_143_279">
<rect width="32" height="32" fill="white" transform="translate(19 19)"/>
</clipPath>
</defs>
</svg>
