<svg width="50" height="50" viewBox="0 0 50 50" fill="none" xmlns="http://www.w3.org/2000/svg">
<g clip-path="url(#clip0_145_301)">
<path fill-rule="evenodd" clip-rule="evenodd" d="M1.44612 44.1047C1.44612 43.2678 1.65775 42.8542 2.50428 42.8542H46.6489C47.9668 42.8542 47.707 44.0181 47.707 45.6342H1.45574V44.0951L1.44612 44.1047ZM49.1403 14.6493V17.1024C49.0634 18.6415 48.6786 19.9786 47.0914 20.9406C46.6104 21.2292 46.2833 21.3254 45.6869 21.4601C45.6869 27.6359 45.7927 34.5428 45.6773 40.6609C45.6484 42.2481 46.5527 40.911 47.8898 41.6132C48.4766 41.9211 49.1403 42.6521 49.1403 43.5275V45.9517C49.0345 46.7213 48.6786 47.1734 47.6012 47.1734H1.54232C0.734267 47.1734 0.00317383 46.7886 0.00317383 46.019V43.6237C0.0897507 42.7387 0.39758 42.0172 1.31145 41.5747C1.76357 41.3631 2.17721 41.4112 2.79287 41.4208C3.60092 41.4304 3.47587 41.3631 3.45663 40.5551C3.35081 34.4754 3.45663 27.5974 3.45663 21.4601C0.541874 20.7771 0.0705114 18.805 0.00317383 16.6599V14.6493C0.00317383 14.2838 2.39847 9.67599 2.75439 8.95451C3.0526 8.36771 3.27386 8.19456 3.27386 7.35765C3.26424 5.94356 3.04298 4.2505 3.71636 3.57713C4.52441 2.7787 6.3329 3.02881 7.87205 3.02881C9.34385 3.02881 9.16108 4.56795 8.16064 4.56795H4.80338V7.34803H44.3401V4.56795H11.6141C10.6521 4.56795 10.3828 3.02881 11.9027 3.02881H43.9554C46.3891 3.02881 45.86 5.25095 45.8697 7.44423C45.8793 8.79098 49.1403 13.697 49.1403 14.6397V14.6493ZM15.462 41.4208H7.68927V25.5869H15.7505V41.1322C15.7505 41.3535 15.6832 41.4208 15.462 41.4208ZM6.15013 25.2983V41.4208H4.89958V21.4601C5.71725 21.2677 7.26601 20.5847 7.48726 19.7285C7.74699 19.9017 7.84319 20.1518 8.08368 20.3827C10.5944 22.7587 13.9998 20.8636 14.298 19.7285C14.6443 19.9594 14.7501 20.4404 15.6736 20.9502C16.9434 21.6428 18.5018 21.7775 19.7908 20.9983C20.3487 20.6616 20.8105 20.2961 21.1087 19.7285C21.3492 19.9017 23.3693 22.7587 26.5919 20.9887C27.1594 20.6809 27.6212 20.2865 27.9194 19.7285C28.2849 19.9979 30.0742 22.7202 33.393 20.9791C33.6527 20.8444 33.9605 20.6231 34.1818 20.4211C34.4992 20.1422 34.5185 19.9305 34.8263 19.7285C35.0957 20.7386 38.3182 22.7972 40.9925 20.4211C41.31 20.1422 41.3292 19.9305 41.637 19.7285C41.8679 20.5847 43.4263 21.2677 44.2247 21.4601V41.4208H17.1646V25.2983C17.1646 24.7115 16.5009 24.0477 15.9141 24.0477H7.37183C6.78503 24.0477 6.12127 24.7019 6.12127 25.2983H6.15013ZM42.3296 17.3332V15.3227H47.6108C47.6108 16.7368 47.8609 18.4299 46.8028 19.3149C45.8985 20.0652 44.9366 20.2384 43.8303 19.767C43.4167 19.5938 43.3589 19.4784 43.0703 19.1898C42.6278 18.7473 42.3296 18.1798 42.3296 17.3428V17.3332ZM4.33202 20.0171C3.42777 20.0171 2.94679 19.8055 2.35037 19.3053C1.29221 18.4202 1.54232 16.7272 1.54232 15.3131H6.82351C6.82351 16.9196 7.07362 18.9493 5.39018 19.7285C5.14969 19.844 4.68794 20.0171 4.33202 20.0171ZM35.5189 17.1408V15.3131H40.8001V17.6122C40.8001 19.5938 37.9719 21.0176 36.2115 19.1225C35.7787 18.6511 35.5189 18.0066 35.5189 17.1312V17.1408ZM11.1427 20.0171C9.47853 20.0171 8.36265 18.8435 8.36265 17.6218V15.3227H13.6438C13.6438 16.9196 13.8651 18.9782 12.2105 19.7381C11.97 19.8536 11.5083 20.0267 11.1523 20.0267L11.1427 20.0171ZM21.8879 16.8522V15.3131H27.2653C27.2653 16.6118 27.4192 17.997 26.6496 19.0167C25.6588 20.3346 23.5521 20.3442 22.542 19.0744C22.0995 18.5164 21.8879 17.8334 21.8879 16.8522ZM31.5749 20.0171C28.4292 20.0171 28.6986 17.2178 28.6986 15.3131H33.7874C34.201 15.3131 34.076 15.7171 34.076 16.6599C34.076 17.6892 33.9317 18.3625 33.4988 18.9686C33.1813 19.4207 32.3444 20.0171 31.5749 20.0171ZM15.0675 16.6599C15.0675 15.7267 14.9329 15.3131 15.3561 15.3131H20.4449C20.4449 16.6118 20.6085 18.1605 19.8004 19.084C18.4248 20.6616 15.0675 20.5077 15.0675 16.6599ZM22.3592 8.88717H26.7747L27.1594 13.8798H21.9745L22.3592 8.88717ZM28.3042 8.88717H32.8158C32.8158 9.2431 33.7681 13.6585 33.874 13.8798H28.689L28.3042 8.88717ZM20.4353 13.8798H15.2503C15.3561 13.6681 16.3085 9.25272 16.3085 8.88717H20.8201L20.4353 13.8798ZM34.3453 8.88717H38.7607C38.7992 9.30082 39.7804 11.8308 40.0402 12.5907C40.2037 13.0717 40.3672 13.3796 40.4827 13.8702H35.3939C35.2784 13.62 34.3357 9.28158 34.3357 8.87755L34.3453 8.88717ZM8.632 13.8798L9.50739 11.3979C9.67092 10.9458 10.3251 9.2912 10.3635 8.88717H14.779C14.779 9.32968 14.4326 10.7149 14.3268 11.2151C13.6631 14.2934 14.019 13.899 12.8646 13.8798H8.64162H8.632ZM40.2999 8.88717H44.7153L47.1491 13.8605L42.1276 13.8798C41.7044 13.0044 40.7232 9.77218 40.2999 8.88717ZM7.00628 13.8798H2.01368L4.44745 8.90641L8.82439 8.88717C8.34341 9.88762 7.53536 12.7735 6.99666 13.8798H7.00628Z" fill="#16377C"/>
</g>
<defs>
<clipPath id="clip0_145_301">
<rect width="49.1339" height="44.1831" fill="white" transform="translate(0 3)"/>
</clipPath>
</defs>
</svg>
