<svg width="50" height="50" viewBox="0 0 50 50" fill="none" xmlns="http://www.w3.org/2000/svg">
<g clip-path="url(#clip0_143_57)">
<path fill-rule="evenodd" clip-rule="evenodd" d="M20.0484 23.907L22.5313 26.3558L20.6604 26.9965L19.4539 25.7414C19.5588 25.4956 19.6375 25.1709 19.7599 24.8549C19.8823 24.5477 20.0222 24.2668 20.0484 23.907ZM23.7378 25.6712C23.3444 25.0831 20.9664 23.0731 20.8352 22.5816C21.1849 22.0638 23.563 20.0451 23.563 19.6676C23.563 19.0708 23.3706 18.8777 22.7761 18.8777C22.4002 18.8777 21.0538 20.3874 20.7303 20.7121C20.0746 21.3704 19.314 21.9058 19.008 22.8625L17.4955 27.1633C17.4256 27.3827 17.3294 27.6723 17.2594 27.8918C17.1633 28.1726 17.0409 28.4184 16.9797 28.6729C16.4201 28.6729 15.8693 28.6729 15.3098 28.6729C14.9601 28.6729 14.4618 28.6027 14.2607 28.945C14.0858 29.2434 14.0683 29.9982 14.7852 29.9982H33.2412C33.7658 29.9982 34.0543 28.9801 33.3724 28.7168C33.0576 28.5939 20.6866 28.6729 20.232 28.6729C20.4943 28.4447 21.2374 28.2779 21.692 28.1024C24.4373 27.0404 23.5805 27.8215 25.5738 25.8204L35.8553 15.4985C36.2138 15.1387 36.511 14.8403 36.8695 14.4804C37.0793 14.2697 37.7088 13.4886 37.9885 13.4886H43.5227V27.5143C43.5227 27.8303 39.0114 32.175 38.7142 32.4734L35.0247 36.1773C34.7187 36.4845 33.9494 37.0638 33.9494 37.5641C33.9494 38.038 34.3341 38.2662 34.7013 38.2136C35.1909 38.1346 36.7908 36.3441 37.1842 35.9579C37.9623 35.1767 46.2767 26.7332 46.6963 26.4523V32.1837H45.3762C44.8166 32.1837 44.1959 33.5968 45.9007 33.5968H46.6876V35.5366H45.4549C44.5718 35.5366 44.5806 36.8619 45.4549 36.8619H46.6876V38.8016H45.7171C44.3882 38.8016 44.6243 40.2147 45.5423 40.2147H46.6876V42.1545C46.0231 42.1545 44.5806 41.9614 44.7992 42.9883C44.9478 43.6992 45.9357 43.5676 46.6876 43.5676V46.6571H26.5617C26.824 46.2709 31.7462 41.4084 32.603 40.5483C32.8653 40.285 33.3286 39.9778 33.3286 39.5126C33.3286 39.1352 33.0576 38.8104 32.7167 38.8104C31.9298 38.8104 29.9102 41.7244 29.3769 41.7244H8.46423C6.54082 41.7244 5.22066 40.9169 4.60867 39.3283C3.97045 37.6782 4.78352 35.8964 6.10368 35.0275C6.52333 34.7554 7.02167 34.5448 7.63366 34.4394C9.2161 34.1674 8.90137 34.9134 8.90137 29.0064C8.90137 28.6466 8.60411 28.2165 8.28937 28.2165C7.31893 28.2165 7.50252 29.2785 7.50252 30.244C7.50252 31.1831 7.50252 32.1223 7.50252 33.0702C6.40094 33.3248 5.8414 33.4915 4.99335 34.1673C4.72232 34.378 4.60867 34.5711 4.34639 34.7466V11.1012C4.34639 9.70568 4.46878 8.68754 5.08078 7.87127C5.57037 7.22177 6.51459 6.42305 7.51127 6.33528V24.7759C7.51127 26.505 7.38887 26.8912 8.39429 26.8912C8.6828 26.8912 8.91885 26.505 8.91885 26.189V13.4798H27.8994C27.3311 14.3312 24.2099 16.8239 24.2099 17.5348C24.2099 18.0351 24.5334 18.237 25.0055 18.237C25.2678 18.237 27.0951 16.2709 27.4011 15.9637L32.0609 11.2855C32.6205 10.7238 33.8707 9.33704 34.4127 8.9684C34.7887 9.07373 37.2454 11.6454 37.4028 11.8824C37.2979 12.2861 34.439 14.9982 34.0893 15.3493C33.2587 16.1831 24.2187 25.3552 23.7815 25.6536L23.7378 25.6712ZM35.4007 7.95904L36.4935 6.80925L39.571 9.85489L38.4257 10.952L35.4007 7.95026V7.95904ZM37.5077 5.84377C37.7437 5.50146 38.8453 4.32534 39.2912 4.32534C39.7633 4.32534 40.4977 5.22937 40.8037 5.53657C41.1097 5.84377 42.0102 6.58104 42.0102 7.055C42.0102 7.50263 40.8387 8.59977 40.5152 8.81919L37.5077 5.84377ZM29.1846 12.0843H8.88388V5.6419C8.88388 3.64073 3 5.6419 3 9.78467V38.1083C3 40.206 4.2065 41.7771 5.95505 42.6372C6.97796 43.1375 7.8872 43.0497 9.32976 43.0497C15.5983 43.0497 21.8669 43.0497 28.1354 43.0497C27.4535 44.0767 24.1837 46.6571 24.1837 47.3768C24.1837 47.7542 24.5334 47.9912 24.7083 47.9912H47.3783C47.8067 47.9912 47.9903 47.6314 47.9903 47.4646V24.7934C47.9903 24.416 47.7192 24.0913 47.3783 24.0913C46.6963 24.0913 45.7434 25.6536 44.9216 26.2066V13.8572C44.9216 12.9181 45.0702 12.2071 44.2134 12.1018C43.0331 11.9526 40.6114 12.093 39.3 12.093C40.0693 10.9345 43.0681 8.79286 43.3216 7.57285C43.6101 6.22118 42.7009 5.49269 42.0015 4.79052C41.0048 3.78994 40.5414 3 39.1251 3C38.0847 3 36.9831 4.40433 36.3799 5.00995L30.4435 10.9696C30.2162 11.1978 29.4731 12.093 29.1933 12.093L29.1846 12.0843Z" fill="#16377C"/>
</g>
<defs>
<clipPath id="clip0_143_57">
<rect width="45" height="45" fill="white" transform="translate(2 2)"/>
</clipPath>
</defs>
</svg>
