<svg width="50" height="50" viewBox="0 0 50 50" fill="none" xmlns="http://www.w3.org/2000/svg">
<path fill-rule="evenodd" clip-rule="evenodd" d="M13.8389 45.243H35.1593C35.5442 45.243 35.6405 46.0766 35.9705 46.71H13.0277C13.3485 46.0952 13.4585 45.243 13.8389 45.243ZM14.7418 42.3974H34.2518C34.2701 42.6443 34.6826 43.6316 34.7926 43.8644H14.1964C14.3064 43.6316 14.7189 42.6396 14.7372 42.3974H14.7418ZM15.915 39.5519H33.0785C33.1931 40.0456 33.5094 40.5299 33.6193 41.0189H15.3742C15.4888 40.5253 15.805 40.0409 15.915 39.5519ZM17.2716 36.7995H31.7266C32.0611 36.7995 32.3728 37.8521 32.4507 38.1781H16.5521C16.63 37.8381 16.9233 36.7995 17.2762 36.7995H17.2716ZM13.3898 34.5967V19.6333C13.3898 18.4597 13.9489 16.4757 14.5126 15.4512C14.8426 14.8504 15.1405 14.3614 15.5301 13.8258C15.7592 13.5138 15.9013 13.402 16.1121 13.1319C16.3596 12.8199 16.4375 12.6848 16.7675 12.424C17.8216 11.595 18.454 10.9384 19.9298 10.3097C23.9125 8.6191 28.0693 9.18262 31.4928 11.7906C32.6936 12.7081 33.8302 14.1611 34.5176 15.507L35.2463 17.4304C35.4251 18.129 35.6084 18.9394 35.6084 19.8196V34.5967C35.6084 34.9693 35.0951 35.421 34.4351 35.421H14.563C13.8985 35.421 13.3898 34.9693 13.3898 34.5967ZM12.0332 20.1828V34.5036C12.0332 35.286 12.6427 36.0358 13.1194 36.3385C13.7977 36.7716 14.5584 36.7995 15.6492 36.7995C15.4705 37.1768 15.3147 37.6052 15.1451 38.0337L12.6427 44.2091C12.4594 44.6795 11.7032 46.384 11.6757 46.7146C10.0671 46.7146 8.39425 46.7612 6.79476 46.7193C5.79108 46.6913 4.85613 46.2675 4.48491 45.3967C4.36575 45.1172 4.2695 44.6888 4.2695 44.3302V22.5766C4.2695 17.4398 5.86899 13.4393 8.95338 9.52725C9.15962 9.26645 9.34752 9.14071 9.56293 8.86128C10.0716 8.19065 10.8278 7.62713 11.4741 7.04033C12.1157 6.45819 12.9498 5.9133 13.6831 5.42895C16.8546 3.34721 20.6447 2.44372 24.4166 2.28537L26.6989 2.44372C30.622 2.99792 34.3801 4.30658 37.3912 6.90527C40.0494 9.20125 40.6772 10.156 42.4967 13.1924C43.9312 15.5862 44.7378 19.7916 44.7378 22.4835V44.3302C44.7378 45.8018 43.725 46.682 42.2126 46.7193C40.6131 46.7612 38.9403 46.7146 37.3316 46.7146C37.2995 46.3234 34.2472 39.0117 33.8622 38.0337C33.6927 37.6052 33.5369 37.1814 33.3581 36.7995C34.3297 36.7995 35.2188 36.7902 35.8375 36.3804C36.3508 36.0451 36.9696 35.3046 36.9696 34.5036V20.0897C36.9696 11.5904 27.5239 5.37773 19.5036 9.04291C18.0461 9.70888 16.8546 10.4587 15.8096 11.5298C15.2367 12.1166 14.8609 12.4985 14.3614 13.1785C13.0185 14.9994 12.0378 17.6167 12.0378 20.1828H12.0332ZM3 21.2866V44.7866C3 46.4166 4.68656 48 6.25396 48H42.7488C44.4124 48 46.0027 46.2443 46.0027 44.8797V21.2866C46.0027 17.831 44.5499 13.9888 43.0375 11.446C42.6938 10.8639 42.3913 10.4307 42.0247 9.90448C40.8331 8.17668 38.6149 6.02507 36.8779 4.85612C33.6285 2.66726 29.4442 1 25.4065 1C21.1901 1 19.2836 1.33532 15.4155 2.96532C13.4585 3.78964 10.8324 5.66181 9.39335 7.12416C7.45472 9.09879 6.36396 10.5053 5.1082 13.0527C3.96702 15.372 3 18.5062 3 21.2819L3 21.2866Z" fill="#16377C"/>
<path fill-rule="evenodd" clip-rule="evenodd" d="M17.3632 23.2147V19.6333C17.3632 18.795 17.7802 18.157 18.2523 17.7798C18.7793 17.356 19.4255 17.1511 20.3467 17.1511H28.6558C29.577 17.1511 30.2232 17.356 30.7503 17.7798C31.2177 18.157 31.6394 18.795 31.6394 19.6333V23.2147C31.6394 24.379 30.5257 25.5107 29.2012 25.5107H19.8059C19.1414 25.5107 18.4723 25.1753 18.1148 24.8447C17.7986 24.5559 17.3678 23.8015 17.3678 23.2147H17.3632ZM16.0066 20.0012C16.0066 22.2739 15.7133 24.2206 17.1111 25.6737C17.7986 26.3862 18.7106 26.8892 20.0718 26.8892H28.9262C31.4515 26.8892 32.9914 25.1008 32.9914 22.5766C32.9914 20.2015 33.2938 18.7438 31.9877 17.1697C31.4056 16.4711 30.3515 15.875 29.3799 15.875H19.6226C18.1056 15.875 16.882 17.0113 16.3091 18.2921C16.1166 18.7252 16.0112 19.4098 16.0112 20.0059L16.0066 20.0012Z" fill="#16377C"/>
<path fill-rule="evenodd" clip-rule="evenodd" d="M22.2394 12.2889H26.7583V13.4811H22.2394V12.2889ZM20.8829 12.4705C20.8829 13.2855 20.7683 14.855 22.3265 14.855H26.6621C28.2982 14.855 28.5411 12.261 27.5924 11.3389C27.2854 11.0408 26.8592 10.9104 26.3 10.9104H22.6886C21.7032 10.9104 20.8829 11.4832 20.8829 12.4705Z" fill="#16377C"/>
<path fill-rule="evenodd" clip-rule="evenodd" d="M17.3632 32.1191C17.3632 29.3108 16.9186 29.7346 19.6226 29.7346C19.8655 29.7346 19.8701 29.7765 20.0763 29.8278V32.3985C19.3476 32.5708 18.4906 32.4917 17.7298 32.4917C17.519 32.4917 17.3678 32.338 17.3678 32.1237L17.3632 32.1191ZM16.0066 30.2842C16.0066 31.4205 15.7041 33.7724 17.5419 33.7724H20.0718C20.7638 33.7724 21.4283 32.9527 21.4283 32.2122C21.4283 30.7965 21.795 28.4492 19.893 28.4492C18.0873 28.4492 16.0112 28.0348 16.0112 30.2842H16.0066Z" fill="#16377C"/>
<path fill-rule="evenodd" clip-rule="evenodd" d="M31.2727 32.487C28.3487 32.487 28.9262 33.0319 28.9262 29.8232C29.2791 29.7393 31.6347 29.4552 31.6347 30.0979C31.6347 31.3134 31.8456 32.4824 31.2727 32.4824V32.487ZM27.5696 30.0094V32.2123C27.5696 32.9528 28.2341 33.7724 28.9262 33.7724C30.8648 33.7724 32.9913 34.2521 32.9913 31.9375C32.9913 28.2164 32.7943 28.4493 29.1095 28.4493C28.2845 28.4493 27.5742 29.1712 27.5742 30.0094H27.5696Z" fill="#16377C"/>
<path fill-rule="evenodd" clip-rule="evenodd" d="M22.1525 23.6711C22.1525 24.0623 22.2808 24.4954 22.7849 24.4954C23.0828 24.4954 24.939 22.6279 25.3377 22.2227C25.7135 21.8408 27.6659 20.0292 27.6659 19.6286C27.6659 19.2235 27.313 18.986 26.8547 18.986C26.6943 18.986 25.2644 20.3691 25.026 20.616C24.5906 21.0631 22.157 23.3916 22.157 23.6664L22.1525 23.6711Z" fill="#16377C"/>
<path fill-rule="evenodd" clip-rule="evenodd" d="M22.3312 32.2076C22.3312 32.7944 22.5832 33.032 23.234 33.032H25.7639C27.1205 33.032 26.7172 31.6534 26.1259 31.6534H22.872C22.6566 31.6534 22.3312 31.9841 22.3312 32.203V32.2076Z" fill="#16377C"/>
<path fill-rule="evenodd" clip-rule="evenodd" d="M22.3312 29.9162C22.3312 30.3447 22.542 30.5589 22.9636 30.5589H26.0343C26.9005 30.5589 26.9005 29.2736 26.0343 29.2736H22.9636C22.542 29.2736 22.3312 29.4878 22.3312 29.9162Z" fill="#16377C"/>
<path fill-rule="evenodd" clip-rule="evenodd" d="M21.9691 21.1049C22.5558 21.1049 23.0828 20.1875 23.7794 19.6379C24.6319 18.9626 24.0819 18.2594 23.5961 18.2594C23.037 18.2594 21.4146 20.1269 21.3733 20.3132C21.2863 20.6904 21.6025 21.1049 21.9691 21.1049Z" fill="#16377C"/>
</svg>
