<svg width="50" height="50" viewBox="0 0 50 50" fill="none" xmlns="http://www.w3.org/2000/svg">
<path fill-rule="evenodd" clip-rule="evenodd" d="M43.1515 23.3112C43.1515 22.9946 44.6006 21.9328 44.8561 21.7964C45.2884 22.0204 45.7747 22.4832 46.2316 22.8339C46.4281 22.9848 46.6491 23.0482 46.6491 23.3063V34.1729H43.1466V23.3063L43.1515 23.3112ZM30.6641 31.9518H34.26C34.4516 32.3512 34.6137 33.7978 34.8003 34.1777H30.217C30.217 33.754 30.5462 32.4535 30.6641 31.9518ZM18.2651 23.3112C18.2651 23.0336 18.7514 22.7511 19.056 22.488C19.2967 22.2786 19.7634 21.8743 20.063 21.7964C20.3725 22.001 20.5887 22.1763 20.8834 22.4101C21.2076 22.6682 21.4876 22.9702 21.7677 23.0433V34.1777H18.2651V23.3112ZM6.40648 33.111H16.7373C16.7373 35.1762 14.3941 37.3875 11.9772 37.3875C9.57009 37.3875 8.21917 36.7105 7.01562 34.8255C6.82895 34.5333 6.77983 34.3677 6.66193 34.017C6.58824 33.8027 6.48999 33.2913 6.40648 33.111ZM26.1741 34.1777H23.207V31.9518H26.6211C26.5622 32.6678 26.2331 33.4423 26.1741 34.1777ZM38.3029 31.9518H41.717V34.1777H38.7499C38.745 33.9245 38.3717 32.1077 38.3029 31.9518ZM26.7145 42.643H25.8155C25.8155 42.1365 26.7882 37.9671 26.9159 37.3193C27.0878 36.467 27.299 35.5951 27.4857 34.6745L28.0605 31.9518H29.2296L27.0436 42.078C26.9748 42.4092 27.0485 42.643 26.7145 42.643ZM35.6993 31.9518H36.8685L39.2019 42.643H38.0327C37.625 40.8944 37.2222 39.0484 36.8734 37.2901C36.6916 36.3842 36.4853 35.561 36.3035 34.6502C36.2102 34.1826 35.8565 32.283 35.6993 31.9567V31.9518ZM8.29777 23.3112C8.29777 22.9556 9.84027 21.9279 10.0957 21.7964C10.5329 22.0253 11.2993 22.7413 11.8937 23.131V28.742C11.8888 29.3898 11.9035 29.9889 12.5225 29.9889C13.1955 29.9889 13.2495 29.5165 13.2446 28.8346L13.2397 23.131C13.8292 22.7413 14.6053 22.0204 15.0376 21.7964C15.3029 21.9376 16.8356 22.9605 16.8356 23.3112V31.6839H8.30268V23.3112H8.29777ZM4.97205 32.3074C4.97205 32.9698 5.11451 33.6322 5.24224 34.1777H3.35586V23.3112C3.35586 23.0823 3.84711 22.7511 4.16642 22.5075C5.40926 21.5529 4.85907 21.6064 6.46543 22.8095C6.62754 22.9313 6.86334 23.0823 6.86334 23.3063V31.6791C6.48017 31.6791 4.97697 31.5768 4.97697 32.3025L4.97205 32.3074ZM23.2119 30.2568C23.2119 29.0099 22.9859 27.763 23.5705 27.763H41.3584C41.943 27.763 41.717 29.0099 41.717 30.2568C41.717 30.4663 41.5697 30.6124 41.3584 30.6124H23.7474C23.4723 30.6124 23.207 30.5296 23.207 30.2568H23.2119ZM38.126 23.3063C38.126 23.0433 38.3275 22.9946 38.4945 22.8679C38.6517 22.751 38.7843 22.639 38.9464 22.5124C39.2756 22.2542 39.5507 21.9815 39.924 21.7867C40.1794 21.923 41.7219 22.9556 41.7219 23.3014V26.331H38.126V23.3014V23.3063ZM33.1841 23.3063C33.1841 23.053 33.3905 22.9702 33.5378 22.8582C33.7049 22.7364 33.8228 22.6342 33.9898 22.5075C34.3828 22.2055 34.4958 22.0497 34.9772 21.7964C35.2081 21.9182 36.7751 23.0189 36.7751 23.3112V26.3408H33.1792V23.3112L33.1841 23.3063ZM28.2422 23.0384C28.5566 22.9556 28.4436 22.9556 28.6794 22.7608L29.9468 21.7915C30.3546 21.8987 30.9588 22.5173 31.3469 22.8095C31.509 22.9313 31.7448 23.0823 31.7448 23.3063V26.3359H28.2422V23.0384ZM23.2119 23.3063C23.2119 22.9654 24.7495 21.9279 25.0099 21.7915C25.2653 21.9279 26.8078 22.9751 26.8078 23.3063V26.3359H23.2119V23.3063ZM27.4366 13.7743C27.4366 12.5323 28.0212 12.0258 28.758 11.1636L31.7497 7.53983V15.2015H27.4366V13.7743ZM6.86334 15.8249C5.70892 15.7275 4.52502 14.3393 4.52502 12.9755V7.36448C4.52502 5.83021 5.93489 4.42258 7.22195 4.42258C8.29286 4.42258 8.91182 4.43232 9.80588 5.3334C10.2431 5.77663 10.6361 6.42931 10.6361 7.27194V13.0632C10.6361 13.8084 10.2775 14.427 9.93361 14.8605C9.58974 15.294 8.89217 15.7762 8.30268 15.8249L8.30759 10.209C8.31251 9.52221 8.25847 9.05462 7.58547 9.05462C6.58333 9.05462 6.86825 10.6376 6.86825 12.0842C6.86825 13.3311 6.86825 14.578 6.86825 15.8249H6.86334ZM35.434 7.98793L39.3149 10.019C41.2012 11.1588 43.2006 11.5776 43.8392 13.3701C44.0259 13.8864 43.9669 14.5488 43.9669 15.2015H38.9366C38.9366 13.0535 38.9022 12.128 37.8362 10.9493L35.434 7.98793ZM29.5047 7.98793C29.2738 8.42143 27.6036 10.36 27.1566 10.9152C25.9334 12.4349 26.0906 12.6297 26.0906 15.2015C25.2211 15.2015 24.3516 15.2015 23.487 15.2015C23.0007 15.2015 21.2273 15.4158 21.0111 15.0699C20.7017 14.5683 21.2027 13.1168 21.3255 12.8781C21.8463 11.8699 24.0126 10.8422 25.1621 10.2674C25.5207 10.0872 25.6976 9.97031 26.0316 9.79497L29.5047 7.98306V7.98793ZM3.09059 7.98793V12.3521C3.09059 13.9205 3.40008 14.7241 4.09273 15.6349C4.56923 16.2681 5.8219 17.2277 6.86825 17.252V21.3483C5.92998 20.7248 6.14121 20.4569 4.89345 20.4569C4.32853 20.4569 3.69973 21.1096 3.32639 21.397C3.02673 21.6308 2.01477 22.3711 2.01477 22.6829V34.9765C2.01477 35.6779 3.2134 35.5123 3.63096 35.5123C4.37765 35.5123 5.12925 35.5123 5.87594 35.5123C6.15595 36.7105 8.80375 38.6003 10.1891 38.6296L7.78688 40.8798C7.3202 41.3231 5.424 42.833 5.424 43.2616C5.424 43.8753 6.097 44.3526 6.83878 43.5977L8.04723 42.4823C8.30268 42.229 8.42549 42.1706 8.67603 41.9465C9.11323 41.5617 9.35394 41.25 9.83536 40.8701C10.3119 40.4902 10.5133 40.0859 11.0782 39.7888C11.0782 40.5924 11.0782 41.3912 11.0782 42.1949C11.0782 42.9791 11.0291 43.9776 11.7954 43.9776C12.2277 43.9776 12.5126 43.6951 12.5126 43.2665V38.7221C13.5737 38.7221 14.8018 38.084 15.4601 37.6359C15.8727 37.3534 16.197 37.1002 16.5359 36.7397C16.7717 36.4864 17.2777 35.8435 17.3661 35.5123H25.899L25.0983 39.0825C24.9214 39.9641 24.3712 42.1219 24.3712 42.906C24.3712 44.2796 26.2773 43.9727 27.1566 43.9727C28.1096 43.9727 28.2914 42.9596 28.3896 42.4336L29.8486 35.5074H35.0607L35.547 37.7869C35.7583 38.7026 36.5541 42.9401 36.8586 43.4369C37.3155 44.1724 38.3029 43.9679 39.4671 43.9679C39.8159 43.9679 40.1794 43.7097 40.3465 43.5051C40.6068 43.1885 40.6363 42.8427 40.5577 42.4482C40.3956 41.6494 40.2335 40.9675 40.0714 40.159C39.9289 39.4478 39.7275 38.5906 39.5752 37.8892C39.4819 37.4508 39.418 37.144 39.3198 36.7154C39.2363 36.3452 39.1085 35.8581 39.1036 35.5074H47.4597C47.6758 35.5074 48 35.186 48 34.9717V22.678C48 22.4296 47.607 22.1422 47.4253 22.001C46.1873 21.056 45.1115 19.5997 43.4855 21.0512C43.1466 21.3532 42.7929 21.6357 42.4293 21.8743C41.4862 21.3824 40.3121 19.4682 38.5436 21.0512C38.3127 21.2557 37.6692 21.8061 37.399 21.8743C37.2172 21.7526 37.1092 21.6405 36.8979 21.4798C35.8958 20.7005 35.8762 20.4472 34.7021 20.4472C34.1617 20.4472 33.5477 21.0901 33.1743 21.3385V7.53009L36.6278 11.6799C37.7085 13.0486 37.4874 13.0194 37.4874 15.1917H35.8712C34.5105 15.1917 34.7512 16.6188 35.6895 16.6188H43.7753C46.1284 16.6188 45.8533 12.4592 43.6083 10.8129C43.0729 10.4184 42.4735 10.1798 41.889 9.84367C41.3339 9.52221 40.7591 9.20074 40.1451 8.89876C38.1752 7.91487 35.2916 6.23935 33.1694 5.12883C33.1694 4.32516 33.2726 3.61404 32.4522 3.61404C31.6613 3.61404 31.735 4.34465 31.735 5.12883L30.0009 6.07862C27.6085 7.25246 24.4597 9.14229 22.0329 10.3843C21.6989 10.5548 21.4336 10.6814 21.1536 10.9396C20.6525 11.4072 20.2546 11.7822 19.9648 12.4349C19.3409 13.8328 19.0855 16.6237 21.2224 16.6237H31.735V21.3434C30.8262 20.7394 30.1188 19.7897 28.5714 21.056C28.2226 21.3434 27.7608 21.7867 27.4268 21.8792C26.1643 21.0414 25.3881 19.6192 23.6246 21.0512L22.5733 21.8792C22.2884 21.8061 21.7284 21.3045 21.4729 21.0999C19.6946 19.6484 19.0511 20.8758 17.543 21.8792C16.2313 21.1924 15.5141 19.5461 13.6523 21.0512C13.3576 21.2898 12.8467 21.7915 12.5126 21.8792C11.1912 21.0025 11.2944 20.4521 9.81571 20.4521C9.27534 20.4521 8.66129 21.095 8.28794 21.3434V17.2471C9.25569 17.2277 10.474 16.3607 10.9554 15.7957C11.5744 15.0699 12.0607 14.013 12.0607 12.7028V7.44729C12.0607 2.70322 5.3061 1.10563 3.39516 5.89353C3.15445 6.4975 3.07586 7.18427 3.07586 7.98306L3.09059 7.98793Z" fill="#16377C"/>
<path fill-rule="evenodd" clip-rule="evenodd" d="M2.00491 46.2912C2.00491 46.6955 2.22106 47.0023 2.72213 47.0023H36.1414C37.1091 47.0023 37.1877 45.5752 35.8712 45.5752H2.81055C2.37826 45.5752 2 45.8285 2 46.2863L2.00491 46.2912Z" fill="#16377C"/>
<path fill-rule="evenodd" clip-rule="evenodd" d="M38.6614 46.2912C38.6614 46.6955 38.8776 47.0023 39.3787 47.0023H47.2828C47.72 47.0023 47.9558 46.7442 48 46.4471V46.2181C47.9459 45.8869 47.6757 45.5752 47.1894 45.5752H39.5506C39.0151 45.5752 38.6516 45.7554 38.6516 46.2863L38.6614 46.2912Z" fill="#16377C"/>
</svg>
