<svg width="50" height="50" viewBox="0 0 50 50" fill="none" xmlns="http://www.w3.org/2000/svg">
<g clip-path="url(#clip0_143_57)">
<path fill-rule="evenodd" clip-rule="evenodd" d="M24.7413 45.2685C24.7413 44.8124 25.1285 44.503 25.5053 44.503C25.882 44.503 26.2693 44.8176 26.2693 45.2685V47.6646H24.736V45.2685H24.7413ZM37.4675 13.8154H47.9959C47.8598 14.4027 47.4621 14.7644 47.3261 15.3517H38.2367L37.4675 13.8207V13.8154ZM12.7791 15.3464H3.68969C3.55364 14.7592 3.15595 14.3974 3.0199 13.8102H13.5483L12.7791 15.3464ZM25.5105 1.54146L46.1801 12.2792H33.9301C33.3754 12.3317 32.9986 12.8507 33.2969 13.3908C33.569 13.8836 34.2702 13.8154 34.9871 13.8154C34.8511 14.4027 34.4534 14.7644 34.3173 15.3517H16.7089C16.5729 14.7644 16.1752 14.4027 16.0391 13.8154H28.2891C29.4037 13.8154 31.6381 14.1615 31.6381 13.05C31.6381 12.468 31.2771 12.2845 30.6857 12.2792L18.6189 12.2845C14.0245 12.2845 9.43008 12.2845 4.83568 12.2845L10.0057 9.60003C12.9518 8.13197 16.0234 6.42798 19.0323 4.93371L25.5053 1.5467L25.5105 1.54146ZM1.0105 12.856C1.0105 13.5376 2.14602 15.5404 2.53848 16.3111C2.74256 16.7148 2.99896 16.8826 3.5955 16.8826H12.9727C13.6896 16.8826 13.8466 16.589 14.0925 16.0857C14.2809 15.6977 14.6106 15.1577 14.6995 14.7749C15.3955 15.2887 15.228 16.8826 16.6147 16.8826H24.7517V42.9668C24.7517 43.2604 24.4953 43.2866 24.2546 43.4282C22.9255 44.2042 23.2185 46.0917 23.2185 47.6646C22.7214 47.6646 21.6853 47.5387 21.6853 48.3357C21.6853 48.6607 21.8528 49.0068 22.1615 49.0068H28.8595C29.477 49.0068 29.5921 47.6646 28.5717 47.6646H27.8077C27.8077 46.1598 28.0903 44.2356 26.8344 43.4596C26.5832 43.3076 26.2745 43.2604 26.2745 42.9616V16.8774H34.4115C35.7982 16.8774 35.6307 15.2782 36.3267 14.7697C36.4157 15.1524 36.7453 15.6977 36.9337 16.0804C37.1797 16.5838 37.3366 16.8774 38.0535 16.8774H47.4307C47.954 16.8774 48.2627 16.7358 48.4564 16.374C48.854 15.64 50.0157 13.4694 50.0157 12.8507C50.0157 12.4627 49.0529 12.0276 48.7075 11.8598C48.1581 11.5871 47.7238 11.3669 47.1743 11.0943L34.1289 4.31503C32.9097 3.68062 25.8559 0 25.5157 0C25.0605 0 22.915 1.23736 22.4231 1.50476L16.2327 4.70302C12.6587 6.48041 9.05332 8.46228 5.47931 10.2292L2.38149 11.8283C2.04659 11.9961 1.0105 12.4785 1.0105 12.8507V12.856Z" fill="#16377C"/>
<path fill-rule="evenodd" clip-rule="evenodd" d="M17.3682 44.503H18.6136V47.6698H18.3258C18.2892 47.2609 17.9857 46.4954 17.8601 46.1231C17.6979 45.6407 17.4362 45.0116 17.3682 44.503ZM19.6654 49.012H17.6194C17.1537 48.9544 17.1589 48.7341 16.9287 48.0158L15.746 44.503H6.84504C6.67236 45.2475 6.31653 46.1388 6.06536 46.8886C5.93454 47.2818 5.80372 47.6646 5.6572 48.1102C5.45312 48.7499 5.42172 48.9491 4.9874 49.0068H3.0094C2.77915 49.0068 2.72683 48.8495 2.53321 48.7184V44.4034C1.88434 44.0626 1 43.5907 1 42.3901V35.8677C1 34.9974 1.82155 34.1165 2.53321 33.9487C2.53321 32.8844 2.46519 27.4683 2.56984 26.8864C2.88381 25.1457 4.51645 23.7825 6.45782 23.7825H16.217C17.4048 23.7825 18.3049 24.2543 18.9381 24.894L19.0322 24.9936C19.1264 25.0985 19.1735 25.1457 19.2625 25.2453C19.4666 25.4707 19.4561 25.4655 19.6131 25.7539C20.5393 27.4107 20.1416 31.5317 20.1416 33.9487C20.6544 34.2214 20.869 34.2948 21.2248 34.7771C21.5074 35.1599 21.6696 35.6265 21.6696 36.2452V41.9025C21.6696 43.0559 21.0259 44.2251 20.1364 44.2985C20.1364 45.1636 20.1364 46.0235 20.1364 46.8886C20.1364 47.5702 20.2777 48.9963 19.6602 48.9963L19.6654 49.012ZM4.24434 47.6646L3.97223 47.6698V44.503H5.31183L4.24434 47.6646ZM2.43902 42.0126V36.3553C2.43902 34.9921 4.07166 34.8296 4.07166 36.4444C4.07166 37.1994 3.94607 40.0621 4.18678 40.5497C4.36469 40.9168 4.89844 41.4358 5.40602 41.4358H17.0804C18.7078 41.4358 18.6136 39.7213 18.6136 38.7514C18.6136 36.995 18.2997 35.3015 19.3776 35.3015C19.8381 35.3015 20.1416 35.6055 20.1416 36.0669V42.2013C20.1416 42.7885 19.6864 43.0664 19.0898 43.0664H3.68443C2.85241 43.0664 2.43902 42.8514 2.43902 42.0126ZM6.17001 25.3292H16.5048C17.2479 25.3292 17.881 25.8535 18.2055 26.3096C18.645 26.9283 18.6084 27.568 18.6084 28.5903C18.6084 30.3782 18.6084 32.1714 18.6084 33.9592C17.2112 34.2843 17.0752 35.7419 17.0752 36.8377C14.7518 36.8377 15.4896 38.3739 16.3112 38.3739H17.0752V40.0045H5.78279C5.34323 40.0045 5.49498 39.4644 5.49498 38.3739H13.3442C13.9983 38.3739 14.464 36.8377 12.868 36.8377H5.50021C5.50021 35.8467 5.53161 34.3262 3.967 33.9592C3.967 32.1714 3.967 30.3782 3.967 28.5903C3.967 27.6309 3.98793 26.9126 4.38563 26.3253C4.72053 25.8377 5.39556 25.3292 6.16478 25.3292H6.17001Z" fill="#16377C"/>
<path fill-rule="evenodd" clip-rule="evenodd" d="M34.0243 42.9668H38.4251C38.4251 43.7218 38.1373 45.6722 38.0274 46.595C37.8652 47.9529 38.4931 47.6646 34.5999 47.6646C34.5999 46.6998 34.0557 44.0626 34.0243 42.9668ZM29.3357 29.9273C29.3357 31.2066 29.8171 32.6694 30.4817 33.6708C30.848 34.2214 31.1253 34.5727 31.6067 35.0393C32.0568 35.4745 32.6847 35.9725 33.3545 35.9725C33.6999 35.9725 34.3173 35.2123 33.6057 34.6618C32.9359 34.1427 32.601 34.085 31.9312 33.178C28.645 28.7476 33.3963 22.7443 38.5245 25.0408C40.2984 25.8325 41.4392 27.5575 41.6276 29.6966C41.7531 31.086 41.0362 32.7376 40.3194 33.4559C39.2152 34.5674 38.76 34.8872 36.9913 35.3014C36.9913 33.9802 36.8291 34.2581 37.5407 33.5503C37.9751 33.1256 38.5193 32.79 38.5193 32.1346C38.5193 31.8148 38.0954 31.5107 37.839 31.4897C37.4308 31.4583 37.2425 31.7729 36.9913 31.9406C36.9913 31.0965 37.164 30.352 36.5831 30.0427C36.2953 29.8906 36.0075 29.9378 35.772 30.137C35.5523 30.3205 35.4633 30.6037 35.4633 30.9812V41.5302C32.4858 41.5302 32.2713 41.2261 32.5382 43.1188L33.0824 47.5597C33.1609 48.1993 33.501 49.012 34.2179 49.012H38.2367C39.524 49.012 39.5397 46.6631 39.6653 45.5516L40.0525 42.2118C39.9321 41.2261 38.8646 41.5302 36.9913 41.5302V37.0212C36.9913 36.5493 37.7553 36.8796 39.2571 36.1298C41.7008 34.9082 43.1137 32.5803 43.1137 29.7333C43.1137 24.0446 35.9081 20.6891 31.4131 25.0093L30.6334 25.9531C29.8904 27.0174 29.3357 28.4855 29.3357 29.9273Z" fill="#16377C"/>
<path fill-rule="evenodd" clip-rule="evenodd" d="M7.12767 29.9273C7.12767 30.3887 7.43117 30.6928 7.89166 30.6928H14.6891C15.6885 30.6928 15.9449 29.1566 14.4955 29.1566H7.98585C7.52536 29.1566 7.12244 29.4293 7.12244 29.9221L7.12767 29.9273Z" fill="#16377C"/>
</g>
<defs>
<clipPath id="clip0_143_57">
<rect width="50" height="50" fill="white"/>
</clipPath>
</defs>
</svg>
