<svg width="22" height="22" viewBox="0 0 22 22" fill="none" xmlns="http://www.w3.org/2000/svg">
<path d="M6.90454 9.94022C6.8407 9.87639 6.79005 9.8006 6.75549 9.7172C6.72094 9.63379 6.70315 9.54439 6.70314 9.45411C6.70313 9.36383 6.72091 9.27443 6.75545 9.19102C6.78999 9.1076 6.84062 9.03181 6.90446 8.96797C7.03337 8.83903 7.20823 8.76658 7.39057 8.76657C7.48085 8.76656 7.57025 8.78433 7.65366 8.81887C7.73707 8.85342 7.81286 8.90405 7.87671 8.96788L10.3125 11.403V3.4375C10.3125 3.25516 10.3849 3.0803 10.5139 2.95136C10.6428 2.82243 10.8177 2.75 11 2.75C11.1823 2.75 11.3572 2.82243 11.4861 2.95136C11.6151 3.0803 11.6875 3.25516 11.6875 3.4375V11.403L14.1233 8.96788C14.1871 8.90405 14.2629 8.85341 14.3463 8.81887C14.4298 8.78433 14.5192 8.76655 14.6094 8.76656C14.6997 8.76657 14.7891 8.78436 14.8725 8.81892C14.9559 8.85347 15.0317 8.90412 15.0955 8.96796C15.1594 9.03181 15.21 9.1076 15.2446 9.19101C15.2791 9.27443 15.2969 9.36383 15.2969 9.45411C15.2969 9.54439 15.2791 9.63379 15.2445 9.71719C15.21 9.8006 15.1593 9.87638 15.0955 9.94022L11.4861 13.5487C11.3572 13.6776 11.1823 13.75 11 13.75C10.8177 13.75 10.6428 13.6776 10.5139 13.5487L6.90454 9.94022ZM18.5625 12.375C18.3802 12.375 18.2053 12.4474 18.0764 12.5764C17.9474 12.7053 17.875 12.8802 17.875 13.0625V17.875H4.125V13.0625C4.125 12.8802 4.05257 12.7053 3.92364 12.5764C3.7947 12.4474 3.61984 12.375 3.4375 12.375C3.25516 12.375 3.0803 12.4474 2.95136 12.5764C2.82243 12.7053 2.75 12.8802 2.75 13.0625V17.875C2.75042 18.2395 2.89542 18.589 3.15319 18.8468C3.41096 19.1046 3.76046 19.2496 4.125 19.25H17.875C18.2395 19.2496 18.589 19.1046 18.8468 18.8468C19.1046 18.589 19.2496 18.2395 19.25 17.875V13.0625C19.25 12.8802 19.1776 12.7053 19.0486 12.5764C18.9197 12.4474 18.7448 12.375 18.5625 12.375V12.375Z" fill="#16377C"/>
</svg>
