<svg width="64" height="64" viewBox="0 0 64 64" fill="none" xmlns="http://www.w3.org/2000/svg">
<circle cx="32" cy="32" r="32" fill="#E3ECFF"/>
<g clip-path="url(#clip0_143_174)">
<path fill-rule="evenodd" clip-rule="evenodd" d="M27.6175 39.9699H36.3825C36.5968 39.9699 36.7202 40.264 36.8618 40.4201C37.0288 40.6017 37.185 40.7396 37.3592 40.9176C38.5647 42.123 39.9045 43.6625 41.11 44.868L43.9494 47.8744H20.0434L21.9205 45.8992C22.1202 45.6995 22.1856 45.6269 22.3599 45.409C22.5015 45.2311 22.683 45.075 22.8501 44.9043L23.7796 43.9058C24.0882 43.5935 24.4658 43.2704 24.7418 42.94C25.3336 42.232 27.0002 40.6235 27.3197 40.2059C27.4141 40.0824 27.4287 39.9699 27.6175 39.9699ZM15.5301 15H15.5991C15.7226 15.0073 15.8642 15.0617 16.0167 15.1779L25.2719 21.9932C25.537 22.1929 26.3539 22.9045 26.6843 22.9045H37.3084C37.5335 22.9045 37.588 22.8319 37.7296 22.7266C40.2749 20.7913 43.0816 18.827 45.6487 16.899L47.7074 15.374C48.0487 15.138 48.4554 14.7749 48.8366 15.2287C49.3413 15.8279 48.4844 16.2527 47.7836 16.7792C47.5367 16.9643 47.337 17.095 47.0901 17.2802L45.0241 18.8016C44.5449 19.1284 44.1309 19.4624 43.6444 19.811L39.5196 22.8573C39.3236 23.0062 38.2379 23.7287 38.2379 23.8994V36.7819C38.2379 36.9235 40.2422 39.0041 40.4964 39.1711C40.4964 35.6745 40.4964 32.1779 40.4964 28.6777C40.4964 27.9951 40.3584 26.5754 40.6271 26.1542C40.8123 25.8637 41.0192 25.7149 41.3787 25.5769C42.0395 25.3227 45.7975 23.7651 46.0081 23.7651C47.5004 23.7651 47.337 24.9378 47.337 26.0889V43.2196C47.337 47.1991 47.0538 45.9754 48.2847 47.4496C48.5026 47.711 48.9964 47.9979 48.9964 48.3973C48.9964 48.7531 48.8402 48.9964 48.4663 48.9964H15.5301C15.2106 48.9964 15 48.7858 15 48.4663C15 47.9616 15.4502 47.7546 15.748 47.4205C16.9789 46.0226 16.663 46.8033 16.663 44.8825V26.0235C16.663 25.2828 16.4996 23.7651 17.7922 23.7651C18.384 23.7651 21.8044 25.2501 22.7194 25.6132C23.8522 26.0634 23.5036 27.2253 23.5036 28.7467C23.5036 32.2215 23.5036 35.6963 23.5036 39.1711C23.6416 39.0803 25.7621 36.9671 25.7621 36.7819V23.8994C25.7621 23.7106 25.2864 23.4564 25.1267 23.3402L16.8736 17.2512C16.4923 16.9643 15.0036 16.0493 15.0036 15.5991C15.0036 15.374 15.1997 15.0254 15.5337 15L15.5301 15ZM16.9244 47.8708C17.1241 47.573 18.7762 45.9645 19.0303 45.6595C19.1647 45.4998 19.1756 45.4526 19.3317 45.2965L26.0053 38.2924C26.1469 38.1508 26.4883 37.7114 26.6843 37.7114H37.3084C37.519 37.7114 38.4231 38.6991 38.5792 38.8951C38.9786 39.3962 39.4216 39.7194 39.8101 40.1877C40.0352 40.4564 40.1333 40.569 40.3765 40.8159C40.598 41.0374 40.7977 41.2189 41.0083 41.4477L47.0683 47.8744C45.3618 47.8744 45.7031 48.1068 44.8571 47.0974L38.6155 40.5218C38.2997 40.1442 37.6788 39.6431 37.4028 39.28C37.2285 39.0513 37.0143 38.7753 36.644 38.7753H27.3488C26.9167 38.7753 26.579 39.3127 26.038 39.8537L23.6489 42.3772C23.4383 42.5878 23.2495 42.7584 23.0498 42.9727L22.4543 43.6371C22.2401 43.8513 22.0694 44.0184 21.8552 44.2326C21.6373 44.4541 21.5284 44.632 21.2924 44.8644L19.2046 47.0248C19.0703 47.1845 19.0594 47.2317 18.9032 47.3879C18.2569 48.0414 18.6309 47.8671 16.928 47.8671L16.9244 47.8708ZM45.0132 34.8539C45.0132 35.3405 45.8774 35.6563 46.1425 35.7181V45.1476C45.8992 44.9842 43.3285 42.1666 42.7403 41.5784C42.5515 41.3896 41.6292 40.5109 41.6292 40.3003V26.8877C41.6292 26.6444 42.2392 26.4955 42.664 26.3285L46.1461 24.9633V34.4581C45.8484 34.2984 45.8375 34.2584 45.4816 34.2584C45.271 34.2584 45.0169 34.5961 45.0169 34.8575L45.0132 34.8539ZM21.2416 34.1241C21.2416 35.3078 22.2219 34.6905 22.3708 34.6542V40.2313C22.3163 40.7469 21.4812 41.277 21.06 41.7781L17.8539 45.144V24.956L21.8588 26.5318C22.0694 26.6153 22.3708 26.6553 22.3708 26.884V33.1909C22.3708 33.5468 21.2416 33.6375 21.2416 34.1205V34.1241ZM34.2584 33.1292V36.5169H29.7416V27.4868H34.2584V32.0036V33.1328V33.1292ZM28.547 27.9515V36.5169H26.953V24.0991H37.047V36.5169H35.453V27.9515C35.453 26.9857 35.1335 26.2922 34.0587 26.2922H29.9413C28.8665 26.2922 28.547 26.9857 28.547 27.9515Z" fill="#16377C"/>
<path fill-rule="evenodd" clip-rule="evenodd" d="M30.3408 17.3238C30.3408 15.7625 33.6594 15.7625 33.6594 17.3238C33.6594 18.7072 30.3408 18.7072 30.3408 17.3238ZM29.1462 17.2584C29.1462 18.6491 30.624 19.5641 32.0001 19.5641C33.3762 19.5641 34.854 18.6491 34.854 17.2584C34.854 15.9876 33.4997 15 32.1962 15H31.7968C30.5078 15 29.1389 15.9949 29.1389 17.2584H29.1462Z" fill="#16377C"/>
</g>
<defs>
<clipPath id="clip0_143_174">
<rect width="34" height="34" fill="white" transform="translate(15 15)"/>
</clipPath>
</defs>
</svg>
