<svg width="22" height="22" viewBox="0 0 22 22" fill="none" xmlns="http://www.w3.org/2000/svg">
<g clip-path="url(#clip0_4_159)">
<path d="M19.9662 4.65037C19.9659 4.64328 19.9651 4.63618 19.9639 4.62914C19.9364 4.58986 19.9026 4.55605 19.8743 4.51756C19.6689 4.23775 19.4514 3.96844 19.222 3.70959C19.1591 3.63885 19.0962 3.5689 19.0318 3.49973C18.7955 3.24668 18.5476 3.00538 18.2883 2.7759C18.2403 2.73344 18.1955 2.68947 18.1476 2.64779C17.5084 2.1002 16.8085 1.62762 16.0617 1.23941C16.0318 1.2237 16.0004 1.21035 15.9697 1.1946C15.6371 1.02559 15.2961 0.87367 14.948 0.739524C14.8694 0.711248 14.7979 0.684493 14.7232 0.660914C14.4136 0.549333 14.0992 0.451612 13.7801 0.367753C13.6858 0.342609 13.5915 0.316682 13.4956 0.29467C13.1812 0.221587 12.8669 0.165773 12.5454 0.120182C12.4479 0.106045 12.352 0.0871638 12.2538 0.0753747C11.4258 -0.025247 10.5887 -0.025247 9.76075 0.0753747C9.66252 0.0871638 9.56664 0.106045 9.46915 0.120182C9.14772 0.165773 8.83019 0.221587 8.51894 0.29467C8.42306 0.316682 8.32874 0.342609 8.23443 0.367753C7.91323 0.451566 7.59888 0.549287 7.29131 0.660914C7.2127 0.687624 7.14118 0.71438 7.06653 0.739524C6.71843 0.87367 6.37737 1.02555 6.04479 1.1946C6.01412 1.2103 5.98272 1.22366 5.95283 1.23941C5.20353 1.6272 4.5013 2.09974 3.85985 2.64779C3.81191 2.68942 3.76711 2.73344 3.71917 2.7759C3.45718 3.00644 3.20933 3.24774 2.97567 3.49973C2.91125 3.5689 2.84834 3.63885 2.78548 3.70959C2.55545 3.96789 2.338 4.2372 2.13317 4.51751C2.10489 4.55601 2.07109 4.58981 2.04355 4.62909C2.03996 4.63595 2.03678 4.64304 2.03411 4.65032C-0.676735 8.4494 -0.676735 13.5505 2.03411 17.3495C2.03678 17.3568 2.03991 17.3639 2.04355 17.3707C2.07104 17.41 2.10484 17.4438 2.13317 17.4823C2.33805 17.7621 2.55545 18.0314 2.78548 18.2903C2.84834 18.361 2.91125 18.431 2.97567 18.5001C3.21251 18.7532 3.46031 18.9945 3.71917 19.224C3.76711 19.2664 3.81191 19.3104 3.85985 19.3521C4.49904 19.8997 5.19893 20.3723 5.94574 20.7605C5.97562 20.7762 6.00703 20.7895 6.0377 20.8053C6.37028 20.9743 6.71129 21.1262 7.05944 21.2604C7.13805 21.2886 7.20956 21.3154 7.28421 21.339C7.59386 21.4505 7.90825 21.5483 8.22734 21.6321C8.32165 21.6573 8.41597 21.6832 8.51184 21.7052C8.82623 21.7783 9.14058 21.8341 9.46206 21.8797C9.55951 21.8938 9.65539 21.9127 9.75366 21.9245C10.5816 22.0251 11.4187 22.0251 12.2467 21.9245C12.3449 21.9127 12.4408 21.8938 12.5383 21.8797C12.8597 21.8341 13.1772 21.7783 13.4885 21.7052C13.5844 21.6832 13.6787 21.6573 13.773 21.6321C14.0947 21.5483 14.4091 21.4506 14.7161 21.339C14.7947 21.3123 14.8663 21.2855 14.9409 21.2604C15.289 21.1262 15.6301 20.9743 15.9626 20.8053C15.9933 20.7896 16.0247 20.7762 16.0546 20.7605C16.8014 20.3722 17.5013 19.8997 18.1405 19.3521C18.1884 19.3104 18.2332 19.2664 18.2812 19.224C18.5432 18.9939 18.791 18.7527 19.0247 18.5001C19.0891 18.431 19.152 18.361 19.2149 18.2903C19.4449 18.0314 19.6623 17.7621 19.8672 17.4823C19.8954 17.4438 19.9292 17.41 19.9568 17.3707C19.9604 17.3639 19.9636 17.3568 19.9662 17.3495C22.6771 13.5505 22.6771 8.44944 19.9662 4.65037ZM19.0695 6.1374C19.8211 7.3753 20.275 8.77084 20.3953 10.2141H15.6876C15.6299 9.27758 15.4826 8.34882 15.2475 7.44051C16.5773 7.19147 17.8645 6.7526 19.0695 6.1374ZM13.0036 1.78562C13.0476 1.79584 13.09 1.80998 13.134 1.8202C13.4154 1.88624 13.6944 1.96167 13.9671 2.05599C14.0088 2.07012 14.0497 2.08666 14.0906 2.10158C14.3609 2.19589 14.6273 2.30043 14.8883 2.41597C14.9339 2.4372 14.9787 2.46078 15.0243 2.48201C15.2742 2.60096 15.5184 2.72958 15.7568 2.86791L15.914 2.96301C16.1403 3.10135 16.3604 3.24935 16.5742 3.40708C16.6292 3.44714 16.6842 3.48569 16.7384 3.52967C16.948 3.68684 17.1487 3.85529 17.3404 4.03503C17.3907 4.08062 17.4426 4.12543 17.4921 4.17259C17.6933 4.36356 17.8851 4.56554 18.0706 4.77461C18.0942 4.80211 18.1193 4.82725 18.1429 4.85322C17.0787 5.36038 15.9513 5.72253 14.7909 5.92994C14.2533 4.45207 13.5431 3.04282 12.6751 1.73146C12.7843 1.75108 12.8959 1.76209 13.0036 1.78562ZM7.88868 10.214C7.95066 9.36365 8.09545 8.52133 8.32096 7.69904C9.21145 7.80482 10.1074 7.85727 11.0042 7.85622C11.9018 7.85594 12.7986 7.80215 13.6897 7.69508C13.9148 8.51871 14.0588 9.36236 14.1196 10.214H7.88868ZM14.1196 11.7859C14.0576 12.6363 13.9129 13.4786 13.6873 14.3009C12.7969 14.1951 11.9009 14.1427 11.0041 14.1438C10.1066 14.1427 9.20984 14.1952 8.31857 14.3009C8.0937 13.4786 7.94974 12.6363 7.88863 11.7859H14.1196ZM11.0041 2.08118C11.8985 3.34883 12.6342 4.72138 13.1946 6.16807C12.467 6.24535 11.7358 6.28417 11.0041 6.2844C10.2733 6.28352 9.54288 6.24447 8.81606 6.16729C9.37714 4.72156 10.1119 3.34947 11.0041 2.08118ZM3.93855 4.77378C4.12326 4.56471 4.3158 4.36273 4.517 4.17176C4.56651 4.1246 4.61841 4.07979 4.66869 4.0342C4.86257 3.85764 5.06326 3.68919 5.27072 3.52884C5.32497 3.48716 5.37995 3.45023 5.43498 3.40625C5.64875 3.24908 5.86883 3.10102 6.09517 2.96218L6.25235 2.86708C6.49075 2.72773 6.73492 2.59907 6.98484 2.48118C7.03043 2.45995 7.07523 2.43637 7.12082 2.41514C7.38175 2.29725 7.6482 2.19271 7.91857 2.10075C7.95941 2.08583 7.99718 2.0693 8.04194 2.05516C8.31465 1.96398 8.59211 1.88854 8.87505 1.81938C8.91907 1.80915 8.96149 1.79501 9.00629 1.78557C9.11396 1.762 9.22559 1.75099 9.33482 1.73133C8.46648 3.04291 7.7561 4.45244 7.21827 5.93059C6.05783 5.72317 4.9304 5.36103 3.86625 4.85387C3.88983 4.82642 3.91498 4.80128 3.93855 4.77378ZM2.93883 6.1374C4.14357 6.75255 5.43047 7.19142 6.76006 7.44051C6.52524 8.34887 6.37811 9.27763 6.32073 10.2141H1.61297C1.73335 8.77084 2.18723 7.3753 2.93883 6.1374ZM2.93883 15.8626C2.18718 14.6247 1.7333 13.2292 1.61297 11.7859H6.32073C6.37839 12.7224 6.52575 13.6512 6.76084 14.5595C5.43102 14.8085 4.14385 15.2474 2.93883 15.8626ZM9.00473 20.2143C8.9607 20.2041 8.91829 20.19 8.87427 20.1798C8.59289 20.1137 8.31387 20.0383 8.04115 19.944C7.99948 19.9298 7.95863 19.9133 7.91774 19.8984C7.64737 19.8041 7.38097 19.6995 7.12 19.584C7.0744 19.5628 7.0296 19.5392 6.98401 19.518C6.73409 19.399 6.48992 19.2704 6.25152 19.1321L6.09434 19.037C5.868 18.8986 5.64792 18.7506 5.43416 18.5929C5.37912 18.5528 5.32414 18.5143 5.26989 18.4703C5.06031 18.3131 4.85962 18.1447 4.66787 17.9649C4.61758 17.9193 4.56568 17.8745 4.51617 17.8274C4.31498 17.6364 4.12322 17.4344 3.93772 17.2254C3.91415 17.1979 3.889 17.1727 3.86542 17.1467C4.92962 16.6396 6.057 16.2774 7.21744 16.07C7.75504 17.5479 8.46519 18.9572 9.33317 20.2685C9.22398 20.2489 9.1124 20.2379 9.00473 20.2143ZM11.0041 19.9188C10.1097 18.6512 9.3741 17.2786 8.81371 15.8319C10.2692 15.6753 11.7374 15.6753 13.1929 15.8319L13.1922 15.8327C12.6312 17.2784 11.8964 18.6505 11.0041 19.9188ZM18.0698 17.2262C17.885 17.4353 17.6925 17.6372 17.4913 17.8282C17.4418 17.8754 17.3899 17.9202 17.3396 17.9658C17.1457 18.1429 16.945 18.3113 16.7376 18.4711C16.6833 18.5128 16.6284 18.5537 16.5733 18.5937C16.3596 18.7509 16.1395 18.8989 15.9131 19.0378L15.756 19.1329C15.5181 19.2717 15.2739 19.4004 15.0235 19.5188C14.9779 19.54 14.9331 19.5636 14.8875 19.5848C14.6266 19.7027 14.3601 19.8073 14.0897 19.8992C14.0489 19.9141 14.0111 19.9307 13.9664 19.9448C13.6937 20.036 13.4162 20.1114 13.1333 20.1806C13.0892 20.1908 13.0468 20.205 13.002 20.2144C12.8943 20.238 12.7827 20.249 12.6735 20.2686C13.5415 18.9573 14.2517 17.548 14.7892 16.0702C15.9497 16.2776 17.0771 16.6397 18.1412 17.1469C18.1185 17.1735 18.0933 17.1987 18.0698 17.2262ZM19.0695 15.8626C17.8647 15.2475 16.5778 14.8086 15.2482 14.5595C15.4831 13.6511 15.6302 12.7224 15.6876 11.7859H20.3953C20.275 13.2291 19.8211 14.6247 19.0695 15.8626Z" fill="white"/>
</g>
<defs>
<clipPath id="clip0_4_159">
<rect width="22" height="22" fill="white"/>
</clipPath>
</defs>
</svg>
