<svg width="482" height="113" viewBox="0 0 482 113" fill="none" xmlns="http://www.w3.org/2000/svg">
<path d="M481.291 3.81903C480.506 2.37907 479.123 1.65909 477.112 1.65909C475.918 1.65909 474.944 1.87821 474.253 2.31646C473.562 2.75471 472.933 3.5686 472.399 4.75814L446.603 65.2679L421.31 4.75814C420.431 2.6921 418.828 1.65909 416.472 1.65909C414.398 1.65909 412.984 2.37907 412.261 3.85033C411.507 5.3216 411.633 7.19981 412.576 9.45367L442.048 76.5684C443.053 78.7597 444.624 79.8866 446.761 79.8866C447.892 79.8866 448.866 79.6049 449.62 79.0414C450.405 78.478 451.002 77.6641 451.474 76.5997L481.228 8.57717C482.045 6.85547 482.045 5.25899 481.291 3.81903ZM403.401 1.65909C401.924 1.65909 400.699 2.12864 399.693 3.09905C398.688 4.06946 398.185 5.3216 398.185 6.85547V53.6543C398.185 57.2542 397.274 60.4471 395.42 63.2331C393.567 66.0192 391.022 68.1791 387.785 69.7443C384.518 71.3095 380.81 72.092 376.568 72.092C372.201 72.092 368.336 71.3095 364.943 69.7443C361.55 68.1791 358.91 66.0192 356.994 63.2331C355.077 60.4471 354.134 57.2855 354.134 53.6543V6.85547C354.134 5.3216 353.632 4.06946 352.689 3.09905C351.715 2.12864 350.458 1.65909 348.919 1.65909C347.442 1.65909 346.217 2.12864 345.211 3.09905C344.206 4.06946 343.703 5.3216 343.703 6.85547V53.6543C343.703 59.0698 345.086 63.8592 347.882 68.0852C350.647 72.2799 354.543 75.598 359.507 77.9458C364.472 80.3249 370.159 81.5144 376.6 81.5144C382.821 81.5144 388.382 80.3249 393.19 77.9458C398.028 75.5667 401.799 72.2799 404.501 68.0852C407.203 63.8905 408.585 59.0698 408.585 53.6543V6.85547C408.585 5.3216 408.114 4.06946 407.171 3.09905C406.229 2.12864 405.003 1.65909 403.464 1.65909H403.401ZM333.743 42.2911C329.281 38.2529 323.06 35.8425 315.079 35.0287C309.864 34.4965 305.842 33.5574 303.077 32.2113C300.281 30.8653 298.395 29.3001 297.359 27.4532C296.322 25.6063 295.788 23.6968 295.788 21.6933C295.788 17.7491 297.453 14.8379 300.815 12.9284C304.177 11.0188 308.324 10.111 313.289 10.1736C316.116 10.1736 318.536 10.5493 320.641 11.3319C322.715 12.1145 324.537 13.1475 326.076 14.4935C327.616 15.8396 328.936 17.4674 330.004 19.4082C330.758 20.6916 331.858 21.5368 333.334 22.0064C334.811 22.4759 336.194 22.3194 337.451 21.5055C338.582 20.7855 339.241 19.7525 339.399 18.4378C339.556 17.123 339.179 15.7457 338.236 14.2744C336.571 11.5197 334.591 9.17194 332.298 7.16851C330.004 5.16508 327.365 3.59991 324.317 2.47298C321.269 1.34605 317.687 0.782588 313.603 0.782588C308.387 0.782588 303.643 1.59648 299.369 3.19296C295.128 4.78944 291.734 7.13721 289.252 10.205C286.77 13.2727 285.545 17.0291 285.545 21.4429C285.545 27.4532 287.933 32.4931 292.677 36.5625C297.421 40.632 303.957 43.0737 312.283 43.8876C318.661 44.5449 323.217 46.2979 326.014 49.0839C328.81 51.9013 330.192 55.0629 330.192 58.6002C330.192 61.4175 329.344 63.7653 327.679 65.6748C326.014 67.5843 323.814 69.0243 321.081 70.026C318.379 71.0277 315.394 71.5286 312.189 71.5286C309.298 71.5286 306.565 71.0903 303.957 70.2138C301.349 69.3373 299.118 68.2104 297.264 66.8017C295.411 65.3931 294.091 63.8592 293.305 62.2001C292.708 60.9167 291.829 59.9776 290.635 59.3515C289.472 58.7254 288.278 58.5376 287.053 58.788C285.388 59.1324 284.194 59.8837 283.471 61.1045C282.78 62.294 282.748 63.6088 283.408 65.0174C284.759 68.1478 286.864 70.9338 289.755 73.3442C292.646 75.7546 296.008 77.6328 299.904 78.9475C303.8 80.2936 307.884 80.9509 312.157 80.9509C315.771 80.9509 319.29 80.4814 322.652 79.5423C326.045 78.6032 329.061 77.1945 331.701 75.285C334.34 73.3755 336.476 71.0277 338.047 68.2104C339.618 65.3931 340.404 62.1062 340.404 58.2872C340.404 51.6821 338.173 46.3605 333.712 42.2911H333.743ZM250.857 5.16508C249.977 2.81732 248.343 1.65909 245.924 1.65909C243.63 1.65909 241.997 2.81732 240.991 5.16508L212.745 72.4051C211.928 74.2207 212.053 75.9111 213.059 77.5076C214.064 79.104 215.51 79.9179 217.395 79.9179C218.337 79.9179 219.249 79.6675 220.16 79.104C221.071 78.5719 221.762 77.758 222.233 76.6937L246.144 18.4378L269.678 76.6937C270.086 77.6954 270.746 78.478 271.626 79.0414C272.537 79.6049 273.479 79.8866 274.485 79.8866C276.433 79.8866 277.878 79.1353 278.852 77.6328C279.826 76.1302 279.952 74.4398 279.198 72.5616L250.826 5.13378L250.857 5.16508ZM180.256 40.1311C183.336 40.1311 186.038 39.5364 188.394 38.3781C190.751 37.2199 192.573 35.5608 193.924 33.4635C195.275 31.3661 195.935 28.9871 195.935 26.295C195.935 23.3524 195.275 20.7542 193.924 18.4691C192.573 16.1839 190.751 14.4309 188.394 13.1475C186.038 11.864 183.336 11.238 180.256 11.238H167.374V40.0998H180.256V40.1311ZM207.906 71.9042C209.1 73.845 209.288 75.6606 208.409 77.351C207.529 79.0414 206.021 79.9179 203.884 79.9179C202.942 79.9179 202.093 79.7301 201.308 79.3232C200.522 78.9162 199.894 78.2901 199.36 77.4136L182.11 49.71C181.513 49.7413 180.885 49.7413 180.256 49.7413H167.374V74.6902C167.374 76.1615 166.871 77.3823 165.929 78.3841C164.955 79.3858 163.698 79.8866 162.158 79.8866C160.682 79.8866 159.456 79.3858 158.451 78.3841C157.445 77.3823 156.943 76.1615 156.943 74.6902V6.85547C156.943 5.3216 157.445 4.06946 158.451 3.09905C159.456 2.12864 160.682 1.65909 162.158 1.65909H180.256C185.284 1.65909 189.745 2.72341 193.641 4.82074C197.537 6.91808 200.554 9.82931 202.753 13.4918C204.921 17.1543 206.021 21.4429 206.021 26.3263C206.021 30.8653 204.921 34.9034 202.753 38.4407C200.585 41.978 197.537 44.7641 193.641 46.7675C193.296 46.9553 192.919 47.1118 192.573 47.2683L207.937 71.9042H207.906ZM146.826 24.0098C148.774 28.9245 149.748 34.3087 149.748 40.1937C149.748 46.0788 148.774 51.4317 146.826 56.3151C144.877 61.1984 142.144 65.4244 138.625 68.993C135.106 72.5616 130.896 75.3476 125.994 77.3197C121.093 79.2919 115.688 80.2623 109.813 80.2623C103.906 80.2623 98.533 79.2919 93.6629 77.3197C88.7928 75.3476 84.5826 72.5616 81.0321 68.993C78.6128 66.5513 76.5705 63.8279 74.8738 60.7915C74.0883 59.3515 73.397 57.8802 72.7687 56.3151C70.8206 51.4317 69.8466 46.0475 69.8466 40.1937V40.0998C69.8466 35.7486 69.1239 31.7105 67.6786 27.9854C66.2333 24.2602 64.191 21.0047 61.4889 18.2187C58.8182 15.4326 55.6448 13.304 51.9686 11.7701C48.3239 10.2363 44.3022 9.45367 39.9662 9.45367C35.5988 9.45367 31.6085 10.2363 27.9638 11.7701C24.3191 13.304 21.1456 15.4639 18.5064 18.2187C15.8357 21.0047 13.7934 24.2602 12.3166 27.9854C10.8399 31.7418 10.0858 35.7486 10.0858 40.0998C10.0858 44.451 10.8399 48.4892 12.3166 52.2143C13.7934 55.9707 15.8357 59.2263 18.5064 61.981C21.1456 64.767 24.2876 66.927 27.9638 68.4921C31.6085 70.0573 35.6302 70.8399 39.9662 70.8399C44.3336 70.8399 48.3239 70.0573 51.9686 68.4921C53.414 67.8661 54.765 67.1774 56.0532 66.3635L46.3759 56.722C45.3076 55.6577 44.7735 54.4681 44.7735 53.1534C44.7735 51.8387 45.3076 50.6491 46.3759 49.5848C47.4442 48.5205 48.6381 47.9883 49.9578 47.9883C51.2774 47.9883 52.4714 48.5205 53.5396 49.5848L63.5312 59.6019L70.7264 66.8017L74.5596 70.6521C75.565 71.7164 76.0678 72.8746 76.1306 74.1581C76.162 75.4415 75.6593 76.5997 74.5596 77.6641C73.4913 78.7284 72.2974 79.2606 70.9777 79.2606C69.6581 79.2606 68.4641 78.7284 67.3958 77.6641L63.2484 73.5007C61.049 75.0033 58.6611 76.2554 56.0846 77.2884C51.2146 79.2606 45.8417 80.231 39.9348 80.231C34.0278 80.231 28.655 79.2606 23.7535 77.2884C18.852 75.3163 14.6731 72.5303 11.1227 68.9617C7.60363 65.3931 4.8701 61.1358 2.92206 56.2524C0.974019 51.3378 0 45.9536 0 40.0685C0 34.1835 0.974019 28.8306 2.92206 23.9472C4.8701 19.0639 7.60363 14.8379 11.1227 11.2693C14.6417 7.70067 18.852 4.91465 23.7535 2.94253C28.655 0.97041 34.0592 0 39.9348 0C45.8417 0 51.2146 0.97041 56.0846 2.94253C60.9547 4.91465 65.165 7.70067 68.7155 11.2693C71.1348 13.7109 73.1771 16.4344 74.8424 19.4708C75.6279 20.9108 76.3191 22.382 76.9475 23.9472C78.8955 28.8306 79.8696 34.2148 79.8696 40.0685V40.1624C79.8696 44.5136 80.5922 48.5518 82.0375 52.2769C83.4829 56.002 85.5566 59.2889 88.2273 62.0436C90.898 64.8296 94.0714 66.9583 97.7475 68.4921C101.392 70.026 105.414 70.7773 109.75 70.7773C114.117 70.7773 118.108 70.026 121.752 68.4921C125.397 66.9583 128.571 64.7983 131.21 62.0436C133.849 59.2576 135.923 56.002 137.4 52.2769C138.876 48.5205 139.599 44.4823 139.599 40.1624C139.599 35.8112 138.845 31.7731 137.4 28.048C135.923 24.3228 133.849 21.036 131.21 18.2813C128.571 15.4952 125.397 13.3353 121.752 11.7701C118.108 10.205 114.086 9.42236 109.75 9.42236C105.383 9.42236 101.392 10.205 97.7475 11.7701C97.4962 11.864 97.2762 11.9893 97.0249 12.1145L103.749 18.8134L113.426 28.4549C114.494 29.5192 115.029 30.7088 115.029 32.0235C115.029 33.3383 114.494 34.4965 113.426 35.5921C112.358 36.6564 111.164 37.1886 109.844 37.1886C108.525 37.1886 107.362 36.6564 106.262 35.5921L96.2708 25.575L89.0756 18.3752L85.2424 14.5248C84.2369 13.4605 83.7342 12.3023 83.6714 11.0188C83.64 9.7667 84.1741 8.57717 85.2424 7.51285C85.9022 6.85547 86.5934 6.44853 87.3475 6.1981C89.2956 4.94596 91.3693 3.88164 93.6001 2.97384C98.4702 1.00171 103.843 0.0313035 109.75 0.0313035C115.657 0.0313035 121.061 1.00171 125.931 2.97384C130.833 4.94596 135.012 7.73197 138.562 11.3006C142.081 14.8692 144.815 19.1265 146.763 24.0098H146.826Z" fill="white"/>
<path d="M125.792 112.829V102.516H129.662C130.45 102.516 131.081 102.62 131.558 102.829C132.033 103.037 132.406 103.358 132.676 103.793C132.948 104.224 133.081 104.678 133.081 105.153C133.081 105.593 132.962 106.007 132.722 106.398C132.485 106.786 132.126 107.101 131.642 107.341C132.267 107.524 132.748 107.836 133.081 108.276C133.417 108.716 133.584 109.237 133.584 109.836C133.584 110.323 133.48 110.771 133.278 111.185C133.072 111.599 132.82 111.92 132.522 112.146C132.221 112.369 131.845 112.54 131.393 112.656C130.939 112.771 130.386 112.829 129.729 112.829H125.795H125.792ZM127.162 106.852H129.39C129.995 106.852 130.429 106.812 130.69 106.731C131.037 106.626 131.301 106.456 131.474 106.215C131.651 105.975 131.738 105.674 131.738 105.312C131.738 104.971 131.657 104.667 131.492 104.406C131.33 104.146 131.092 103.963 130.788 103.868C130.484 103.772 129.961 103.723 129.22 103.723H127.159V106.849L127.162 106.852ZM127.162 111.619H129.729C130.172 111.619 130.482 111.602 130.661 111.57C130.974 111.515 131.237 111.423 131.448 111.289C131.66 111.156 131.833 110.965 131.969 110.713C132.105 110.462 132.175 110.169 132.175 109.842C132.175 109.457 132.076 109.121 131.877 108.835C131.68 108.548 131.405 108.351 131.055 108.236C130.707 108.12 130.204 108.062 129.547 108.062H127.162V111.619ZM144.647 102.516H146.016V108.473C146.016 109.509 145.898 110.334 145.666 110.942C145.432 111.55 145.009 112.048 144.398 112.427C143.785 112.809 142.986 113 141.993 113C141.029 113 140.242 112.835 139.628 112.499C139.014 112.166 138.577 111.686 138.314 111.055C138.054 110.424 137.92 109.561 137.92 108.47V102.513H139.289V108.467C139.289 109.362 139.373 110.024 139.538 110.447C139.703 110.873 139.987 111.2 140.392 111.428C140.795 111.66 141.29 111.773 141.874 111.773C142.873 111.773 143.585 111.544 144.01 111.09C144.436 110.632 144.647 109.761 144.647 108.464V102.51V102.516ZM150.28 109.515L151.562 109.399C151.623 109.917 151.765 110.343 151.988 110.676C152.21 111.006 152.558 111.275 153.024 111.483C153.493 111.686 154.019 111.79 154.607 111.79C155.128 111.79 155.585 111.712 155.985 111.556C156.384 111.399 156.68 111.185 156.873 110.916C157.067 110.644 157.166 110.349 157.166 110.033C157.166 109.712 157.073 109.431 156.885 109.188C156.697 108.948 156.387 108.745 155.956 108.58C155.681 108.476 155.067 108.305 154.121 108.079C153.174 107.851 152.511 107.637 152.129 107.437C151.637 107.176 151.273 106.855 151.032 106.473C150.789 106.091 150.671 105.662 150.671 105.188C150.671 104.664 150.818 104.178 151.113 103.726C151.409 103.272 151.837 102.93 152.407 102.693C152.975 102.458 153.606 102.34 154.3 102.34C155.064 102.34 155.739 102.461 156.321 102.71C156.902 102.953 157.354 103.318 157.667 103.798C157.982 104.276 158.15 104.817 158.173 105.422L156.862 105.524C156.792 104.872 156.555 104.38 156.15 104.05C155.745 103.717 155.143 103.55 154.352 103.55C153.527 103.55 152.922 103.7 152.546 104.004C152.17 104.308 151.979 104.673 151.979 105.098C151.979 105.469 152.112 105.772 152.381 106.013C152.645 106.25 153.331 106.496 154.439 106.748C155.548 107 156.309 107.22 156.723 107.405C157.319 107.68 157.765 108.03 158.051 108.453C158.338 108.875 158.48 109.362 158.48 109.914C158.48 110.464 158.324 110.977 158.008 111.463C157.693 111.946 157.244 112.326 156.656 112.595C156.069 112.864 155.409 112.997 154.671 112.997C153.739 112.997 152.96 112.861 152.329 112.589C151.698 112.317 151.206 111.909 150.847 111.362C150.488 110.818 150.3 110.201 150.28 109.509V109.515ZM162.995 112.829V102.516H164.364V112.829H162.995ZM169.184 112.829V102.516H170.585L175.994 110.612V102.516H177.306V112.829H175.905L170.495 104.733V112.829H169.184ZM182.061 112.829V102.516H189.509V103.726H183.43V106.896H189.121V108.105H183.43V111.619H189.755V112.829H182.064H182.061ZM193.625 109.515L194.907 109.399C194.968 109.917 195.11 110.343 195.332 110.676C195.555 111.006 195.903 111.275 196.369 111.483C196.838 111.686 197.364 111.79 197.952 111.79C198.473 111.79 198.93 111.712 199.33 111.556C199.729 111.399 200.024 111.185 200.218 110.916C200.412 110.644 200.511 110.349 200.511 110.033C200.511 109.712 200.418 109.431 200.23 109.188C200.042 108.948 199.732 108.745 199.301 108.58C199.026 108.476 198.412 108.305 197.466 108.079C196.519 107.851 195.856 107.637 195.474 107.437C194.982 107.176 194.617 106.855 194.377 106.473C194.134 106.091 194.015 105.662 194.015 105.188C194.015 104.664 194.163 104.178 194.458 103.726C194.754 103.272 195.182 102.93 195.752 102.693C196.319 102.458 196.95 102.34 197.645 102.34C198.409 102.34 199.084 102.461 199.665 102.71C200.247 102.953 200.699 103.318 201.011 103.798C201.327 104.276 201.495 104.817 201.518 105.422L200.207 105.524C200.137 104.872 199.9 104.38 199.495 104.05C199.089 103.717 198.487 103.55 197.697 103.55C196.872 103.55 196.267 103.7 195.891 104.004C195.515 104.308 195.324 104.673 195.324 105.098C195.324 105.469 195.457 105.772 195.726 106.013C195.989 106.25 196.675 106.496 197.784 106.748C198.893 107 199.654 107.22 200.068 107.405C200.664 107.68 201.11 108.03 201.396 108.453C201.683 108.875 201.825 109.362 201.825 109.914C201.825 110.464 201.668 110.977 201.353 111.463C201.037 111.946 200.589 112.326 200.001 112.595C199.414 112.864 198.754 112.997 198.016 112.997C197.084 112.997 196.305 112.861 195.674 112.589C195.043 112.317 194.551 111.909 194.192 111.362C193.833 110.818 193.645 110.201 193.625 109.509V109.515ZM205.666 109.515L206.948 109.399C207.009 109.917 207.151 110.343 207.373 110.676C207.596 111.006 207.944 111.275 208.41 111.483C208.879 111.686 209.405 111.79 209.993 111.79C210.514 111.79 210.971 111.712 211.371 111.556C211.77 111.399 212.065 111.185 212.259 110.916C212.453 110.644 212.552 110.349 212.552 110.033C212.552 109.712 212.459 109.431 212.271 109.188C212.083 108.948 211.773 108.745 211.342 108.58C211.067 108.476 210.453 108.305 209.507 108.079C208.56 107.851 207.897 107.637 207.515 107.437C207.023 107.176 206.659 106.855 206.418 106.473C206.175 106.091 206.056 105.662 206.056 105.188C206.056 104.664 206.204 104.178 206.499 103.726C206.795 103.272 207.223 102.93 207.793 102.693C208.36 102.458 208.991 102.34 209.686 102.34C210.45 102.34 211.125 102.461 211.707 102.71C212.288 102.953 212.74 103.318 213.052 103.798C213.368 104.276 213.536 104.817 213.559 105.422L212.248 105.524C212.178 104.872 211.941 104.38 211.536 104.05C211.131 103.717 210.528 103.55 209.738 103.55C208.913 103.55 208.308 103.7 207.932 104.004C207.556 104.308 207.365 104.673 207.365 105.098C207.365 105.469 207.498 105.772 207.767 106.013C208.031 106.25 208.717 106.496 209.825 106.748C210.934 107 211.695 107.22 212.109 107.405C212.705 107.68 213.151 108.03 213.437 108.453C213.724 108.875 213.866 109.362 213.866 109.914C213.866 110.464 213.709 110.977 213.394 111.463C213.078 111.946 212.63 112.326 212.042 112.595C211.455 112.864 210.795 112.997 210.057 112.997C209.125 112.997 208.346 112.861 207.715 112.589C207.084 112.317 206.592 111.909 206.233 111.362C205.874 110.818 205.686 110.201 205.666 109.509V109.515ZM229.499 109.211L230.868 109.556C230.581 110.676 230.069 111.53 229.325 112.117C228.584 112.705 227.675 113 226.604 113C225.496 113 224.593 112.774 223.895 112.32C223.2 111.868 222.671 111.214 222.309 110.357C221.947 109.498 221.765 108.577 221.765 107.593C221.765 106.519 221.967 105.584 222.378 104.785C222.789 103.987 223.371 103.379 224.13 102.962C224.885 102.548 225.719 102.34 226.628 102.34C227.661 102.34 228.526 102.6 229.227 103.127C229.93 103.654 230.419 104.389 230.697 105.341L229.357 105.657C229.12 104.907 228.772 104.36 228.318 104.018C227.864 103.674 227.293 103.503 226.604 103.503C225.814 103.503 225.151 103.694 224.622 104.073C224.092 104.453 223.716 104.965 223.502 105.602C223.284 106.244 223.177 106.904 223.177 107.582C223.177 108.459 223.305 109.223 223.559 109.877C223.814 110.531 224.211 111.02 224.749 111.344C225.287 111.669 225.866 111.831 226.494 111.831C227.259 111.831 227.901 111.611 228.431 111.171C228.958 110.728 229.317 110.077 229.505 109.208L229.499 109.211ZM234.929 112.829V102.516H236.298V111.619H241.369V112.829H234.932H234.929ZM244.298 112.829L248.255 102.516H249.754L253.954 112.829H252.4L251.208 109.703H246.866L245.749 112.829H244.301H244.298ZM247.265 108.595H250.779L249.702 105.735C249.378 104.867 249.132 104.149 248.964 103.581C248.822 104.253 248.634 104.913 248.394 105.567L247.262 108.595H247.265ZM257.023 109.518L258.305 109.402C258.366 109.92 258.507 110.346 258.73 110.679C258.953 111.009 259.3 111.278 259.766 111.486C260.235 111.689 260.762 111.793 261.35 111.793C261.871 111.793 262.328 111.715 262.728 111.559C263.127 111.402 263.422 111.188 263.616 110.919C263.81 110.647 263.908 110.352 263.908 110.036C263.908 109.715 263.816 109.434 263.628 109.191C263.44 108.951 263.13 108.748 262.699 108.583C262.424 108.479 261.81 108.308 260.863 108.082C259.917 107.854 259.254 107.639 258.872 107.44C258.38 107.179 258.015 106.858 257.775 106.476C257.532 106.094 257.413 105.665 257.413 105.191C257.413 104.667 257.561 104.181 257.856 103.729C258.151 103.275 258.58 102.933 259.15 102.696C259.717 102.461 260.348 102.343 261.043 102.343C261.807 102.343 262.482 102.464 263.063 102.713C263.645 102.956 264.097 103.321 264.409 103.801C264.725 104.279 264.893 104.82 264.916 105.425L263.605 105.526C263.535 104.875 263.298 104.383 262.893 104.053C262.487 103.72 261.885 103.552 261.095 103.552C260.27 103.552 259.665 103.703 259.289 104.007C258.913 104.311 258.722 104.675 258.722 105.101C258.722 105.471 258.855 105.775 259.124 106.016C259.387 106.253 260.073 106.499 261.182 106.751C262.29 107.003 263.052 107.223 263.466 107.408C264.062 107.683 264.508 108.033 264.794 108.456C265.081 108.878 265.223 109.365 265.223 109.917C265.223 110.467 265.066 110.98 264.751 111.466C264.435 111.949 263.987 112.328 263.399 112.598C262.811 112.867 262.152 113 261.413 113C260.481 113 259.703 112.864 259.072 112.592C258.441 112.32 257.949 111.912 257.59 111.365C257.231 110.82 257.043 110.204 257.023 109.512V109.518ZM269.064 109.518L270.346 109.402C270.407 109.92 270.548 110.346 270.771 110.679C270.994 111.009 271.342 111.278 271.808 111.486C272.276 111.689 272.803 111.793 273.391 111.793C273.912 111.793 274.369 111.715 274.769 111.559C275.168 111.402 275.463 111.188 275.657 110.919C275.851 110.647 275.95 110.352 275.95 110.036C275.95 109.715 275.857 109.434 275.669 109.191C275.481 108.951 275.171 108.748 274.74 108.583C274.465 108.479 273.851 108.308 272.905 108.082C271.958 107.854 271.295 107.639 270.913 107.44C270.421 107.179 270.056 106.858 269.816 106.476C269.573 106.094 269.454 105.665 269.454 105.191C269.454 104.667 269.602 104.181 269.897 103.729C270.192 103.275 270.621 102.933 271.191 102.696C271.758 102.461 272.389 102.343 273.084 102.343C273.848 102.343 274.523 102.464 275.104 102.713C275.686 102.956 276.138 103.321 276.45 103.801C276.766 104.279 276.934 104.82 276.957 105.425L275.646 105.526C275.576 104.875 275.339 104.383 274.934 104.053C274.528 103.72 273.926 103.552 273.136 103.552C272.311 103.552 271.706 103.703 271.33 104.007C270.954 104.311 270.763 104.675 270.763 105.101C270.763 105.471 270.896 105.775 271.165 106.016C271.428 106.253 272.114 106.499 273.223 106.751C274.332 107.003 275.093 107.223 275.507 107.408C276.103 107.683 276.549 108.033 276.835 108.456C277.122 108.878 277.264 109.365 277.264 109.917C277.264 110.467 277.107 110.98 276.792 111.466C276.476 111.949 276.028 112.328 275.44 112.598C274.853 112.867 274.193 113 273.454 113C272.522 113 271.744 112.864 271.113 112.592C270.482 112.32 269.99 111.912 269.631 111.365C269.272 110.82 269.084 110.204 269.064 109.512V109.518ZM285.206 107.77C285.206 107.278 285.38 106.858 285.733 106.511C286.08 106.163 286.5 105.99 286.992 105.99C287.484 105.99 287.907 106.163 288.254 106.511C288.604 106.858 288.781 107.278 288.781 107.77C288.781 108.265 288.604 108.687 288.254 109.035C287.907 109.385 287.484 109.561 286.992 109.561C286.503 109.561 286.083 109.385 285.733 109.035C285.383 108.687 285.206 108.265 285.206 107.77ZM296.972 112.829V102.516H300.842C301.629 102.516 302.26 102.62 302.738 102.829C303.213 103.037 303.586 103.358 303.855 103.793C304.127 104.224 304.26 104.678 304.26 105.153C304.26 105.593 304.142 106.007 303.902 106.398C303.664 106.786 303.305 107.101 302.822 107.341C303.447 107.524 303.928 107.836 304.26 108.276C304.596 108.716 304.764 109.237 304.764 109.836C304.764 110.323 304.66 110.771 304.457 111.185C304.252 111.599 304 111.92 303.702 112.146C303.401 112.369 303.025 112.54 302.573 112.656C302.119 112.771 301.566 112.829 300.909 112.829H296.975H296.972ZM298.341 106.852H300.57C301.175 106.852 301.609 106.812 301.87 106.731C302.217 106.626 302.48 106.456 302.654 106.215C302.831 105.975 302.917 105.674 302.917 105.312C302.917 104.971 302.836 104.667 302.671 104.406C302.509 104.146 302.272 103.963 301.968 103.868C301.664 103.772 301.14 103.723 300.399 103.723H298.338V106.849L298.341 106.852ZM298.341 111.619H300.909C301.352 111.619 301.661 111.602 301.841 111.57C302.153 111.515 302.417 111.423 302.628 111.289C302.839 111.156 303.013 110.965 303.149 110.713C303.285 110.462 303.355 110.169 303.355 109.842C303.355 109.457 303.256 109.121 303.056 108.835C302.86 108.548 302.585 108.351 302.234 108.236C301.887 108.12 301.383 108.062 300.726 108.062H298.341V111.619ZM311.977 112.829V108.461L308 102.516H309.641L311.679 105.636C312.058 106.215 312.411 106.794 312.733 107.373C313.048 106.832 313.427 106.227 313.873 105.555L315.87 102.516H317.462L313.343 108.461V112.829H311.974H311.977ZM324.837 112.829V102.516H326.238L331.648 110.612V102.516H332.959V112.829H331.558L326.149 104.733V112.829H324.837ZM337.715 112.829V102.516H342.285C343.206 102.516 343.903 102.609 344.381 102.794C344.858 102.979 345.241 103.306 345.527 103.772C345.814 104.241 345.955 104.759 345.955 105.327C345.955 106.059 345.718 106.676 345.243 107.176C344.772 107.677 344.042 107.995 343.052 108.131C343.414 108.305 343.689 108.476 343.877 108.644C344.277 109.009 344.653 109.469 345.006 110.016L346.789 112.823H345.084L343.721 110.679C343.324 110.056 342.994 109.585 342.74 109.255C342.479 108.925 342.251 108.699 342.045 108.566C341.842 108.435 341.634 108.346 341.423 108.294C341.269 108.262 341.018 108.244 340.664 108.244H339.084V112.823H337.715V112.829ZM339.084 107.069H342.013C342.638 107.069 343.122 107.006 343.472 106.875C343.822 106.748 344.089 106.542 344.268 106.256C344.45 105.972 344.54 105.665 344.54 105.333C344.54 104.846 344.366 104.441 344.013 104.128C343.66 103.813 343.104 103.657 342.343 103.657H339.084V107.069ZM355.348 108.783V107.573H359.713V111.394C359.044 111.926 358.353 112.328 357.641 112.598C356.928 112.867 356.196 113 355.446 113C354.433 113 353.513 112.783 352.685 112.349C351.86 111.917 351.232 111.289 350.812 110.47C350.39 109.648 350.179 108.731 350.179 107.72C350.179 106.716 350.387 105.781 350.807 104.91C351.226 104.042 351.828 103.396 352.616 102.976C353.403 102.554 354.309 102.343 355.337 102.343C356.08 102.343 356.755 102.461 357.357 102.704C357.959 102.947 358.434 103.283 358.772 103.712C359.117 104.143 359.374 104.707 359.554 105.402L358.324 105.738C358.167 105.214 357.976 104.803 357.748 104.499C357.516 104.198 357.192 103.958 356.763 103.778C356.338 103.599 355.866 103.506 355.345 103.506C354.723 103.506 354.184 103.602 353.73 103.793C353.276 103.984 352.911 104.233 352.63 104.545C352.352 104.855 352.135 105.196 351.982 105.564C351.721 106.204 351.588 106.896 351.588 107.642C351.588 108.563 351.747 109.336 352.06 109.955C352.375 110.574 352.839 111.035 353.441 111.336C354.046 111.637 354.688 111.787 355.365 111.787C355.956 111.787 356.532 111.671 357.093 111.443C357.655 111.211 358.08 110.971 358.37 110.708V108.774H355.345L355.348 108.783Z" fill="white"/>
</svg>
