<?xml version="1.0" encoding="UTF-8"?>
<svg id="_Слой_2" data-name="Слой 2" xmlns="http://www.w3.org/2000/svg" viewBox="0 0 677.02 295.47">
  <defs>
    <style>
      .cls-1 {
        letter-spacing: 0em;
      }

      .cls-2 {
        fill: #f2efe8;
      }

      .cls-3 {
        letter-spacing: .02em;
      }

      .cls-4 {
        fill: #f48968;
        font-family: PPNeueMontreal-Bold, 'PP Neue Montreal';
        font-size: 113.21px;
        font-weight: 700;
      }
    </style>
  </defs>
  <g id="_Слой_1-2" data-name="Слой 1">
    <g>
      <g>
        <path class="cls-2" d="M379.55,4.01h-107.94c-21.84,0-32.89,6.28-43.93,26.11l-26.61,47.7c-5.02,9.04-9.79,13.05-15.81,13.05-7.53,0-12.8-4.27-16.82-14.81l-16.32-43.43C144.09,11.3,131.28,0,109.95,0c-23.1,0-39.66,10.29-53.22,33.38L0,129.78h59.99l39.66-71.04c6.52-11.8,11.04-16.06,18.07-16.06,6.53,0,10.29,4.27,14.06,14.31l16.07,43.43c8.29,22.34,24.6,32.89,46.19,32.89,19.83,0,38.41-10.04,56.48-41.67l31.88-55.98c3.51-6.02,8.03-8.53,16.82-8.53h59.24c19.08,0,26.86,8.53,26.86,18.32,0,10.54-7.78,19.33-26.11,19.33h-36.4c-14.06,0-21.09,5.77-21.34,15.06-.25,10.04,7.03,17.57,17.07,25.6l30.37,24.1,76.31.25-60.43-46.18h10.98c39.16,0,64.76-12.8,64.76-40.92,0-19.33-18.32-38.66-61-38.66Z"/>
        <path class="cls-2" d="M648.14,59.24h-94.58l-13.8,23.1h65.97c5.02,0,7.28,2.01,7.03,5.27-.75,10.79-16.31,22.34-50.2,22.34-40.67,0-61.75-14.06-61.75-40.92,0-29.37,27.36-41.67,61-41.67h92.13l14.06-23.35h-110.45c-52.47,0-112.71,14.56-112.71,65.01,0,44.94,49.2,63.01,105.68,63.01h15.06c57.73,0,111.45-15.31,111.45-53.22,0-13.8-13.31-19.58-28.87-19.58Z"/>
      </g>
      <text class="cls-4" transform="translate(154.67 263.2)"><tspan class="cls-3" x="0" y="0">SE</tspan><tspan class="cls-1" x="152.73" y="0">R</tspan><tspan class="cls-3" x="231.41" y="0">VICE</tspan></text>
    </g>
  </g>
</svg>