<svg width="32" height="33" viewBox="0 0 32 33" fill="none" xmlns="http://www.w3.org/2000/svg">
<path d="M15.999 2.47656C13.0827 2.48002 10.2868 3.64006 8.22467 5.70221C6.16252 7.76436 5.00248 10.5602 4.99902 13.4766C4.99902 22.8887 14.999 29.998 15.4248 30.2959C15.5932 30.4135 15.7936 30.4766 15.999 30.4766C16.2044 30.4766 16.4049 30.4135 16.5732 30.2959C16.999 29.998 26.999 22.8887 26.999 13.4766C26.9956 10.5602 25.8355 7.76436 23.7734 5.70221C21.7112 3.64006 18.9153 2.48002 15.999 2.47656V2.47656ZM15.9998 9.47692C16.7909 9.47692 17.5642 9.71152 18.222 10.151C18.8798 10.5906 19.3925 11.2153 19.6953 11.9462C19.998 12.6771 20.0772 13.4814 19.9229 14.2573C19.7686 15.0332 19.3876 15.7459 18.8282 16.3054C18.2688 16.8648 17.556 17.2457 16.7801 17.4001C16.0042 17.5544 15.1999 17.4752 14.469 17.1724C13.7381 16.8697 13.1134 16.357 12.6739 15.6992C12.2344 15.0414 11.9998 14.2681 11.9998 13.4769C11.9997 12.9516 12.1032 12.4315 12.3042 11.9462C12.5052 11.4609 12.7999 11.0199 13.1713 10.6485C13.5427 10.277 13.9837 9.98239 14.469 9.78138C14.9543 9.58036 15.4745 9.47691 15.9998 9.47692V9.47692Z" fill="#16377C"/>
</svg>
