<svg width="64" height="64" viewBox="0 0 64 64" fill="none" xmlns="http://www.w3.org/2000/svg">
<circle cx="32" cy="32" r="32" fill="#E3ECFF"/>
<path d="M48.6983 30.7295H46.7874C46.4897 27.2278 44.9635 23.9441 42.4784 21.4591C39.9934 18.9741 36.7097 17.4478 33.208 17.1501V15.2392C33.208 14.9106 33.0774 14.5954 32.845 14.363C32.6126 14.1306 32.2974 14 31.9688 14C31.6401 14 31.3249 14.1306 31.0925 14.363C30.8601 14.5954 30.7295 14.9106 30.7295 15.2392V17.1501C27.2278 17.4478 23.9441 18.9741 21.4591 21.4591C18.9741 23.9441 17.4478 27.2278 17.1501 30.7295H15.2392C14.9106 30.7295 14.5954 30.8601 14.363 31.0925C14.1306 31.3249 14 31.6401 14 31.9688C14 32.2974 14.1306 32.6126 14.363 32.845C14.5954 33.0774 14.9106 33.208 15.2392 33.208H17.1501C17.4478 36.7097 18.9741 39.9934 21.4591 42.4784C23.9441 44.9634 27.2278 46.4897 30.7295 46.7874V48.6983C30.7295 49.0269 30.8601 49.3421 31.0925 49.5745C31.3249 49.8069 31.6401 49.9375 31.9688 49.9375C32.2974 49.9375 32.6126 49.8069 32.845 49.5745C33.0774 49.3421 33.208 49.0269 33.208 48.6983V46.7874C36.7097 46.4897 39.9934 44.9634 42.4784 42.4784C44.9635 39.9934 46.4897 36.7097 46.7874 33.208H48.6983C49.0269 33.208 49.3421 33.0774 49.5745 32.845C49.8069 32.6126 49.9375 32.2974 49.9375 31.9688C49.9375 31.6401 49.8069 31.3249 49.5745 31.0925C49.3421 30.8601 49.0269 30.7295 48.6983 30.7295ZM42.5022 33.208H44.2989C44.0091 36.0507 42.7474 38.7064 40.7269 40.7269C38.7064 42.7474 36.0507 44.0091 33.208 44.2989V42.5022C33.208 42.1735 33.0774 41.8583 32.845 41.6259C32.6126 41.3935 32.2974 41.2629 31.9688 41.2629C31.6401 41.2629 31.3249 41.3935 31.0925 41.6259C30.8601 41.8583 30.7295 42.1735 30.7295 42.5022V44.2989C27.8868 44.0091 25.2311 42.7474 23.2106 40.7269C21.1901 38.7064 19.9285 36.0507 19.6386 33.208H21.4353C21.764 33.208 22.0792 33.0774 22.3116 32.845C22.544 32.6126 22.6746 32.2974 22.6746 31.9688C22.6746 31.6401 22.544 31.3249 22.3116 31.0925C22.0792 30.8601 21.764 30.7295 21.4353 30.7295H19.6386C19.9285 27.8868 21.1901 25.2311 23.2106 23.2106C25.2311 21.1901 27.8868 19.9285 30.7295 19.6386V21.4353C30.7295 21.764 30.8601 22.0792 31.0925 22.3116C31.3249 22.544 31.6401 22.6746 31.9688 22.6746C32.2974 22.6746 32.6126 22.544 32.845 22.3116C33.0774 22.0792 33.208 21.764 33.208 21.4353V19.6386C36.0507 19.9285 38.7064 21.1901 40.7269 23.2106C42.7474 25.2311 44.0091 27.8868 44.2989 30.7295H42.5022C42.1735 30.7295 41.8583 30.8601 41.6259 31.0925C41.3935 31.3249 41.2629 31.6401 41.2629 31.9688C41.2629 32.2974 41.3935 32.6126 41.6259 32.845C41.8583 33.0774 42.1735 33.208 42.5022 33.208Z" fill="#16377C"/>
<path d="M31.9688 38.1648C35.3908 38.1648 38.1649 35.3907 38.1649 31.9687C38.1649 28.5467 35.3908 25.7726 31.9688 25.7726C28.5468 25.7726 25.7727 28.5467 25.7727 31.9687C25.7727 35.3907 28.5468 38.1648 31.9688 38.1648Z" fill="#16377C"/>
</svg>
