<svg width="275" height="131" viewBox="0 0 275 131" fill="none" xmlns="http://www.w3.org/2000/svg">
<g opacity="0.1">
<path d="M5 35.1372L56.9157 15.6688C68.3404 11.3846 80.968 11.612 92.2311 16.305L119.217 27.5491C130.884 32.4105 143.999 32.4737 155.712 27.7249L184.331 16.1229C195.619 11.5463 208.226 11.433 219.595 15.8058L269.857 35.1372" stroke="white" stroke-width="24"/>
<path d="M5 76.9575L56.9157 57.4892C68.3404 53.2049 80.968 53.4323 92.2311 58.1253L119.217 69.3694C130.884 74.2308 143.999 74.294 155.712 69.5452L184.331 57.9432C195.619 53.3666 208.226 53.2533 219.595 57.6261L269.857 76.9575" stroke="white" stroke-width="24"/>
<path d="M5 118.776L56.9157 99.3075C68.3404 95.0232 80.968 95.2507 92.2311 99.9436L119.217 111.188C130.884 116.049 143.999 116.112 155.712 111.364L184.331 99.7616C195.619 95.185 208.226 95.0716 219.595 99.4445L269.857 118.776" stroke="white" stroke-width="24"/>
</g>
</svg>
