<svg width="80" height="37" viewBox="0 0 80 37" fill="none" xmlns="http://www.w3.org/2000/svg">
<path d="M2 9.5L14.5902 4.77869C19.3505 2.99356 24.612 3.08833 29.305 5.04373L32.4118 6.33827C37.2733 8.36387 42.7375 8.3902 47.6183 6.41152L51.1793 4.96787C55.8829 3.06097 61.1357 3.01373 65.8729 4.83574L78 9.5" stroke="white" stroke-width="7"/>
<path d="M2 21.5L14.5902 16.7787C19.3505 14.9936 24.612 15.0883 29.305 17.0437L32.4118 18.3383C37.2733 20.3639 42.7375 20.3902 47.6183 18.4115L51.1793 16.9679C55.8829 15.061 61.1357 15.0137 65.8729 16.8357L78 21.5" stroke="white" stroke-width="7"/>
<path d="M2 33.5L14.5902 28.7787C19.3505 26.9936 24.612 27.0883 29.305 29.0437L32.4118 30.3383C37.2733 32.3639 42.7375 32.3902 47.6183 30.4115L51.1793 28.9679C55.8829 27.061 61.1357 27.0137 65.8729 28.8357L78 33.5" stroke="white" stroke-width="7"/>
</svg>
